<?xml version="1.0" standalone="no"?><!DOCTYPE svg PUBLIC "-//W3C//DTD SVG 1.1//EN" "http://www.w3.org/Graphics/SVG/1.1/DTD/svg11.dtd"><svg width="100%" height="100%" viewBox="0 0 20 20" version="1.1" xmlns="http://www.w3.org/2000/svg" xmlns:xlink="http://www.w3.org/1999/xlink" xml:space="preserve" style="fill-rule:evenodd;clip-rule:evenodd;stroke-linejoin:round;stroke-miterlimit:1.41421;"><g id="Layer1"><g><path d="M5.611,17.378l8.777,0l0,-14.737l-8.777,0c0,4.912 0,9.825 0,14.737ZM5.594,19.987c-0.331,-0.005 -0.658,-0.07 -0.963,-0.205c-0.592,-0.262 -1.073,-0.763 -1.324,-1.382c-0.122,-0.301 -0.183,-0.62 -0.195,-0.946c-0.06,-4.962 -0.06,-9.927 0,-14.889c0.012,-0.326 0.073,-0.645 0.195,-0.946c0.251,-0.619 0.732,-1.12 1.324,-1.382c0.289,-0.128 0.595,-0.192 0.907,-0.204c2.974,-0.039 5.949,-0.039 8.924,0c0.312,0.012 0.618,0.076 0.906,0.204c0.593,0.262 1.073,0.763 1.324,1.382c0.123,0.301 0.184,0.62 0.196,0.946c0.06,4.962 0.06,9.927 0,14.889c-0.012,0.326 -0.073,0.645 -0.196,0.946c-0.251,0.619 -0.731,1.12 -1.324,1.382c-0.288,0.128 -0.594,0.192 -0.906,0.204c-2.956,0.039 -5.912,0.001 -8.868,0.001Z" style="fill:#c8c8c8;fill-rule:nonzero;"/><ellipse cx="10" cy="14.882" rx="1.241" ry="1.295" style="fill:#c8c8c8;"/></g></g></svg>