<?xml version="1.0" standalone="no"?><!DOCTYPE svg PUBLIC "-//W3C//DTD SVG 1.1//EN" "http://www.w3.org/Graphics/SVG/1.1/DTD/svg11.dtd"><svg width="100%" height="100%" viewBox="0 0 80 45" version="1.1" xmlns="http://www.w3.org/2000/svg" xmlns:xlink="http://www.w3.org/1999/xlink" xml:space="preserve" style="fill-rule:evenodd;clip-rule:evenodd;stroke-linejoin:round;stroke-miterlimit:1.41421;"><g id="Layer1"><path d="M9.689,19.98l-9.645,-19.973l19.29,0c-3.215,6.658 -6.43,13.315 -9.645,19.973ZM9.689,14.231l5.661,-11.724l-11.322,0c1.887,3.908 3.774,7.816 5.661,11.724Z" style="fill:#bbb;fill-rule:nonzero;"/><path d="M9.636,19.98l-9.645,-19.973l19.29,0c-3.215,6.658 -6.43,13.315 -9.645,19.973ZM9.636,14.231l5.661,-11.724l-11.322,0c1.887,3.908 3.774,7.816 5.661,11.724Z" style="fill:#bbb;fill-rule:nonzero;"/><g><path d="M54.346,17.158l-14.373,-9.487l13.305,-7.646c0.356,5.711 0.712,11.422 1.068,17.133ZM51.514,12.277l-0.502,-8.051l-6.251,3.593c2.251,1.486 4.502,2.972 6.753,4.458Z" style="fill:#bbb;fill-rule:nonzero;"/><ellipse cx="54.493" cy="17.108" rx="2.931" ry="2.917" style="fill:#bbb;"/></g><path d="M27.238,20.03c-0.277,-0.002 -0.553,-0.016 -0.828,-0.048c-0.566,-0.065 -1.123,-0.198 -1.657,-0.395c-0.794,-0.293 -1.535,-0.728 -2.18,-1.278c-0.708,-0.604 -1.3,-1.344 -1.733,-2.17c-0.317,-0.606 -0.549,-1.257 -0.685,-1.929c-0.073,-0.36 -0.119,-0.726 -0.138,-1.093c-0.012,-0.233 -0.014,-0.468 0.002,-0.701c0.032,-0.453 0.121,-0.9 0.236,-1.338c0.149,-0.562 0.342,-1.112 0.557,-1.652c0.285,-0.716 0.61,-1.415 0.957,-2.103c0.376,-0.747 0.779,-1.481 1.201,-2.203c0.435,-0.744 0.889,-1.475 1.367,-2.192c0.379,-0.569 0.77,-1.131 1.194,-1.667c0.066,-0.084 0.135,-0.17 0.204,-0.252c0.063,-0.075 0.128,-0.151 0.193,-0.224c0.292,-0.325 0.638,-0.656 1.084,-0.733c0.075,-0.013 0.151,-0.022 0.226,-0.022c0.076,0 0.152,0.009 0.227,0.022c0.446,0.077 0.791,0.408 1.083,0.733c0.066,0.073 0.131,0.149 0.194,0.224c0.068,0.082 0.137,0.168 0.204,0.252c0.423,0.536 0.815,1.098 1.194,1.667c0.477,0.717 0.932,1.448 1.367,2.192c0.422,0.722 0.825,1.456 1.201,2.203c0.346,0.688 0.671,1.387 0.956,2.103c0.216,0.54 0.409,1.09 0.557,1.652c0.116,0.438 0.205,0.885 0.236,1.338c0.016,0.233 0.014,0.468 0.002,0.701c-0.018,0.367 -0.064,0.733 -0.137,1.093c-0.137,0.672 -0.368,1.323 -0.686,1.929c-0.802,1.532 -2.147,2.749 -3.747,3.385c-0.527,0.209 -1.08,0.356 -1.641,0.435c-0.273,0.039 -0.548,0.06 -0.824,0.068c-0.093,0.002 -0.093,0.002 -0.186,0.003ZM27.238,17.64c0.59,-0.004 1.174,-0.106 1.725,-0.318c1.1,-0.421 2.027,-1.251 2.576,-2.299c0.213,-0.406 0.368,-0.842 0.46,-1.292c0.049,-0.242 0.08,-0.488 0.092,-0.735c0.009,-0.179 0.009,-0.358 -0.011,-0.536c-0.046,-0.418 -0.158,-0.829 -0.285,-1.228c-0.159,-0.496 -0.349,-0.982 -0.558,-1.459c-0.62,-1.418 -1.364,-2.78 -2.168,-4.101c-0.559,-0.919 -1.149,-1.822 -1.793,-2.683l-0.038,-0.049c-0.282,0.37 -0.55,0.752 -0.81,1.138c-0.307,0.454 -0.602,0.914 -0.889,1.38c-0.855,1.387 -1.646,2.82 -2.3,4.315c-0.208,0.477 -0.399,0.963 -0.557,1.459c-0.128,0.399 -0.24,0.81 -0.286,1.228c-0.019,0.178 -0.019,0.357 -0.01,0.536c0.012,0.247 0.043,0.493 0.092,0.735c0.091,0.45 0.247,0.886 0.46,1.292c0.53,1.013 1.413,1.822 2.465,2.255c0.525,0.217 1.081,0.333 1.647,0.358c0.063,0.002 0.125,0.004 0.188,0.004Z" style="fill:#bbb;fill-rule:nonzero;"/><g><path d="M62.563,17.404l8.777,0l0,-14.737l-8.777,0c0,4.912 0,9.825 0,14.737ZM62.545,20.013c-0.33,-0.005 -0.657,-0.07 -0.962,-0.205c-0.593,-0.262 -1.073,-0.763 -1.324,-1.382c-0.123,-0.301 -0.184,-0.62 -0.196,-0.946c-0.06,-4.962 -0.06,-9.927 0,-14.889c0.012,-0.326 0.073,-0.645 0.196,-0.946c0.251,-0.619 0.731,-1.12 1.324,-1.382c0.288,-0.128 0.594,-0.192 0.906,-0.204c2.975,-0.039 5.95,-0.039 8.924,0c0.312,0.012 0.618,0.076 0.907,0.204c0.592,0.262 1.073,0.763 1.324,1.382c0.122,0.301 0.184,0.62 0.195,0.946c0.061,4.962 0.061,9.927 0,14.889c-0.011,0.326 -0.073,0.645 -0.195,0.946c-0.251,0.619 -0.732,1.12 -1.324,1.382c-0.289,0.128 -0.595,0.192 -0.907,0.204c-2.956,0.039 -5.912,0.001 -8.868,0.001Z" style="fill:#bbb;fill-rule:nonzero;"/><ellipse cx="66.951" cy="14.908" rx="1.241" ry="1.295" style="fill:#bbb;"/></g><path d="M9.636,41.062l-9.645,-19.972l19.29,0c-3.215,6.658 -6.43,13.315 -9.645,19.972ZM9.636,35.313l5.661,-11.723l-11.322,0c1.887,3.908 3.774,7.816 5.661,11.723Z" style="fill:#fff;fill-rule:nonzero;"/><g><path d="M54.346,38.241l-14.373,-9.487l13.305,-7.646c0.356,5.711 0.712,11.422 1.068,17.133ZM51.514,33.359l-0.502,-8.05l-6.251,3.592c2.251,1.486 4.502,2.972 6.753,4.458Z" style="fill:#fff;fill-rule:nonzero;"/><ellipse cx="54.493" cy="38.191" rx="2.931" ry="2.917" style="fill:#fff;"/></g><path d="M27.238,41.113c-0.277,-0.002 -0.553,-0.016 -0.828,-0.048c-0.566,-0.065 -1.123,-0.198 -1.657,-0.395c-0.794,-0.293 -1.535,-0.729 -2.18,-1.279c-0.708,-0.603 -1.3,-1.343 -1.733,-2.169c-0.317,-0.606 -0.549,-1.258 -0.685,-1.929c-0.073,-0.36 -0.119,-0.726 -0.138,-1.093c-0.012,-0.234 -0.014,-0.468 0.002,-0.702c0.032,-0.452 0.121,-0.899 0.236,-1.337c0.149,-0.562 0.342,-1.112 0.557,-1.652c0.285,-0.716 0.61,-1.415 0.957,-2.103c0.376,-0.747 0.779,-1.481 1.201,-2.203c0.435,-0.744 0.889,-1.476 1.367,-2.192c0.379,-0.569 0.77,-1.131 1.194,-1.668c0.066,-0.084 0.135,-0.169 0.204,-0.251c0.063,-0.076 0.128,-0.152 0.193,-0.224c0.292,-0.325 0.638,-0.656 1.084,-0.733c0.075,-0.013 0.151,-0.022 0.226,-0.022c0.076,0 0.152,0.009 0.227,0.022c0.446,0.077 0.791,0.408 1.083,0.733c0.066,0.072 0.131,0.149 0.194,0.224c0.068,0.082 0.137,0.167 0.204,0.251c0.423,0.537 0.815,1.099 1.194,1.668c0.477,0.716 0.932,1.448 1.367,2.192c0.422,0.722 0.825,1.456 1.201,2.203c0.346,0.688 0.671,1.387 0.956,2.103c0.216,0.54 0.409,1.09 0.557,1.652c0.116,0.438 0.205,0.885 0.236,1.337c0.016,0.234 0.014,0.468 0.002,0.702c-0.018,0.367 -0.064,0.733 -0.137,1.093c-0.137,0.671 -0.368,1.323 -0.686,1.929c-0.802,1.532 -2.147,2.748 -3.747,3.384c-0.527,0.21 -1.08,0.357 -1.641,0.436c-0.273,0.038 -0.548,0.059 -0.824,0.068c-0.093,0.002 -0.093,0.002 -0.186,0.003ZM27.238,38.723c0.59,-0.004 1.174,-0.107 1.725,-0.318c1.1,-0.422 2.027,-1.251 2.576,-2.299c0.213,-0.406 0.368,-0.843 0.46,-1.293c0.049,-0.242 0.08,-0.487 0.092,-0.734c0.009,-0.179 0.009,-0.358 -0.011,-0.536c-0.046,-0.418 -0.158,-0.829 -0.285,-1.228c-0.159,-0.496 -0.349,-0.982 -0.558,-1.459c-0.62,-1.418 -1.364,-2.781 -2.168,-4.101c-0.559,-0.92 -1.149,-1.822 -1.793,-2.683l-0.038,-0.049c-0.282,0.37 -0.55,0.752 -0.81,1.138c-0.307,0.453 -0.602,0.914 -0.889,1.38c-0.855,1.386 -1.646,2.82 -2.3,4.315c-0.208,0.477 -0.399,0.963 -0.557,1.459c-0.128,0.399 -0.24,0.81 -0.286,1.228c-0.019,0.178 -0.019,0.357 -0.01,0.536c0.012,0.247 0.043,0.492 0.092,0.734c0.091,0.45 0.247,0.887 0.46,1.293c0.53,1.012 1.413,1.822 2.465,2.255c0.525,0.216 1.081,0.333 1.647,0.358c0.063,0.002 0.125,0.003 0.188,0.004Z" style="fill:#fff;fill-rule:nonzero;"/><g><path d="M62.563,38.487l8.777,0l0,-14.737l-8.777,0c0,4.912 0,9.824 0,14.737ZM62.545,41.096c-0.33,-0.005 -0.657,-0.07 -0.962,-0.205c-0.593,-0.262 -1.073,-0.764 -1.324,-1.382c-0.123,-0.301 -0.184,-0.62 -0.196,-0.946c-0.06,-4.963 -0.06,-9.927 0,-14.89c0.012,-0.325 0.073,-0.645 0.196,-0.945c0.251,-0.619 0.731,-1.12 1.324,-1.382c0.288,-0.128 0.594,-0.192 0.906,-0.204c2.975,-0.04 5.95,-0.04 8.924,0c0.312,0.012 0.618,0.076 0.907,0.204c0.592,0.262 1.073,0.763 1.324,1.382c0.122,0.3 0.184,0.62 0.195,0.945c0.061,4.963 0.061,9.927 0,14.89c-0.011,0.326 -0.073,0.645 -0.195,0.946c-0.251,0.618 -0.732,1.12 -1.324,1.382c-0.289,0.127 -0.595,0.191 -0.907,0.204c-2.956,0.039 -5.912,0.001 -8.868,0.001Z" style="fill:#fff;fill-rule:nonzero;"/><ellipse cx="66.951" cy="35.991" rx="1.241" ry="1.295" style="fill:#fff;"/></g></g></svg>