<?xml version="1.0" standalone="no"?><!DOCTYPE svg PUBLIC "-//W3C//DTD SVG 1.1//EN" "http://www.w3.org/Graphics/SVG/1.1/DTD/svg11.dtd"><svg width="100%" height="100%" viewBox="0 0 20 20" version="1.1" xmlns="http://www.w3.org/2000/svg" xmlns:xlink="http://www.w3.org/1999/xlink" xml:space="preserve" style="fill-rule:evenodd;clip-rule:evenodd;stroke-miterlimit:10;"><g id="Layer1"><path d="M18.869,4.679c0,-1.958 -1.59,-3.548 -3.548,-3.548l-10.642,0c-1.958,0 -3.548,1.59 -3.548,3.548l0,10.642c0,1.958 1.59,3.548 3.548,3.548l10.642,0c1.958,0 3.548,-1.59 3.548,-3.548l0,-10.642Z" style="fill:none;stroke-width:2px;stroke:#a5a5a5;"/><circle cx="10" cy="12.06" r="2.489" style="fill:none;stroke-width:2px;stroke:#a5a5a5;"/><path d="M18.802,7.426c-0.188,-4.358 -2,-5.743 -2,-5.743c0,0 -9.549,-0.853 -12.465,-0.58c-2.916,0.274 -3.065,6.323 -3.065,6.323l17.53,0ZM15.394,2.638c0.694,0 1.257,0.564 1.257,1.258c0,0.693 -0.563,1.257 -1.257,1.257c-0.694,0 -1.257,-0.564 -1.257,-1.257c0,-0.694 0.563,-1.258 1.257,-1.258Z" style="fill:#a5a5a5;"/></g></svg>