<?xml version="1.0" standalone="no"?><!DOCTYPE svg PUBLIC "-//W3C//DTD SVG 1.1//EN" "http://www.w3.org/Graphics/SVG/1.1/DTD/svg11.dtd"><svg width="100%" height="100%" viewBox="0 0 24 24" version="1.1" xmlns="http://www.w3.org/2000/svg" xmlns:xlink="http://www.w3.org/1999/xlink" xml:space="preserve" style="fill-rule:evenodd;clip-rule:evenodd;stroke-linejoin:round;stroke-miterlimit:1.41421;"><path id="Flat_copy" d="M20.214,-0.003l-17.328,0c-1.632,0 -2.889,1.257 -2.889,2.889l0,17.328c0,1.631 1.257,2.889 2.889,2.889l17.328,0c1.631,0 2.889,-1.258 2.889,-2.889l0,-17.328c0,-1.632 -1.258,-2.889 -2.889,-2.889ZM11.567,7.011c2.562,0 4.639,2.013 4.639,4.496c0,2.481 -2.077,4.495 -4.639,4.495c-2.561,0 -4.638,-2.014 -4.638,-4.495c0.001,-2.483 2.078,-4.496 4.638,-4.496ZM20.214,19.492c0,0.507 -0.216,0.722 -0.722,0.722l-15.884,0c-0.505,0 -0.722,-0.215 -0.722,-0.722l0,-10.108l1.8,0.391c-0.193,0.628 -0.299,1.293 -0.299,1.982c0,3.84 3.216,6.956 7.18,6.956c3.965,0 7.18,-3.115 7.18,-6.956c0,-0.689 -0.105,-1.354 -0.298,-1.982l1.765,-0.391l0,10.108ZM20.214,6.496c0,0.399 -0.322,0.722 -0.722,0.722l-2.888,0c-0.399,0 -0.722,-0.323 -0.722,-0.722l0,-2.888c0,-0.4 0.323,-0.722 0.722,-0.722l2.888,0c0.4,0 0.722,0.322 0.722,0.722l0,2.888Z" style="fill:#fff;fill-rule:nonzero;"/></svg>