<?xml version="1.0" standalone="no"?><!DOCTYPE svg PUBLIC "-//W3C//DTD SVG 1.1//EN" "http://www.w3.org/Graphics/SVG/1.1/DTD/svg11.dtd"><svg width="100%" height="100%" viewBox="0 0 33 15" version="1.1" xmlns="http://www.w3.org/2000/svg" xmlns:xlink="http://www.w3.org/1999/xlink" xml:space="preserve" style="fill-rule:evenodd;clip-rule:evenodd;stroke-linejoin:round;stroke-miterlimit:1.41421;"><g id="Layer1"><g><g><g><g><path d="M23.369,12.966c2.435,0 4.87,0 7.306,0c0.009,0 0.018,0 0.027,-0.001c0.015,-0.002 0.029,-0.006 0.043,-0.012c0.06,-0.026 0.1,-0.084 0.103,-0.15c0.044,-3.513 0,-7.026 0,-10.54c0,-0.009 -0.001,-0.018 -0.002,-0.027c-0.011,-0.081 -0.08,-0.143 -0.161,-0.146c-2.439,-0.031 -4.878,0 -7.316,0c-0.01,0 -0.019,0 -0.028,0.001c-0.081,0.012 -0.142,0.081 -0.145,0.162c-0.045,3.513 -0.001,7.027 -0.001,10.54c0,0.009 0.001,0.019 0.002,0.028c0.01,0.074 0.07,0.133 0.144,0.144c0.009,0.001 0.018,0.001 0.028,0.001ZM23.358,14.694c-0.205,-0.002 -0.408,-0.034 -0.603,-0.099c-0.524,-0.178 -0.953,-0.587 -1.156,-1.101c-0.057,-0.146 -0.097,-0.3 -0.117,-0.455c-0.008,-0.064 -0.012,-0.128 -0.014,-0.192c-0.045,-3.546 -0.045,-7.092 0,-10.638c0.008,-0.206 0.043,-0.409 0.115,-0.603c0.19,-0.519 0.609,-0.938 1.128,-1.129c0.195,-0.071 0.397,-0.107 0.604,-0.115c2.471,-0.031 4.942,-0.031 7.413,0c0.207,0.008 0.41,0.044 0.604,0.115c0.504,0.185 0.915,0.586 1.112,1.085c0.082,0.207 0.123,0.425 0.131,0.647c0.045,3.546 0.045,7.092 0,10.638c-0.008,0.222 -0.049,0.44 -0.131,0.647c-0.197,0.5 -0.608,0.9 -1.112,1.085c-0.194,0.071 -0.397,0.107 -0.604,0.115c-2.456,0.031 -4.913,0 -7.37,0Z" style="fill:#bbb;fill-rule:nonzero;"/></g></g><path d="M31.921,10.273l-9.453,0l0,3.168l9.453,0l0,-3.168ZM27.022,11.057c0.511,0 0.926,0.415 0.926,0.927c0,0.511 -0.415,0.926 -0.926,0.926c-0.512,0 -0.927,-0.415 -0.927,-0.926c0,-0.512 0.415,-0.927 0.927,-0.927Z" style="fill:#bbb;"/></g><g><g><path d="M7.766,10.731l3.888,3.956l-7.775,0l3.887,-3.956Z" style="fill:#bbb;"/><path d="M3.161,10.254c3.081,0 6.162,0.039 9.243,-0.001c0.026,-0.001 0.052,-0.002 0.079,-0.005c0.101,-0.011 0.199,-0.035 0.292,-0.075c0.26,-0.11 0.468,-0.328 0.565,-0.593c0.039,-0.104 0.058,-0.214 0.062,-0.325c0.026,-2.073 0.026,-4.146 0,-6.219c-0.004,-0.112 -0.023,-0.221 -0.062,-0.326c-0.1,-0.272 -0.317,-0.495 -0.588,-0.602c-0.111,-0.044 -0.229,-0.066 -0.348,-0.071c-3.092,-0.038 -6.184,-0.038 -9.275,0c-0.12,0.005 -0.237,0.027 -0.349,0.071c-0.27,0.107 -0.488,0.33 -0.588,0.602c-0.038,0.105 -0.057,0.214 -0.061,0.326c-0.026,2.073 -0.026,4.146 0,6.219c0.004,0.111 0.023,0.221 0.061,0.325c0.097,0.265 0.306,0.483 0.565,0.593c0.102,0.044 0.209,0.068 0.319,0.078c0.029,0.001 0.057,0.002 0.085,0.003ZM3.15,11.982c-0.092,-0.001 -0.183,-0.005 -0.275,-0.014c-0.205,-0.021 -0.407,-0.065 -0.602,-0.131c-0.358,-0.121 -0.689,-0.317 -0.969,-0.571c-0.311,-0.283 -0.556,-0.637 -0.71,-1.028c-0.084,-0.212 -0.141,-0.434 -0.17,-0.66c-0.012,-0.093 -0.018,-0.186 -0.021,-0.279c-0.026,-2.081 -0.001,-4.161 -0.001,-6.242c0.001,-0.092 0.005,-0.184 0.014,-0.275c0.021,-0.205 0.065,-0.407 0.131,-0.602c0.128,-0.379 0.34,-0.728 0.616,-1.017c0.275,-0.289 0.612,-0.516 0.983,-0.663c0.212,-0.083 0.434,-0.14 0.66,-0.169c0.093,-0.012 0.186,-0.018 0.279,-0.021c3.099,-0.039 6.198,-0.001 9.297,-0.001c0.092,0.001 0.184,0.005 0.275,0.014c0.205,0.021 0.408,0.065 0.603,0.131c0.378,0.128 0.727,0.34 1.017,0.616c0.288,0.275 0.516,0.612 0.662,0.983c0.084,0.212 0.141,0.434 0.17,0.66c0.011,0.093 0.017,0.185 0.021,0.279c0.026,2.08 0.001,4.161 0.001,6.242c-0.002,0.092 -0.005,0.183 -0.015,0.275c-0.02,0.205 -0.064,0.407 -0.13,0.602c-0.107,0.316 -0.272,0.612 -0.485,0.869c-0.296,0.358 -0.682,0.64 -1.114,0.81c-0.212,0.084 -0.434,0.141 -0.66,0.17c-0.093,0.012 -0.186,0.017 -0.279,0.021c-3.099,0.04 -6.199,0.001 -9.298,0.001Z" style="fill:#bbb;fill-rule:nonzero;"/></g></g></g></g></svg>