<?xml version="1.0" standalone="no"?><!DOCTYPE svg PUBLIC "-//W3C//DTD SVG 1.1//EN" "http://www.w3.org/Graphics/SVG/1.1/DTD/svg11.dtd"><svg width="100%" height="100%" viewBox="0 0 32 32" version="1.1" xmlns="http://www.w3.org/2000/svg" xmlns:xlink="http://www.w3.org/1999/xlink" xml:space="preserve" style="fill-rule:evenodd;clip-rule:evenodd;stroke-linejoin:round;stroke-miterlimit:1.41421;"><g id="Layer4"><path d="M20.385,5.759c0.506,0.007 1.011,0.053 1.506,0.165c0.086,0.02 0.171,0.042 0.256,0.066c0.065,0.019 0.132,0.038 0.195,0.064c0.088,0.038 0.169,0.092 0.236,0.16c0.068,0.068 0.123,0.149 0.16,0.237c0.131,0.307 0.038,0.674 -0.223,0.881c-0.06,0.048 -0.127,0.086 -0.199,0.114c-0.126,0.047 -0.263,0.061 -0.396,0.038c-0.052,-0.009 -0.102,-0.027 -0.152,-0.042c-0.046,-0.014 -0.093,-0.026 -0.14,-0.038c-0.081,-0.019 -0.162,-0.037 -0.244,-0.053c-1.148,-0.2 -2.334,-0.058 -3.431,0.325c-0.26,0.091 -0.515,0.195 -0.764,0.311c-0.175,0.082 -0.349,0.168 -0.514,0.267c-0.202,0.12 -0.393,0.257 -0.574,0.407c-0.49,0.404 -0.904,0.898 -1.24,1.435c-0.608,0.972 -0.965,2.097 -1.044,3.24c-0.024,0.345 -0.023,0.691 0.004,1.035c0.019,0.255 0.049,0.511 0.112,0.759c0.215,0.845 0.786,1.606 1.591,1.964c0.142,0.063 0.289,0.113 0.439,0.148c0.191,0.045 0.387,0.066 0.583,0.063c0.252,-0.004 0.503,-0.048 0.743,-0.125c0.866,-0.278 1.552,-0.951 2.069,-1.676c0.506,-0.709 0.876,-1.502 1.183,-2.314l0.022,-0.053c0.054,-0.104 0.12,-0.195 0.212,-0.269c0.228,-0.182 0.551,-0.214 0.811,-0.08c0.068,0.035 0.131,0.081 0.185,0.135c0.054,0.054 0.1,0.116 0.136,0.184c0.062,0.119 0.092,0.254 0.084,0.388c-0.003,0.059 -0.014,0.114 -0.029,0.17c-0.036,0.109 -0.038,0.108 -0.079,0.217c-0.408,1.043 -0.919,2.055 -1.634,2.925c-0.703,0.855 -1.616,1.569 -2.698,1.859c-0.382,0.103 -0.779,0.151 -1.175,0.137c-0.285,-0.01 -0.569,-0.051 -0.845,-0.122c-0.211,-0.055 -0.418,-0.128 -0.617,-0.216c-1.037,-0.462 -1.841,-1.354 -2.254,-2.404c-0.108,-0.276 -0.19,-0.561 -0.245,-0.851c-0.046,-0.24 -0.072,-0.483 -0.09,-0.726c-0.028,-0.361 -0.032,-0.725 -0.014,-1.087c0.084,-1.683 0.667,-3.346 1.688,-4.69c0.548,-0.722 1.227,-1.357 2.019,-1.806c0.319,-0.181 0.655,-0.334 0.994,-0.472c0.713,-0.29 1.46,-0.494 2.222,-0.596c0.312,-0.042 0.625,-0.064 0.938,-0.072c0.107,-0.002 0.106,-0.002 0.213,-0.002Z" style="fill:#fff;fill-rule:nonzero;"/><path d="M24.607,3.714c0.199,0.009 0.402,0.039 0.57,0.155c0.045,0.031 0.086,0.067 0.123,0.106c0.055,0.06 0.101,0.128 0.134,0.202c0.125,0.277 0.067,0.611 -0.144,0.83c-0.057,0.058 -0.123,0.107 -0.195,0.145c-0.12,0.062 -0.257,0.091 -0.393,0.082c-0.075,-0.005 -0.086,-0.011 -0.159,-0.028c-0.004,0 0.006,0.002 0.009,0.003c0.001,0 0.037,0.006 0.016,0.005c-0.022,-0.001 -0.043,0.002 -0.064,0.006c-0.183,0.04 -0.337,0.168 -0.465,0.299c-0.288,0.297 -0.49,0.674 -0.657,1.049c-0.272,0.611 -0.457,1.26 -0.605,1.91c-0.219,0.96 -0.353,1.937 -0.455,2.916c-0.053,0.542 -0.103,1.084 -0.153,1.627c-0.081,0.898 -0.161,1.795 -0.244,2.693c-0.049,0.516 -0.1,1.032 -0.154,1.548c-0.072,0.668 -0.149,1.335 -0.244,2c-0.063,0.44 -0.133,0.878 -0.215,1.314c-0.046,0.248 -0.097,0.496 -0.151,0.743c-0.327,1.498 -0.839,3.001 -1.774,4.235c-0.15,0.198 -0.31,0.388 -0.48,0.57c-0.296,0.314 -0.621,0.601 -0.97,0.856c-0.189,0.138 -0.384,0.271 -0.588,0.385c-0.311,0.173 -0.643,0.307 -0.985,0.409c-0.606,0.18 -1.241,0.257 -1.873,0.258c-1.827,0.001 -3.658,-0.634 -5.099,-1.755c-0.631,-0.491 -1.187,-1.077 -1.642,-1.734c-0.421,-0.607 -0.754,-1.272 -0.998,-1.969c-0.061,-0.174 -0.116,-0.351 -0.166,-0.529c-0.035,-0.123 -0.068,-0.242 -0.061,-0.372c0.018,-0.303 0.225,-0.572 0.513,-0.667c0.077,-0.026 0.158,-0.039 0.24,-0.038c0.081,0 0.162,0.014 0.239,0.04c0.154,0.053 0.289,0.156 0.38,0.292c0.04,0.06 0.045,0.078 0.075,0.143c0.046,0.139 0.082,0.28 0.124,0.419c0.081,0.249 0.17,0.494 0.276,0.733c0.195,0.444 0.439,0.867 0.728,1.257c0.308,0.416 0.667,0.793 1.066,1.123c0.994,0.821 2.231,1.342 3.508,1.504c0.547,0.07 1.106,0.074 1.652,-0.008c0.372,-0.057 0.741,-0.154 1.085,-0.311c0.28,-0.129 0.536,-0.305 0.778,-0.495c0.467,-0.363 0.87,-0.802 1.2,-1.293c0.492,-0.734 0.82,-1.567 1.064,-2.412c0.299,-1.037 0.48,-2.106 0.626,-3.174c0.174,-1.281 0.294,-2.569 0.412,-3.856c0.107,-1.168 0.21,-2.336 0.321,-3.503c0.023,-0.24 0.049,-0.481 0.076,-0.721c0.059,-0.486 0.125,-0.971 0.207,-1.454c0.071,-0.414 0.153,-0.826 0.249,-1.234c0.074,-0.313 0.156,-0.623 0.25,-0.93c0.072,-0.234 0.151,-0.466 0.238,-0.695c0.067,-0.175 0.139,-0.348 0.217,-0.517c0.059,-0.129 0.121,-0.255 0.188,-0.379c0.061,-0.114 0.126,-0.226 0.195,-0.336c0.367,-0.584 0.874,-1.129 1.545,-1.351c0.145,-0.048 0.293,-0.076 0.445,-0.091c0.062,-0.004 0.123,-0.006 0.185,-0.005Z" style="fill:#fff;fill-rule:nonzero;"/></g></svg>