<?xml version="1.0" standalone="no"?><!DOCTYPE svg PUBLIC "-//W3C//DTD SVG 1.1//EN" "http://www.w3.org/Graphics/SVG/1.1/DTD/svg11.dtd"><svg width="100%" height="100%" viewBox="0 0 20 20" version="1.1" xmlns="http://www.w3.org/2000/svg" xmlns:xlink="http://www.w3.org/1999/xlink" xml:space="preserve" style="fill-rule:evenodd;clip-rule:evenodd;stroke-linejoin:round;stroke-miterlimit:1.41421;"><g id="Layer1"><path d="M10,20.012c-0.277,-0.001 -0.553,-0.015 -0.829,-0.047c-0.565,-0.065 -1.122,-0.198 -1.656,-0.395c-0.794,-0.294 -1.535,-0.729 -2.181,-1.279c-0.708,-0.603 -1.299,-1.343 -1.732,-2.169c-0.317,-0.607 -0.549,-1.258 -0.686,-1.929c-0.073,-0.36 -0.119,-0.726 -0.137,-1.093c-0.012,-0.234 -0.014,-0.468 0.002,-0.702c0.032,-0.452 0.121,-0.899 0.236,-1.337c0.148,-0.563 0.342,-1.112 0.557,-1.652c0.285,-0.716 0.61,-1.416 0.956,-2.103c0.377,-0.748 0.78,-1.481 1.202,-2.203c0.434,-0.744 0.889,-1.476 1.366,-2.192c0.379,-0.569 0.771,-1.131 1.194,-1.668c0.067,-0.084 0.136,-0.169 0.205,-0.252c0.062,-0.075 0.128,-0.151 0.193,-0.224c0.292,-0.324 0.638,-0.655 1.084,-0.732c0.074,-0.013 0.15,-0.023 0.226,-0.023c0.076,0 0.152,0.01 0.226,0.023c0.446,0.077 0.792,0.408 1.084,0.732c0.065,0.073 0.131,0.149 0.193,0.224c0.069,0.083 0.138,0.168 0.205,0.252c0.423,0.537 0.815,1.099 1.194,1.668c0.477,0.716 0.932,1.448 1.366,2.192c0.422,0.722 0.825,1.455 1.202,2.203c0.346,0.687 0.671,1.387 0.956,2.103c0.215,0.54 0.409,1.089 0.557,1.652c0.115,0.438 0.204,0.885 0.236,1.337c0.016,0.234 0.014,0.468 0.002,0.702c-0.018,0.367 -0.064,0.733 -0.137,1.093c-0.137,0.671 -0.369,1.322 -0.686,1.929c-0.803,1.532 -2.148,2.748 -3.747,3.384c-0.528,0.21 -1.08,0.356 -1.642,0.436c-0.273,0.038 -0.547,0.059 -0.823,0.068c-0.093,0.002 -0.093,0.002 -0.186,0.002ZM10,17.623c0.59,-0.004 1.173,-0.107 1.725,-0.318c1.1,-0.422 2.027,-1.251 2.576,-2.299c0.213,-0.406 0.368,-0.843 0.459,-1.293c0.05,-0.242 0.08,-0.488 0.093,-0.734c0.009,-0.179 0.009,-0.358 -0.011,-0.536c-0.046,-0.418 -0.158,-0.829 -0.286,-1.228c-0.158,-0.496 -0.348,-0.982 -0.557,-1.459c-0.62,-1.418 -1.364,-2.781 -2.168,-4.101c-0.56,-0.92 -1.149,-1.822 -1.794,-2.683l-0.037,-0.049c-0.283,0.37 -0.55,0.752 -0.811,1.138c-0.306,0.453 -0.602,0.914 -0.889,1.379c-0.855,1.387 -1.645,2.821 -2.299,4.316c-0.209,0.477 -0.399,0.963 -0.557,1.459c-0.128,0.399 -0.24,0.81 -0.286,1.228c-0.02,0.178 -0.02,0.357 -0.011,0.536c0.013,0.246 0.043,0.492 0.093,0.734c0.091,0.45 0.246,0.887 0.459,1.293c0.531,1.012 1.414,1.822 2.466,2.255c0.524,0.216 1.081,0.333 1.647,0.358c0.062,0.002 0.125,0.003 0.188,0.004Z" style="fill:#c8c8c8;fill-rule:nonzero;"/></g></svg>