<?xml version="1.0" standalone="no"?><!DOCTYPE svg PUBLIC "-//W3C//DTD SVG 1.1//EN" "http://www.w3.org/Graphics/SVG/1.1/DTD/svg11.dtd"><svg width="100%" height="100%" viewBox="0 0 24 24" version="1.1" xmlns="http://www.w3.org/2000/svg" xmlns:xlink="http://www.w3.org/1999/xlink" xml:space="preserve" style="fill-rule:evenodd;clip-rule:evenodd;stroke-linejoin:round;stroke-miterlimit:1.41421;"><g><path d="M9.376,11.037c0,0 2.132,-0.162 2.132,-2.714c0,-2.55 -1.446,-3.807 -3.657,-3.807l-7.574,-0.012l0,14.092l7.75,0c0,0 3.875,0.122 3.875,-4.228c0,0 0.285,-3.331 -2.526,-3.331ZM3.095,6.618l3.875,0c0,0 1.326,0.022 1.326,1.741c0,1.782 -1.326,1.782 -1.326,1.782l-3.875,0l0,-3.523ZM7.322,16.482l-4.227,0l0,-4.228l4.227,0c0,0 2.114,0.022 2.114,2.114c0,2.092 -1.809,2.114 -2.114,2.114Z" style="fill:#fff;fill-rule:nonzero;"/><path d="M17.891,8.027c-5.293,0 -5.284,5.284 -5.284,5.284c0,0 -0.352,5.285 5.284,5.285c0,0 4.932,0 4.932,-4.228l-2.818,0c0,0 0,2.114 -2.114,2.114c0,0 -2.113,0 -2.113,-2.818c0,0 5.636,0 7.045,0c0,-1.41 0,-5.637 -4.932,-5.637ZM15.778,12.254c0,0 -0.047,-2.113 2.113,-2.113c2.16,0 2.114,2.113 2.114,2.113l-4.227,0Z" style="fill:#fff;fill-rule:nonzero;"/><rect x="15.073" y="5.913" width="5.637" height="1.409" style="fill:#fff;"/></g></svg>