<?xml version="1.0" standalone="no"?><!DOCTYPE svg PUBLIC "-//W3C//DTD SVG 1.1//EN" "http://www.w3.org/Graphics/SVG/1.1/DTD/svg11.dtd"><svg width="100%" height="100%" viewBox="0 0 157 157" version="1.1" xmlns="http://www.w3.org/2000/svg" xmlns:xlink="http://www.w3.org/1999/xlink" xml:space="preserve" style="fill-rule:evenodd;clip-rule:evenodd;stroke-linejoin:round;stroke-miterlimit:1.41421;"><g><g><circle cx="7.326" cy="78.25" r="4.444" style="fill:#fff;"/><circle cx="149.174" cy="78.25" r="4.444" style="fill:#fff;"/></g><g><path d="M82.694,7.326c0,2.452 -1.991,4.444 -4.444,4.444c-2.453,0 -4.444,-1.992 -4.444,-4.444c0,-2.453 1.991,-4.445 4.444,-4.445c2.453,0 4.444,1.992 4.444,4.445Z" style="fill:#fff;"/><path d="M82.694,149.174c0,2.453 -1.991,4.445 -4.444,4.445c-2.453,0 -4.444,-1.992 -4.444,-4.445c0,-2.452 1.991,-4.444 4.444,-4.444c2.453,0 4.444,1.992 4.444,4.444Z" style="fill:#fff;"/></g><path d="M78.239,135.131c-0.842,-0.003 -1.684,-0.018 -2.525,-0.056c-1.779,-0.079 -3.554,-0.242 -5.318,-0.489c-5.149,-0.721 -10.192,-2.165 -14.942,-4.279c-5.567,-2.478 -10.719,-5.87 -15.203,-9.995c-4.638,-4.266 -8.554,-9.31 -11.53,-14.865c-2.6,-4.854 -4.477,-10.091 -5.548,-15.492c-1.203,-6.064 -1.395,-12.329 -0.576,-18.456c0.765,-5.722 2.422,-11.317 4.898,-16.532c2.851,-6.007 6.777,-11.492 11.534,-16.137c5.007,-4.888 10.921,-8.833 17.365,-11.561c3.501,-1.481 7.154,-2.604 10.883,-3.343c3.489,-0.692 7.043,-1.049 10.6,-1.072c3.565,-0.022 7.131,0.29 10.637,0.94c3.743,0.693 7.415,1.772 10.939,3.213c6.48,2.649 12.445,6.525 17.512,11.356c4.892,4.664 8.936,10.207 11.872,16.297c2.505,5.195 4.196,10.777 4.996,16.489c0.842,6.007 0.71,12.153 -0.395,18.118c-0.963,5.198 -2.67,10.254 -5.053,14.974c-2.893,5.73 -6.775,10.952 -11.42,15.381c-4.489,4.28 -9.683,7.812 -15.318,10.404c-4.61,2.119 -9.508,3.605 -14.518,4.404c-1.871,0.298 -3.756,0.501 -5.647,0.609c-0.839,0.048 -1.678,0.074 -2.518,0.088c-0.242,0.002 -0.483,0.003 -0.725,0.004ZM78.239,128.387c0.743,-0.002 1.485,-0.016 2.227,-0.049c1.566,-0.069 3.129,-0.213 4.681,-0.43c4.526,-0.634 8.96,-1.904 13.136,-3.762c4.808,-2.141 9.265,-5.057 13.16,-8.597c4.031,-3.664 7.454,-7.991 10.085,-12.762c2.334,-4.234 4.04,-8.811 5.04,-13.542c1.146,-5.424 1.37,-11.044 0.669,-16.544c-0.641,-5.038 -2.068,-9.97 -4.218,-14.571c-2.519,-5.393 -6.022,-10.317 -10.281,-14.475c-4.406,-4.302 -9.61,-7.775 -15.282,-10.175c-3.077,-1.303 -6.288,-2.289 -9.566,-2.939c-3.071,-0.61 -6.2,-0.923 -9.331,-0.943c-3.139,-0.02 -6.279,0.255 -9.365,0.826c-3.291,0.61 -6.518,1.558 -9.616,2.825c-5.703,2.331 -10.952,5.743 -15.41,9.994c-4.307,4.106 -7.867,8.985 -10.452,14.345c-2.202,4.568 -3.689,9.475 -4.392,14.497c-0.755,5.391 -0.621,10.909 0.405,16.256c0.875,4.561 2.402,8.993 4.52,13.127c2.487,4.852 5.782,9.283 9.705,13.068c3.999,3.859 8.645,7.041 13.695,9.362c4.053,1.864 8.358,3.17 12.763,3.872c1.646,0.262 3.305,0.441 4.969,0.536c0.74,0.042 1.479,0.066 2.22,0.077c0.212,0.002 0.425,0.004 0.638,0.004Z" style="fill:#fff;fill-rule:nonzero;"/><path d="M78.239,119.913c-0.613,-0.002 -1.227,-0.013 -1.84,-0.041c-1.382,-0.061 -2.762,-0.192 -4.13,-0.393c-3.666,-0.537 -7.255,-1.577 -10.639,-3.083c-4.133,-1.839 -7.951,-4.37 -11.261,-7.451c-3.181,-2.961 -5.889,-6.428 -7.988,-10.234c-1.977,-3.585 -3.408,-7.467 -4.23,-11.478c-0.905,-4.414 -1.072,-8.977 -0.504,-13.446c0.532,-4.178 1.716,-8.267 3.498,-12.083c2.052,-4.392 4.891,-8.409 8.338,-11.815c3.627,-3.584 7.919,-6.484 12.603,-8.5c2.466,-1.062 5.037,-1.878 7.664,-2.434c2.617,-0.553 5.287,-0.846 7.962,-0.88c2.686,-0.034 5.375,0.192 8.016,0.682c2.647,0.49 5.245,1.245 7.744,2.249c4.736,1.903 9.102,4.702 12.817,8.202c3.525,3.321 6.457,7.264 8.613,11.601c1.87,3.76 3.151,7.807 3.786,11.958c0.656,4.287 0.629,8.679 -0.08,12.957c-0.632,3.81 -1.81,7.526 -3.487,11.005c-2.105,4.365 -4.99,8.345 -8.477,11.709c-3.192,3.081 -6.883,5.64 -10.891,7.543c-3.337,1.584 -6.889,2.71 -10.529,3.337c-1.272,0.219 -2.555,0.378 -3.842,0.476c-0.695,0.053 -1.391,0.086 -2.088,0.106c-0.352,0.008 -0.703,0.012 -1.055,0.013ZM78.239,113.169c1.671,-0.005 3.34,-0.12 4.993,-0.362c3.058,-0.448 6.052,-1.316 8.875,-2.572c3.64,-1.62 6.988,-3.884 9.855,-6.65c2.516,-2.427 4.659,-5.239 6.329,-8.311c1.598,-2.941 2.759,-6.116 3.431,-9.395c0.756,-3.689 0.895,-7.505 0.42,-11.24c-0.435,-3.417 -1.392,-6.763 -2.831,-9.892c-1.722,-3.743 -4.125,-7.165 -7.056,-10.061c-3.03,-2.994 -6.616,-5.419 -10.529,-7.103c-2.057,-0.885 -4.201,-1.567 -6.392,-2.03c-2.186,-0.462 -4.418,-0.707 -6.652,-0.735c-2.246,-0.028 -4.494,0.16 -6.702,0.57c-2.208,0.409 -4.375,1.038 -6.459,1.875c-3.957,1.59 -7.604,3.929 -10.707,6.853c-2.946,2.775 -5.397,6.071 -7.199,9.695c-1.56,3.137 -2.629,6.513 -3.158,9.976c-0.57,3.724 -0.524,7.546 0.139,11.255c0.567,3.167 1.586,6.25 3.019,9.131c1.68,3.379 3.924,6.473 6.608,9.125c2.735,2.702 5.922,4.942 9.395,6.59c2.783,1.321 5.746,2.261 8.782,2.784c1.639,0.282 3.295,0.439 4.956,0.486c0.295,0.007 0.589,0.01 0.883,0.011Z" style="fill:#fff;fill-rule:nonzero;"/><path d="M136.021,141.543l-120.332,-120.333l4.768,-4.768l120.333,120.332c-1.589,1.59 -3.179,3.179 -4.769,4.769Z" style="fill:#fff;fill-rule:nonzero;"/><path d="M20.457,141.543l-4.768,-4.769l120.332,-120.332l4.769,4.768c-40.111,40.111 -80.222,80.222 -120.333,120.333Z" style="fill:#fff;fill-rule:nonzero;"/><g><circle cx="55.795" cy="77.9" r="2.831" style="fill:#fff;"/><circle cx="100.338" cy="77.9" r="2.831" style="fill:#fff;"/></g><g><path d="M80.897,55.629c0,1.562 -1.268,2.831 -2.831,2.831c-1.562,0 -2.83,-1.269 -2.83,-2.831c0,-1.563 1.268,-2.831 2.83,-2.831c1.563,0 2.831,1.268 2.831,2.831Z" style="fill:#fff;"/><path d="M80.897,100.171c0,1.562 -1.268,2.831 -2.831,2.831c-1.562,0 -2.83,-1.269 -2.83,-2.831c0,-1.562 1.268,-2.831 2.83,-2.831c1.563,0 2.831,1.269 2.831,2.831Z" style="fill:#fff;"/></g></g></svg>