<?xml version="1.0" standalone="no"?><!DOCTYPE svg PUBLIC "-//W3C//DTD SVG 1.1//EN" "http://www.w3.org/Graphics/SVG/1.1/DTD/svg11.dtd"><svg width="100%" height="100%" viewBox="0 0 32 32" version="1.1" xmlns="http://www.w3.org/2000/svg" xmlns:xlink="http://www.w3.org/1999/xlink" xml:space="preserve" style="fill-rule:evenodd;clip-rule:evenodd;stroke-linejoin:round;stroke-miterlimit:1.41421;"><g><g><circle cx="0.962" cy="16" r="0.943" style="fill:#879c9e;"/><circle cx="31.075" cy="16" r="0.943" style="fill:#879c9e;"/></g><g><path d="M16.962,0.943c0,0.521 -0.422,0.944 -0.943,0.944c-0.521,0 -0.944,-0.423 -0.944,-0.944c0,-0.52 0.423,-0.943 0.944,-0.943c0.521,0 0.943,0.423 0.943,0.943Z" style="fill:#879c9e;"/><path d="M16.962,31.057c0,0.52 -0.422,0.943 -0.943,0.943c-0.521,0 -0.944,-0.423 -0.944,-0.943c0,-0.521 0.423,-0.944 0.944,-0.944c0.521,0 0.943,0.423 0.943,0.944Z" style="fill:#879c9e;"/></g><path d="M16.017,28.075c-0.179,0 -0.358,-0.004 -0.537,-0.012c-0.377,-0.016 -0.754,-0.051 -1.128,-0.103c-1.094,-0.154 -2.164,-0.46 -3.173,-0.909c-1.181,-0.526 -2.275,-1.246 -3.227,-2.122c-0.985,-0.905 -1.816,-1.976 -2.448,-3.155c-0.552,-1.031 -0.95,-2.142 -1.178,-3.289c-0.255,-1.288 -0.296,-2.617 -0.122,-3.918c0.163,-1.215 0.515,-2.403 1.04,-3.51c0.605,-1.275 1.439,-2.439 2.449,-3.425c1.062,-1.038 2.318,-1.876 3.686,-2.455c0.743,-0.314 1.519,-0.552 2.31,-0.71c0.741,-0.146 1.496,-0.222 2.251,-0.227c0.756,-0.005 1.514,0.062 2.258,0.199c0.794,0.148 1.574,0.377 2.322,0.683c1.376,0.562 2.642,1.385 3.718,2.41c1.038,0.991 1.897,2.167 2.52,3.46c0.532,1.103 0.891,2.288 1.061,3.501c0.178,1.275 0.15,2.579 -0.084,3.846c-0.205,1.103 -0.567,2.177 -1.073,3.179c-0.614,1.216 -1.438,2.325 -2.424,3.265c-0.953,0.908 -2.056,1.658 -3.252,2.208c-0.979,0.45 -2.019,0.766 -3.082,0.935c-0.397,0.064 -0.798,0.107 -1.199,0.13c-0.178,0.01 -0.356,0.015 -0.535,0.018c-0.051,0.001 -0.102,0.001 -0.153,0.001ZM16.017,26.644c0.157,-0.001 0.315,-0.004 0.472,-0.011c0.333,-0.015 0.664,-0.045 0.994,-0.091c0.961,-0.135 1.902,-0.404 2.789,-0.799c1.02,-0.454 1.967,-1.073 2.793,-1.825c0.856,-0.778 1.583,-1.696 2.141,-2.709c0.496,-0.899 0.858,-1.87 1.07,-2.875c0.244,-1.151 0.291,-2.344 0.142,-3.512c-0.136,-1.069 -0.439,-2.116 -0.895,-3.093c-0.535,-1.145 -1.279,-2.19 -2.183,-3.073c-0.935,-0.913 -2.04,-1.651 -3.244,-2.16c-0.653,-0.277 -1.335,-0.486 -2.031,-0.624c-0.652,-0.13 -1.316,-0.196 -1.981,-0.2c-0.666,-0.004 -1.332,0.054 -1.988,0.175c-0.698,0.13 -1.383,0.331 -2.041,0.6c-1.211,0.495 -2.325,1.219 -3.271,2.121c-0.915,0.872 -1.671,1.908 -2.219,3.046c-0.468,0.969 -0.783,2.011 -0.933,3.077c-0.16,1.145 -0.131,2.316 0.086,3.451c0.186,0.969 0.51,1.909 0.96,2.787c0.528,1.03 1.227,1.971 2.06,2.774c0.849,0.819 1.835,1.495 2.907,1.988c0.861,0.395 1.775,0.672 2.71,0.822c0.349,0.055 0.702,0.093 1.055,0.113c0.157,0.009 0.314,0.014 0.471,0.017c0.045,0 0.09,0.001 0.136,0.001Z" style="fill:#879c9e;fill-rule:nonzero;"/><path d="M16.017,24.845c-0.131,-0.001 -0.261,-0.003 -0.391,-0.009c-0.294,-0.013 -0.586,-0.041 -0.877,-0.083c-0.778,-0.114 -1.54,-0.335 -2.258,-0.655c-0.878,-0.39 -1.688,-0.928 -2.391,-1.582c-0.675,-0.628 -1.25,-1.364 -1.696,-2.172c-0.419,-0.761 -0.723,-1.586 -0.898,-2.437c-0.192,-0.937 -0.227,-1.906 -0.107,-2.854c0.113,-0.887 0.364,-1.756 0.743,-2.566c0.435,-0.932 1.038,-1.785 1.77,-2.508c0.77,-0.761 1.681,-1.376 2.675,-1.804c0.524,-0.226 1.07,-0.399 1.627,-0.517c0.556,-0.117 1.123,-0.18 1.691,-0.187c0.57,-0.007 1.141,0.041 1.701,0.145c0.562,0.104 1.114,0.264 1.644,0.477c1.006,0.404 1.933,0.999 2.721,1.742c0.749,0.705 1.371,1.542 1.829,2.462c0.397,0.799 0.669,1.658 0.804,2.539c0.139,0.91 0.133,1.843 -0.018,2.751c-0.134,0.809 -0.384,1.597 -0.74,2.336c-0.447,0.927 -1.059,1.772 -1.799,2.486c-0.678,0.654 -1.462,1.197 -2.312,1.601c-0.709,0.336 -1.463,0.575 -2.236,0.708c-0.27,0.047 -0.542,0.081 -0.815,0.101c-0.148,0.012 -0.296,0.019 -0.444,0.023c-0.074,0.001 -0.149,0.002 -0.223,0.003ZM16.017,23.413c0.354,-0.001 0.708,-0.025 1.06,-0.077c0.649,-0.095 1.284,-0.279 1.884,-0.546c0.772,-0.344 1.483,-0.824 2.092,-1.412c0.534,-0.515 0.989,-1.112 1.343,-1.764c0.34,-0.624 0.586,-1.298 0.729,-1.994c0.16,-0.784 0.19,-1.594 0.089,-2.387c-0.093,-0.725 -0.296,-1.435 -0.601,-2.1c-0.366,-0.794 -0.876,-1.521 -1.498,-2.135c-0.643,-0.636 -1.405,-1.151 -2.235,-1.508c-0.437,-0.188 -0.892,-0.333 -1.357,-0.431c-0.464,-0.098 -0.938,-0.15 -1.413,-0.156c-0.476,-0.006 -0.953,0.034 -1.422,0.121c-0.469,0.087 -0.929,0.22 -1.371,0.398c-0.84,0.337 -1.615,0.834 -2.273,1.455c-0.626,0.589 -1.146,1.288 -1.529,2.058c-0.331,0.666 -0.558,1.382 -0.67,2.118c-0.121,0.79 -0.111,1.601 0.03,2.389c0.12,0.672 0.336,1.327 0.64,1.938c0.357,0.718 0.833,1.374 1.403,1.938c0.581,0.573 1.257,1.049 1.995,1.398c0.59,0.281 1.219,0.48 1.864,0.591c0.348,0.06 0.699,0.094 1.052,0.104c0.063,0.001 0.125,0.002 0.188,0.002Z" style="fill:#879c9e;fill-rule:nonzero;"/><path d="M28.283,29.436l-25.545,-25.545l1.012,-1.012l25.545,25.545c-0.337,0.338 -0.674,0.675 -1.012,1.012Z" style="fill:#879c9e;fill-rule:nonzero;"/><path d="M3.75,29.436l-1.012,-1.012l25.545,-25.545l1.012,1.012c-8.515,8.515 -17.03,17.03 -25.545,25.545Z" style="fill:#879c9e;fill-rule:nonzero;"/><g><circle cx="11.252" cy="15.926" r="0.601" style="fill:#879c9e;"/><circle cx="20.708" cy="15.926" r="0.601" style="fill:#879c9e;"/></g><g><path d="M16.581,11.198c0,0.331 -0.269,0.601 -0.601,0.601c-0.332,0 -0.601,-0.27 -0.601,-0.601c0,-0.332 0.269,-0.601 0.601,-0.601c0.332,0 0.601,0.269 0.601,0.601Z" style="fill:#879c9e;"/><path d="M16.581,20.654c0,0.331 -0.269,0.601 -0.601,0.601c-0.332,0 -0.601,-0.27 -0.601,-0.601c0,-0.332 0.269,-0.601 0.601,-0.601c0.332,0 0.601,0.269 0.601,0.601Z" style="fill:#879c9e;"/></g></g></svg>