<?xml version="1.0" standalone="no"?><!DOCTYPE svg PUBLIC "-//W3C//DTD SVG 1.1//EN" "http://www.w3.org/Graphics/SVG/1.1/DTD/svg11.dtd"><svg width="100%" height="100%" viewBox="0 0 175 62" version="1.1" xmlns="http://www.w3.org/2000/svg" xmlns:xlink="http://www.w3.org/1999/xlink" xml:space="preserve" style="fill-rule:evenodd;clip-rule:evenodd;stroke-linejoin:round;stroke-miterlimit:1.41421;"><g><g><path d="M42.93,0.262c2.13,0.011 4.259,0.131 6.376,0.368c3.635,0.408 7.23,1.148 10.741,2.173c6.293,1.837 12.299,4.579 17.941,7.904c3.688,2.174 7.226,4.597 10.623,7.202c1.051,0.806 2.089,1.63 3.113,2.469c0.701,0.574 1.394,1.159 2.091,1.738c0.278,0.228 0.555,0.455 0.833,0.681c1.481,1.194 2.984,2.359 4.522,3.479c4.97,3.62 10.275,6.815 15.924,9.259c4.51,1.951 9.24,3.414 14.096,4.191c3.29,0.526 6.631,0.736 9.961,0.602c3.561,-0.144 7.101,-0.68 10.55,-1.575c3.253,-0.845 6.42,-2.005 9.469,-3.416c2.967,-1.373 5.823,-2.983 8.562,-4.768c1.403,-0.913 2.771,-1.875 4.118,-2.868l2.967,4.024c-1.425,1.051 -2.873,2.068 -4.356,3.034c-2.94,1.915 -6.006,3.641 -9.191,5.116c-3.32,1.537 -6.77,2.798 -10.312,3.717c-3.794,0.985 -7.69,1.574 -11.606,1.732c-3.662,0.147 -7.335,-0.082 -10.952,-0.661c-5.267,-0.843 -10.4,-2.423 -15.291,-4.539c-5.988,-2.591 -11.615,-5.969 -16.883,-9.806c-1.607,-1.171 -3.181,-2.385 -4.726,-3.636c-0.889,-0.72 -1.762,-1.46 -2.644,-2.189c-0.299,-0.246 -0.6,-0.492 -0.901,-0.736c-1.269,-1.023 -2.555,-2.024 -3.865,-2.995c-1.151,-0.852 -2.319,-1.683 -3.503,-2.488c-7.244,-4.921 -15.189,-8.941 -23.69,-11.154c-1.606,-0.419 -3.228,-0.772 -4.863,-1.053c-1.918,-0.331 -3.854,-0.563 -5.796,-0.691c-2.591,-0.17 -5.194,-0.152 -7.782,0.06c-3.391,0.278 -6.751,0.89 -10.024,1.817c-4.42,1.251 -8.674,3.071 -12.656,5.358c-2.709,1.555 -5.297,3.324 -7.721,5.294c-0.804,0.654 -1.591,1.331 -2.353,2.034c-0.59,0.543 -1.17,1.1 -1.714,1.689l-0.02,0.021l-3.701,-3.362c0.123,-0.135 0.249,-0.268 0.376,-0.4c1.233,-1.272 2.555,-2.454 3.919,-3.584c1.926,-1.595 3.959,-3.065 6.064,-4.414c5.659,-3.626 11.895,-6.368 18.427,-7.971c2.806,-0.689 5.664,-1.167 8.542,-1.426c1.616,-0.145 3.237,-0.219 4.859,-0.23c0.159,0 0.317,-0.001 0.476,0Z" style="fill:#ba3194;fill-rule:nonzero;"/><path d="M131.825,18.222c0.872,0.011 1.742,0.037 2.613,0.089c1.795,0.106 3.585,0.306 5.361,0.597c4.329,0.709 8.559,1.965 12.603,3.66c3.563,1.494 6.979,3.324 10.237,5.399c1.653,1.053 3.261,2.172 4.838,3.335l-2.967,4.024c-0.254,-0.187 -0.509,-0.374 -0.764,-0.559c-0.257,-0.185 -0.514,-0.37 -0.772,-0.553c-1.195,-0.84 -2.409,-1.653 -3.649,-2.425c-2.53,-1.575 -5.162,-2.99 -7.89,-4.194c-2.953,-1.303 -6.019,-2.355 -9.162,-3.097c-3.051,-0.72 -6.171,-1.144 -9.304,-1.25c-3.3,-0.112 -6.609,0.129 -9.862,0.692c-4.671,0.81 -9.213,2.278 -13.537,4.21c-5.284,2.361 -10.248,5.4 -14.905,8.826c-1.336,0.982 -2.647,1.998 -3.935,3.042c-0.84,0.681 -1.666,1.38 -2.499,2.069c-0.299,0.246 -0.599,0.491 -0.899,0.734c-1.554,1.252 -3.133,2.471 -4.748,3.642c-6.859,4.976 -14.346,9.176 -22.393,11.891c-1.379,0.465 -2.773,0.886 -4.18,1.258c-1.672,0.443 -3.363,0.818 -5.067,1.119c-2.087,0.369 -4.193,0.627 -6.308,0.765c-2.793,0.184 -5.599,0.158 -8.387,-0.081c-3.617,-0.311 -7.201,-0.984 -10.686,-1.996c-4.582,-1.332 -8.99,-3.246 -13.115,-5.642c-1.71,-0.994 -3.373,-2.071 -4.979,-3.225c-0.953,-0.685 -1.888,-1.396 -2.797,-2.138c-0.923,-0.753 -1.825,-1.531 -2.697,-2.345c-0.59,-0.55 -1.168,-1.115 -1.716,-1.708l-0.033,-0.036l3.701,-3.363c0.113,0.125 0.229,0.245 0.346,0.366c0.628,0.641 1.283,1.255 1.954,1.85c0.827,0.732 1.679,1.436 2.551,2.113c2.343,1.817 4.833,3.446 7.434,4.868c3.825,2.093 7.898,3.737 12.118,4.836c3.776,0.984 7.663,1.527 11.564,1.61c3.564,0.077 7.133,-0.23 10.637,-0.88c5.7,-1.057 11.208,-3.013 16.403,-5.569c4.876,-2.399 9.486,-5.32 13.839,-8.568c1.254,-0.936 2.488,-1.899 3.701,-2.887c0.765,-0.622 1.517,-1.258 2.276,-1.888c0.277,-0.227 0.554,-0.454 0.832,-0.68c1.483,-1.196 2.988,-2.362 4.528,-3.484c6.981,-5.084 14.649,-9.348 22.928,-11.898c1.086,-0.335 2.181,-0.639 3.284,-0.911c1.647,-0.407 3.311,-0.742 4.988,-0.999c1.714,-0.263 3.44,-0.444 5.171,-0.54c0.894,-0.05 1.788,-0.074 2.682,-0.08c0.221,0 0.441,0 0.662,0.001Z" style="fill:#cc73e9;fill-rule:nonzero;"/></g><path d="M173.765,32.493c-0.379,0.293 -0.767,0.574 -1.16,0.849c-0.528,0.37 -1.063,0.73 -1.605,1.08c-1.412,0.916 -2.863,1.773 -4.339,2.582c-3.36,1.84 -6.857,3.43 -10.445,4.773c-1.174,0.439 -2.358,0.849 -3.55,1.236l-1.545,-4.755c0.288,-0.094 0.577,-0.189 0.864,-0.285c0.375,-0.126 0.748,-0.255 1.121,-0.386c0.982,-0.348 1.958,-0.713 2.926,-1.099c2.938,-1.173 5.808,-2.525 8.574,-4.061c1.171,-0.65 2.323,-1.333 3.45,-2.055c0.875,-0.561 1.74,-1.143 2.569,-1.772l0.079,-0.061c1.02,1.318 2.04,2.636 3.061,3.954Z" style="fill:#ba3194;fill-rule:nonzero;"/></g></svg>