<?xml version="1.0" standalone="no"?><!DOCTYPE svg PUBLIC "-//W3C//DTD SVG 1.1//EN" "http://www.w3.org/Graphics/SVG/1.1/DTD/svg11.dtd"><svg width="100%" height="100%" viewBox="0 0 30 30" version="1.1" xmlns="http://www.w3.org/2000/svg" xmlns:xlink="http://www.w3.org/1999/xlink" xml:space="preserve" style="fill-rule:evenodd;clip-rule:evenodd;stroke-linejoin:round;stroke-miterlimit:1.41421;"><path d="M10.646,27.106c-0.021,1.6 -2.174,2.894 -4.823,2.894c-2.662,0 -4.823,-1.307 -4.823,-2.917c0,-1.611 2.161,-2.918 4.823,-2.918c1.147,0 2.202,0.243 3.03,0.648l0,-18.541l15.228,-6.272l0,23.312l-0.016,0c-0.202,1.498 -2.279,2.678 -4.807,2.678c-2.662,0 -4.823,-1.308 -4.823,-2.918c0,-1.61 2.161,-2.917 4.823,-2.917c1.147,0 2.2,0.242 3.028,0.647l0,-14.53l-11.638,5.283l0,15.551l-0.002,0Z" style="fill:#ba3194;"/></svg>