<?xml version="1.0" standalone="no"?><!DOCTYPE svg PUBLIC "-//W3C//DTD SVG 1.1//EN" "http://www.w3.org/Graphics/SVG/1.1/DTD/svg11.dtd"><svg width="100%" height="100%" viewBox="0 0 41 40" version="1.1" xmlns="http://www.w3.org/2000/svg" xmlns:xlink="http://www.w3.org/1999/xlink" xml:space="preserve" style="fill-rule:evenodd;clip-rule:evenodd;stroke-linejoin:round;stroke-miterlimit:1.41421;"><g><path d="M3.678,1.872c-0.673,0 -1.01,0.173 -1.01,0.518c0,0.205 0.111,0.359 0.335,0.462c0.223,0.102 0.501,0.195 0.833,0.277l1.084,0.246c0.884,0.206 1.53,0.583 1.935,1.134c0.22,0.312 0.329,0.727 0.329,1.244c0,0.526 -0.089,0.973 -0.268,1.343c-0.178,0.369 -0.43,0.673 -0.754,0.911c-0.625,0.46 -1.522,0.69 -2.691,0.69c-1.006,0 -1.834,-0.218 -2.483,-0.653c-0.722,-0.493 -1.084,-1.178 -1.084,-2.057l0,-0.148c0,-0.049 0.005,-0.098 0.013,-0.148l2.361,0c-0.008,0.033 -0.012,0.091 -0.012,0.173c0,0.09 0.018,0.189 0.055,0.295c0.036,0.107 0.095,0.202 0.176,0.284c0.195,0.18 0.455,0.271 0.779,0.271c0.325,0 0.565,-0.015 0.719,-0.043c0.154,-0.029 0.272,-0.068 0.353,-0.117c0.138,-0.083 0.207,-0.214 0.207,-0.395c0,-0.18 -0.11,-0.32 -0.329,-0.418c-0.219,-0.099 -0.495,-0.185 -0.828,-0.259c-0.333,-0.074 -0.692,-0.158 -1.077,-0.253c-0.386,-0.094 -0.745,-0.236 -1.077,-0.425c-0.771,-0.451 -1.157,-1.158 -1.157,-2.118c0,-0.855 0.349,-1.528 1.047,-2.021c0.633,-0.443 1.465,-0.665 2.496,-0.665c0.99,0 1.789,0.205 2.398,0.616c0.665,0.46 0.998,1.117 0.998,1.971l0,0.148l-2.337,0l0,-0.049c0,-0.214 -0.077,-0.403 -0.232,-0.567c-0.154,-0.164 -0.414,-0.247 -0.779,-0.247Z" style="fill:#332f68;fill-rule:nonzero;"/><path d="M16.765,5.888l0,-5.765l2.569,0l0,5.728c0,0.271 0.095,0.493 0.286,0.666c0.19,0.172 0.424,0.258 0.7,0.258c0.276,0 0.509,-0.086 0.7,-0.258c0.19,-0.173 0.286,-0.395 0.286,-0.666l0,-5.728l2.556,0l0,5.765c0,0.846 -0.3,1.528 -0.901,2.045c-0.584,0.51 -1.379,0.764 -2.386,0.764l-0.523,0c-1.006,0 -1.802,-0.254 -2.386,-0.764c-0.601,-0.517 -0.901,-1.199 -0.901,-2.045Z" style="fill:#332f68;fill-rule:nonzero;"/><path d="M-0.096,24.334l0,-8.451l4.444,0c0.706,0 1.308,0.252 1.807,0.757c0.5,0.506 0.749,1.115 0.749,1.83l0,0.271c0,0.714 -0.249,1.324 -0.749,1.829c-0.499,0.505 -1.101,0.758 -1.807,0.758l-1.887,0l0,3.006l-2.557,0ZM2.461,19.443l1.12,0c0.243,0 0.426,-0.08 0.548,-0.24c0.121,-0.16 0.182,-0.327 0.182,-0.499l0,-0.148c0,-0.172 -0.059,-0.339 -0.176,-0.499c-0.118,-0.16 -0.303,-0.24 -0.554,-0.24l-1.12,0l0,1.626Z" style="fill:#332f68;fill-rule:nonzero;"/><path d="M16.765,24.21l0,-8.45l6.269,0l-0.243,1.946l-3.518,0l0,1.232l3.384,0l0,1.885l-3.384,0l0,1.367l3.518,0l0.243,2.02l-6.269,0Z" style="fill:#332f68;fill-rule:nonzero;"/><path d="M40.904,24.1c-0.381,0.156 -0.856,0.234 -1.424,0.234c-0.576,0 -1.012,-0.117 -1.308,-0.352c-0.297,-0.234 -0.445,-0.646 -0.445,-1.238c0,-0.542 -0.042,-0.921 -0.128,-1.139c-0.085,-0.218 -0.2,-0.384 -0.347,-0.499c-0.146,-0.115 -0.349,-0.172 -0.608,-0.172l-0.706,0l0,3.276l-2.496,0l0,-8.45l4.687,0c0.625,0 1.16,0.189 1.607,0.566c0.471,0.411 0.706,0.92 0.706,1.528c0,0.452 -0.144,0.877 -0.432,1.275c-0.288,0.398 -0.643,0.638 -1.065,0.721l0,0.061c0.47,0.14 0.811,0.409 1.022,0.807c0.211,0.398 0.317,0.852 0.317,1.361c0,0.6 0.089,1.027 0.267,1.281c0.082,0.115 0.199,0.193 0.353,0.234l0,0.506ZM35.938,19.049l1.29,0c0.171,0 0.315,-0.06 0.432,-0.179c0.118,-0.119 0.177,-0.265 0.177,-0.437l0,-0.123c0,-0.173 -0.059,-0.319 -0.177,-0.438c-0.117,-0.119 -0.261,-0.178 -0.432,-0.178l-1.29,0l0,1.355Z" style="fill:#332f68;fill-rule:nonzero;"/><path d="M-0.096,40l0,-1.823l0.987,0l0,-4.817l-0.987,0l0,-1.811l4.553,0l0,1.811l-0.986,0l0,4.817l0.986,0l0,1.823l-4.553,0Z" style="fill:#332f68;fill-rule:nonzero;"/><rect x="33.442" y="1.879" width="3.092" height="1.946" style="fill:#332f68;fill-rule:nonzero;"/><path d="M16.765,36.274l0,-1.281c0,-0.509 0.095,-0.989 0.286,-1.441c0.191,-0.452 0.451,-0.844 0.779,-1.177c0.329,-0.332 0.716,-0.595 1.163,-0.788c0.446,-0.193 0.921,-0.289 1.424,-0.289l0.682,0c0.503,0 0.978,0.096 1.424,0.289c0.446,0.193 0.834,0.456 1.163,0.788c0.328,0.333 0.588,0.725 0.779,1.177c0.19,0.452 0.286,0.932 0.286,1.441l0,1.281c0,0.51 -0.096,0.99 -0.286,1.442c-0.191,0.451 -0.451,0.844 -0.779,1.176c-0.329,0.333 -0.717,0.596 -1.163,0.789c-0.446,0.193 -0.921,0.289 -1.424,0.289l-0.682,0c-0.503,0 -0.978,-0.096 -1.424,-0.289c-0.447,-0.193 -0.834,-0.456 -1.163,-0.789c-0.328,-0.332 -0.588,-0.725 -0.779,-1.176c-0.191,-0.452 -0.286,-0.932 -0.286,-1.442ZM19.516,36.804c0,0.345 0.118,0.637 0.353,0.875c0.236,0.238 0.524,0.357 0.865,0.357l0.06,0c0.341,0 0.629,-0.119 0.865,-0.357c0.235,-0.238 0.353,-0.53 0.353,-0.875l0,-2.377c0,-0.345 -0.118,-0.637 -0.353,-0.875c-0.236,-0.238 -0.524,-0.357 -0.865,-0.357l-0.06,0c-0.341,0 -0.629,0.119 -0.865,0.357c-0.235,0.238 -0.353,0.53 -0.353,0.875l0,2.377Z" style="fill:#332f68;fill-rule:nonzero;"/><path d="M40.904,39.736c-0.381,0.156 -0.856,0.234 -1.424,0.234c-0.576,0 -1.012,-0.117 -1.308,-0.351c-0.297,-0.234 -0.445,-0.647 -0.445,-1.238c0,-0.542 -0.042,-0.922 -0.128,-1.14c-0.085,-0.217 -0.2,-0.384 -0.347,-0.499c-0.146,-0.114 -0.349,-0.172 -0.608,-0.172l-0.706,0l0,3.277l-2.496,0l0,-8.451l4.687,0c0.625,0 1.16,0.189 1.607,0.567c0.471,0.41 0.706,0.92 0.706,1.527c0,0.452 -0.144,0.877 -0.432,1.275c-0.288,0.399 -0.643,0.639 -1.065,0.721l0,0.062c0.47,0.139 0.811,0.408 1.022,0.806c0.211,0.399 0.317,0.853 0.317,1.362c0,0.599 0.089,1.026 0.267,1.281c0.082,0.115 0.199,0.193 0.353,0.234l0,0.505ZM35.938,34.685l1.29,0c0.171,0 0.315,-0.059 0.432,-0.178c0.118,-0.119 0.177,-0.265 0.177,-0.438l0,-0.123c0,-0.172 -0.059,-0.318 -0.177,-0.437c-0.117,-0.119 -0.261,-0.179 -0.432,-0.179l-1.29,0l0,1.355Z" style="fill:#332f68;fill-rule:nonzero;"/></g></svg>