<?xml version="1.0" standalone="no"?><!DOCTYPE svg PUBLIC "-//W3C//DTD SVG 1.1//EN" "http://www.w3.org/Graphics/SVG/1.1/DTD/svg11.dtd"><svg width="100%" height="100%" viewBox="0 0 266 28" version="1.1" xmlns="http://www.w3.org/2000/svg" xmlns:xlink="http://www.w3.org/1999/xlink" xml:space="preserve" style="fill-rule:evenodd;clip-rule:evenodd;stroke-linejoin:round;stroke-miterlimit:1.41421;"><g><path d="M12.231,6.247c-2.134,0 -3.202,0.54 -3.202,1.62c0,0.643 0.354,1.125 1.061,1.446c0.707,0.322 1.588,0.611 2.642,0.868l3.433,0.772c2.803,0.643 4.847,1.826 6.133,3.548c0.694,0.978 1.042,2.276 1.042,3.896c0,1.646 -0.283,3.047 -0.849,4.205c-0.566,1.157 -1.363,2.108 -2.391,2.854c-1.981,1.44 -4.822,2.16 -8.525,2.16c-3.189,0 -5.811,-0.681 -7.869,-2.044c-2.288,-1.543 -3.433,-3.69 -3.433,-6.442l0,-0.463c0,-0.154 0.013,-0.308 0.039,-0.463l7.483,0c-0.026,0.103 -0.039,0.283 -0.039,0.54c0,0.283 0.058,0.592 0.174,0.926c0.116,0.334 0.302,0.63 0.559,0.887c0.617,0.566 1.44,0.849 2.469,0.849c1.029,0 1.787,-0.045 2.276,-0.135c0.488,-0.09 0.861,-0.212 1.118,-0.367c0.437,-0.257 0.656,-0.668 0.656,-1.234c0,-0.566 -0.347,-1.003 -1.041,-1.311c-0.695,-0.309 -1.569,-0.579 -2.623,-0.81c-1.055,-0.232 -2.193,-0.495 -3.414,-0.791c-1.221,-0.296 -2.359,-0.739 -3.414,-1.331c-2.442,-1.414 -3.664,-3.626 -3.664,-6.634c0,-2.675 1.106,-4.783 3.317,-6.326c2.006,-1.389 4.642,-2.083 7.908,-2.083c3.137,0 5.67,0.643 7.598,1.929c2.109,1.44 3.163,3.497 3.163,6.171l0,0.463l-7.406,0l0,-0.154c0,-0.669 -0.244,-1.26 -0.733,-1.775c-0.488,-0.514 -1.311,-0.771 -2.468,-0.771Z" style="fill:#332f68;fill-rule:nonzero;"/><path d="M36.454,18.822l0,-18.052l8.139,0l0,17.936c0,0.848 0.302,1.543 0.906,2.083c0.605,0.54 1.344,0.81 2.218,0.81c0.874,0 1.614,-0.27 2.218,-0.81c0.604,-0.54 0.906,-1.235 0.906,-2.083l0,-17.936l8.101,0l0,18.052c0,2.648 -0.952,4.782 -2.855,6.402c-1.851,1.595 -4.371,2.392 -7.56,2.392l-1.658,0c-3.189,0 -5.709,-0.797 -7.561,-2.392c-1.902,-1.62 -2.854,-3.754 -2.854,-6.402Z" style="fill:#332f68;fill-rule:nonzero;"/><path d="M73.175,27.23l0,-26.46l14.079,0c2.237,0 4.146,0.791 5.727,2.372c1.582,1.581 2.373,3.491 2.373,5.728l0,0.848c0,2.238 -0.791,4.147 -2.373,5.728c-1.581,1.582 -3.49,2.373 -5.727,2.373l-5.979,0l0,9.411l-8.1,0ZM81.275,11.917l3.548,0c0.772,0 1.35,-0.251 1.736,-0.752c0.386,-0.501 0.579,-1.022 0.579,-1.562l0,-0.463c0,-0.54 -0.187,-1.061 -0.559,-1.562c-0.373,-0.502 -0.958,-0.752 -1.756,-0.752l-3.548,0l0,5.091Z" style="fill:#332f68;fill-rule:nonzero;"/><path d="M108.082,27.23l0,-26.46l19.865,0l-0.771,6.094l-11.148,0l0,3.857l10.723,0l0,5.902l-10.723,0l0,4.281l11.148,0l0.771,6.326l-19.865,0Z" style="fill:#332f68;fill-rule:nonzero;"/><path d="M164.899,26.883c-1.208,0.489 -2.713,0.733 -4.513,0.733c-1.826,0 -3.208,-0.366 -4.146,-1.099c-0.939,-0.733 -1.408,-2.025 -1.408,-3.877c0,-1.697 -0.135,-2.886 -0.405,-3.568c-0.27,-0.681 -0.637,-1.202 -1.1,-1.562c-0.462,-0.36 -1.105,-0.54 -1.928,-0.54l-2.237,0l0,10.26l-7.908,0l0,-26.46l14.851,0c1.98,0 3.677,0.591 5.091,1.774c1.492,1.286 2.237,2.88 2.237,4.783c0,1.414 -0.456,2.745 -1.369,3.992c-0.913,1.247 -2.038,2 -3.375,2.257l0,0.193c1.491,0.437 2.571,1.279 3.24,2.526c0.669,1.247 1.003,2.668 1.003,4.262c0,1.877 0.283,3.215 0.849,4.012c0.257,0.36 0.63,0.604 1.118,0.733l0,1.581ZM149.162,11.069l4.088,0c0.54,0 0.997,-0.187 1.37,-0.56c0.373,-0.373 0.559,-0.829 0.559,-1.369l0,-0.386c0,-0.54 -0.186,-0.996 -0.559,-1.369c-0.373,-0.373 -0.83,-0.559 -1.37,-0.559l-4.088,0l0,4.243Z" style="fill:#332f68;fill-rule:nonzero;"/><path d="M176.779,27.23l0,-5.708l3.125,0l0,-15.082l-3.125,0l0,-5.67l14.426,0l0,5.67l-3.124,0l0,15.082l3.124,0l0,5.708l-14.426,0Z" style="fill:#332f68;fill-rule:nonzero;"/><path d="M203.355,16.044l0,-4.011c0,-1.594 0.303,-3.099 0.907,-4.513c0.604,-1.414 1.427,-2.642 2.469,-3.684c1.041,-1.041 2.269,-1.864 3.683,-2.468c1.414,-0.605 2.919,-0.907 4.513,-0.907l2.16,0c1.594,0 3.099,0.302 4.513,0.907c1.414,0.604 2.642,1.427 3.684,2.468c1.041,1.042 1.864,2.27 2.468,3.684c0.605,1.414 0.907,2.919 0.907,4.513l0,4.011c0,1.595 -0.302,3.099 -0.907,4.513c-0.604,1.415 -1.427,2.642 -2.468,3.684c-1.042,1.041 -2.27,1.864 -3.684,2.468c-1.414,0.605 -2.919,0.907 -4.513,0.907l-2.16,0c-1.594,0 -3.099,-0.302 -4.513,-0.907c-1.414,-0.604 -2.642,-1.427 -3.683,-2.468c-1.042,-1.042 -1.865,-2.269 -2.469,-3.684c-0.604,-1.414 -0.907,-2.918 -0.907,-4.513ZM212.073,17.703c0,1.08 0.373,1.993 1.118,2.739c0.746,0.745 1.659,1.118 2.739,1.118l0.193,0c1.08,0 1.993,-0.373 2.738,-1.118c0.746,-0.746 1.119,-1.659 1.119,-2.739l0,-7.444c0,-1.081 -0.373,-1.993 -1.119,-2.739c-0.745,-0.746 -1.658,-1.119 -2.738,-1.119l-0.193,0c-1.08,0 -1.993,0.373 -2.739,1.119c-0.745,0.746 -1.118,1.658 -1.118,2.739l0,7.444Z" style="fill:#332f68;fill-rule:nonzero;"/><path d="M265.727,26.883c-1.209,0.489 -2.713,0.733 -4.513,0.733c-1.826,0 -3.208,-0.366 -4.147,-1.099c-0.938,-0.733 -1.408,-2.025 -1.408,-3.877c0,-1.697 -0.135,-2.886 -0.405,-3.568c-0.27,-0.681 -0.636,-1.202 -1.099,-1.562c-0.463,-0.36 -1.106,-0.54 -1.929,-0.54l-2.237,0l0,10.26l-7.907,0l0,-26.46l14.85,0c1.98,0 3.677,0.591 5.092,1.774c1.491,1.286 2.237,2.88 2.237,4.783c0,1.414 -0.457,2.745 -1.37,3.992c-0.912,1.247 -2.037,2 -3.375,2.257l0,0.193c1.492,0.437 2.572,1.279 3.24,2.526c0.669,1.247 1.003,2.668 1.003,4.262c0,1.877 0.283,3.215 0.849,4.012c0.257,0.36 0.63,0.604 1.119,0.733l0,1.581ZM249.989,11.069l4.089,0c0.54,0 0.996,-0.187 1.369,-0.56c0.373,-0.373 0.559,-0.829 0.559,-1.369l0,-0.386c0,-0.54 -0.186,-0.996 -0.559,-1.369c-0.373,-0.373 -0.829,-0.559 -1.369,-0.559l-4.089,0l0,4.243Z" style="fill:#332f68;fill-rule:nonzero;"/></g></svg>