<?xml version="1.0" encoding="UTF-8" standalone="no"?><!DOCTYPE svg PUBLIC "-//W3C//DTD SVG 1.1//EN" "http://www.w3.org/Graphics/SVG/1.1/DTD/svg11.dtd"><svg width="100%" height="100%" viewBox="0 0 33 33" version="1.1" xmlns="http://www.w3.org/2000/svg" xmlns:xlink="http://www.w3.org/1999/xlink" xml:space="preserve" style="fill-rule:evenodd;clip-rule:evenodd;stroke-linejoin:round;stroke-miterlimit:1.41421;"><path d="M18.321,1.893c0,-1.045 -0.849,-1.893 -1.893,-1.893c-1.045,0 -1.894,0.848 -1.894,1.893l0,16.344c0,1.045 0.849,1.893 1.894,1.893c1.044,0 1.893,-0.848 1.893,-1.893l0,-16.344Z" style="fill:#f04;"/><path d="M23.495,1.554c1.672,0.785 3.208,1.852 4.529,3.142c1.327,1.295 2.434,2.812 3.259,4.472c0.692,1.393 1.185,2.883 1.459,4.414c0.308,1.721 0.34,3.491 0.098,5.223c-0.235,1.679 -0.732,3.32 -1.469,4.847c-0.863,1.79 -2.051,3.419 -3.489,4.79c-1.489,1.419 -3.242,2.558 -5.147,3.337c-1.974,0.807 -4.102,1.221 -6.235,1.221c-2.133,0 -4.261,-0.414 -6.235,-1.221c-1.905,-0.779 -3.658,-1.918 -5.147,-3.337c-1.438,-1.371 -2.626,-3 -3.489,-4.79c-0.737,-1.527 -1.234,-3.168 -1.469,-4.847c-0.242,-1.732 -0.21,-3.502 0.098,-5.223c0.274,-1.531 0.767,-3.021 1.459,-4.414c0.825,-1.66 1.932,-3.177 3.259,-4.472c1.321,-1.29 2.857,-2.357 4.529,-3.142l0,3.4c-0.833,0.506 -1.611,1.103 -2.317,1.776c-1.098,1.047 -2.019,2.277 -2.711,3.628c-0.579,1.129 -0.996,2.34 -1.235,3.587c-0.281,1.461 -0.317,2.97 -0.111,4.443c0.192,1.373 0.599,2.713 1.2,3.961c0.707,1.465 1.68,2.799 2.857,3.921c1.219,1.162 2.653,2.095 4.212,2.732c1.615,0.661 3.355,0.998 5.1,0.998c1.745,0 3.485,-0.337 5.1,-0.998c1.559,-0.637 2.993,-1.57 4.212,-2.732c1.177,-1.122 2.15,-2.456 2.857,-3.921c0.601,-1.248 1.008,-2.588 1.2,-3.961c0.206,-1.473 0.17,-2.982 -0.111,-4.443c-0.239,-1.247 -0.656,-2.458 -1.235,-3.587c-0.692,-1.351 -1.613,-2.581 -2.711,-3.628c-0.706,-0.673 -1.484,-1.27 -2.317,-1.776l0,-3.4Z" style="fill:#f04;"/></svg>