<?xml version="1.0" standalone="no"?><!DOCTYPE svg PUBLIC "-//W3C//DTD SVG 1.1//EN" "http://www.w3.org/Graphics/SVG/1.1/DTD/svg11.dtd"><svg width="100%" height="100%" viewBox="0 0 135 135" version="1.1" xmlns="http://www.w3.org/2000/svg" xmlns:xlink="http://www.w3.org/1999/xlink" xml:space="preserve" style="fill-rule:evenodd;clip-rule:evenodd;stroke-linecap:square;stroke-linejoin:round;stroke-miterlimit:1.41421;"><g><g><circle cx="67.301" cy="67.301" r="50.576" style="fill:none;stroke-width:4px;stroke:#343434;"/><path d="M67.301,133.137l-0.426,-0.001l-0.424,-0.004l-0.424,-0.007l-0.424,-0.009l-0.422,-0.013l-0.423,-0.014l-0.421,-0.018l-0.421,-0.02l-0.42,-0.022l-0.419,-0.026l-0.419,-0.027l-0.418,-0.031l-0.417,-0.033l-0.417,-0.036l-0.416,-0.038l-0.415,-0.041l-0.414,-0.043l-0.414,-0.046l-0.413,-0.049l-0.412,-0.051l-0.411,-0.054l-0.41,-0.056l-0.41,-0.059l-0.409,-0.061l-0.408,-0.064l-0.407,-0.066l-0.407,-0.069l-0.405,-0.071l-0.405,-0.074l-0.404,-0.076l-0.403,-0.078l-0.402,-0.082l-0.402,-0.083l-0.4,-0.086l-0.399,-0.088l-0.399,-0.091l-0.398,-0.093l-0.396,-0.096l-0.396,-0.098l-0.395,-0.1l-0.394,-0.103l-0.393,-0.105l-0.392,-0.108l-0.391,-0.11l-0.39,-0.112l-0.389,-0.114l-0.388,-0.117l-0.387,-0.119l-0.386,-0.122l-0.385,-0.124l-0.384,-0.126l-0.383,-0.128l-0.382,-0.131l-0.381,-0.133l-0.38,-0.135l-0.378,-0.137l-0.378,-0.14l-0.376,-0.142l-0.376,-0.144l-0.374,-0.146l-0.373,-0.149l-0.372,-0.151l-0.371,-0.153l-0.37,-0.155l-0.369,-0.157l-0.367,-0.16l-0.367,-0.162l-0.365,-0.164l-0.364,-0.166l-0.363,-0.168l-0.361,-0.17l-0.36,-0.172l-0.36,-0.175l-0.358,-0.177l-0.356,-0.178l-0.356,-0.181l-0.354,-0.183l-0.353,-0.185l-0.352,-0.187l-0.35,-0.189l-0.35,-0.191l-0.347,-0.194l-0.347,-0.195l-0.345,-0.197l-0.344,-0.199l-0.343,-0.202l-0.341,-0.203l-0.34,-0.205l-0.339,-0.208l-0.337,-0.209l-0.336,-0.211l-0.335,-0.213l-0.333,-0.215l-0.332,-0.217l-0.33,-0.219l-0.33,-0.221l-0.327,-0.223l-0.326,-0.225l-0.325,-0.227l-0.324,-0.228l-0.322,-0.231l-0.32,-0.232l-0.319,-0.234l-0.318,-0.236l-0.316,-0.238l-0.314,-0.24l-0.314,-0.242l-0.311,-0.243l-0.31,-0.246l-0.309,-0.247l-0.307,-0.249l-0.306,-0.25l-0.304,-0.253l-0.302,-0.254l-0.301,-0.256l-0.3,-0.258l-0.297,-0.26l-0.297,-0.261l-0.294,-0.263l-0.294,-0.265l-0.291,-0.266l-0.29,-0.269l-0.288,-0.27l-0.287,-0.271l-0.285,-0.274l-0.283,-0.275l-0.282,-0.276l-0.28,-0.279l-0.278,-0.28l-0.277,-0.282l-0.275,-0.283l-0.274,-0.285l-0.271,-0.287l-0.27,-0.288l-0.269,-0.29l-0.266,-0.291l-0.265,-0.293l-0.263,-0.295l-0.261,-0.296l-0.26,-0.298l-0.258,-0.3l-0.256,-0.301l-0.254,-0.302l-0.253,-0.304l-0.25,-0.306l-0.249,-0.307l-0.247,-0.308l-0.246,-0.311l-0.243,-0.311l-0.242,-0.313l-0.239,-0.315l-0.238,-0.316l-0.237,-0.318l-0.234,-0.319l-0.232,-0.32l-0.231,-0.322l-0.228,-0.324l-0.227,-0.324l-0.225,-0.327l-0.222,-0.327l-0.221,-0.329l-0.219,-0.331l-0.218,-0.332l-0.215,-0.333l-0.213,-0.334l-0.211,-0.336l-0.209,-0.338l-0.208,-0.338l-0.205,-0.34l-0.203,-0.342l-0.201,-0.343l-0.2,-0.344l-0.197,-0.345l-0.195,-0.346l-0.193,-0.348l-0.192,-0.35l-0.189,-0.35l-0.187,-0.352l-0.185,-0.353l-0.183,-0.354l-0.181,-0.355l-0.178,-0.357l-0.177,-0.358l-0.174,-0.359l-0.173,-0.361l-0.17,-0.361l-0.168,-0.363l-0.166,-0.364l-0.164,-0.365l-0.162,-0.367l-0.159,-0.367l-0.158,-0.369l-0.155,-0.37l-0.153,-0.37l-0.151,-0.373l-0.148,-0.373l-0.147,-0.374l-0.144,-0.375l-0.142,-0.377l-0.14,-0.378l-0.137,-0.378l-0.135,-0.38l-0.133,-0.381l-0.131,-0.382l-0.128,-0.383l-0.126,-0.384l-0.124,-0.385l-0.122,-0.386l-0.119,-0.387l-0.117,-0.388l-0.114,-0.389l-0.112,-0.39l-0.11,-0.391l-0.108,-0.392l-0.105,-0.393l-0.103,-0.394l-0.1,-0.395l-0.098,-0.395l-0.095,-0.397l-0.094,-0.398l-0.09,-0.398l-0.089,-0.4l-0.086,-0.4l-0.083,-0.402l-0.081,-0.402l-0.079,-0.403l-0.076,-0.404l-0.074,-0.404l-0.071,-0.406l-0.069,-0.406l-0.066,-0.408l-0.064,-0.408l-0.061,-0.409l-0.059,-0.409l-0.056,-0.411l-0.054,-0.411l-0.051,-0.412l-0.048,-0.413l-0.046,-0.414l-0.044,-0.414l-0.041,-0.415l-0.038,-0.416l-0.036,-0.417l-0.033,-0.417l-0.03,-0.418l-0.028,-0.419l-0.026,-0.419l-0.022,-0.42l-0.02,-0.421l-0.018,-0.421l-0.014,-0.422l-0.012,-0.423l-0.01,-0.424l-0.007,-0.424l-0.004,-0.424l-0.001,-0.425l0.001,-0.426l0.004,-0.424l0.007,-0.424l0.01,-0.424l0.012,-0.422l0.014,-0.423l0.018,-0.421l0.02,-0.421l0.022,-0.42l0.026,-0.419l0.028,-0.419l0.03,-0.418l0.033,-0.417l0.036,-0.417l0.038,-0.416l0.041,-0.415l0.044,-0.414l0.046,-0.414l0.048,-0.413l0.051,-0.412l0.054,-0.411l0.056,-0.41l0.059,-0.41l0.061,-0.409l0.064,-0.408l0.066,-0.407l0.069,-0.407l0.071,-0.405l0.074,-0.405l0.076,-0.404l0.079,-0.403l0.081,-0.402l0.083,-0.402l0.086,-0.4l0.089,-0.399l0.09,-0.399l0.094,-0.398l0.095,-0.396l0.098,-0.396l0.1,-0.395l0.103,-0.394l0.105,-0.393l0.108,-0.392l0.11,-0.391l0.112,-0.39l0.114,-0.389l0.117,-0.388l0.119,-0.387l0.122,-0.386l0.124,-0.385l0.126,-0.384l0.128,-0.383l0.131,-0.382l0.133,-0.381l0.135,-0.38l0.137,-0.378l0.14,-0.378l0.142,-0.376l0.144,-0.376l0.147,-0.374l0.148,-0.373l0.151,-0.372l0.153,-0.371l0.155,-0.37l0.158,-0.369l0.159,-0.367l0.162,-0.367l0.164,-0.365l0.166,-0.364l0.168,-0.362l0.17,-0.362l0.173,-0.36l0.174,-0.36l0.177,-0.358l0.178,-0.356l0.181,-0.356l0.183,-0.354l0.185,-0.353l0.187,-0.352l0.189,-0.35l0.192,-0.349l0.193,-0.348l0.195,-0.347l0.197,-0.345l0.2,-0.344l0.201,-0.343l0.203,-0.341l0.205,-0.34l0.208,-0.339l0.209,-0.337l0.211,-0.336l0.213,-0.335l0.215,-0.333l0.218,-0.332l0.219,-0.33l0.221,-0.33l0.222,-0.327l0.225,-0.326l0.227,-0.325l0.228,-0.324l0.231,-0.322l0.232,-0.32l0.234,-0.319l0.237,-0.318l0.238,-0.316l0.239,-0.314l0.242,-0.314l0.243,-0.311l0.246,-0.31l0.247,-0.309l0.249,-0.307l0.25,-0.306l0.253,-0.304l0.254,-0.302l0.256,-0.301l0.258,-0.3l0.26,-0.297l0.261,-0.297l0.263,-0.294l0.265,-0.294l0.266,-0.291l0.269,-0.29l0.27,-0.288l0.271,-0.287l0.274,-0.285l0.275,-0.283l0.277,-0.282l0.278,-0.28l0.28,-0.278l0.282,-0.277l0.283,-0.275l0.285,-0.274l0.287,-0.271l0.288,-0.27l0.29,-0.269l0.291,-0.266l0.294,-0.265l0.294,-0.263l0.297,-0.261l0.297,-0.26l0.3,-0.258l0.301,-0.256l0.302,-0.254l0.304,-0.253l0.306,-0.25l0.307,-0.249l0.309,-0.247l0.31,-0.246l0.311,-0.243l0.314,-0.242l0.314,-0.239l0.316,-0.238l0.318,-0.237l0.319,-0.234l0.32,-0.232l0.322,-0.231l0.324,-0.228l0.325,-0.227l0.326,-0.225l0.327,-0.222l0.33,-0.221l0.33,-0.219l0.332,-0.218l0.333,-0.215l0.335,-0.213l0.336,-0.211l0.337,-0.209l0.339,-0.208l0.34,-0.205l0.341,-0.203l0.343,-0.201l0.344,-0.2l0.345,-0.197l0.347,-0.195l0.348,-0.193l0.349,-0.192l0.35,-0.189l0.352,-0.187l0.353,-0.185l0.354,-0.183l0.356,-0.181l0.356,-0.178l0.358,-0.177l0.36,-0.174l0.36,-0.173l0.362,-0.17l0.362,-0.168l0.364,-0.166l0.365,-0.164l0.367,-0.162l0.367,-0.159l0.369,-0.158l0.37,-0.155l0.371,-0.153l0.372,-0.151l0.373,-0.148l0.374,-0.147l0.376,-0.144l0.376,-0.142l0.378,-0.14l0.378,-0.137l0.38,-0.135l0.381,-0.133l0.382,-0.131l0.383,-0.128l0.384,-0.126l0.385,-0.124l0.386,-0.122l0.387,-0.119l0.388,-0.117l0.389,-0.114l0.39,-0.112l0.391,-0.11l0.392,-0.108l0.393,-0.105l0.394,-0.103l0.395,-0.1l0.396,-0.098l0.396,-0.095l0.398,-0.094l0.399,-0.09l0.399,-0.089l0.4,-0.086l0.402,-0.083l0.402,-0.081l0.403,-0.079l0.404,-0.076l0.405,-0.074l0.405,-0.071l0.407,-0.069l0.407,-0.066l0.408,-0.064l0.409,-0.061l0.41,-0.059l0.41,-0.056l0.411,-0.054l0.412,-0.051l0.413,-0.048l0.414,-0.046l0.414,-0.044l0.415,-0.041l0.416,-0.038l0.417,-0.036l0.417,-0.033l0.418,-0.03l0.419,-0.028l0.419,-0.026l0.42,-0.022l0.421,-0.02l0.421,-0.018l0.423,-0.014l0.422,-0.012l0.424,-0.01l0.424,-0.007l0.424,-0.004l0.426,-0.001l0.425,0.001l0.424,0.004l0.424,0.007l0.424,0.01l0.423,0.012l0.422,0.014l0.421,0.018l0.421,0.02l0.42,0.022l0.419,0.026l0.419,0.028l0.418,0.03l0.417,0.033l0.417,0.036l0.416,0.038l0.415,0.041l0.414,0.044l0.414,0.046l0.413,0.048l0.412,0.051l0.411,0.054l0.411,0.056l0.409,0.059l0.409,0.061l0.408,0.064l0.408,0.066l0.406,0.069l0.406,0.071l0.404,0.074l0.404,0.076l0.403,0.079l0.402,0.081l0.402,0.083l0.4,0.086l0.4,0.089l0.398,0.09l0.398,0.094l0.397,0.095l0.395,0.098l0.395,0.1l0.394,0.103l0.393,0.105l0.392,0.108l0.391,0.11l0.39,0.112l0.389,0.114l0.388,0.117l0.387,0.119l0.386,0.122l0.385,0.124l0.384,0.126l0.383,0.128l0.382,0.131l0.381,0.133l0.38,0.135l0.378,0.137l0.378,0.14l0.377,0.142l0.375,0.144l0.374,0.147l0.373,0.148l0.373,0.151l0.37,0.153l0.37,0.155l0.369,0.158l0.367,0.159l0.367,0.162l0.365,0.164l0.364,0.166l0.363,0.168l0.361,0.17l0.361,0.173l0.359,0.174l0.358,0.177l0.357,0.178l0.355,0.181l0.354,0.183l0.353,0.185l0.352,0.187l0.35,0.189l0.35,0.192l0.348,0.193l0.346,0.195l0.345,0.197l0.344,0.2l0.343,0.201l0.342,0.203l0.34,0.205l0.338,0.208l0.338,0.209l0.336,0.211l0.334,0.213l0.333,0.215l0.332,0.218l0.331,0.219l0.329,0.221l0.327,0.222l0.327,0.225l0.324,0.227l0.324,0.228l0.322,0.231l0.32,0.232l0.319,0.234l0.318,0.237l0.316,0.238l0.315,0.239l0.313,0.242l0.311,0.243l0.311,0.246l0.308,0.247l0.307,0.249l0.306,0.25l0.304,0.253l0.302,0.254l0.301,0.256l0.3,0.258l0.298,0.26l0.296,0.261l0.295,0.263l0.293,0.265l0.291,0.266l0.29,0.269l0.288,0.27l0.287,0.271l0.285,0.274l0.283,0.275l0.282,0.277l0.28,0.278l0.279,0.28l0.276,0.282l0.275,0.283l0.274,0.285l0.271,0.287l0.27,0.288l0.269,0.29l0.266,0.291l0.265,0.294l0.263,0.294l0.261,0.297l0.26,0.297l0.258,0.3l0.256,0.301l0.254,0.302l0.253,0.304l0.25,0.306l0.249,0.307l0.247,0.309l0.246,0.31l0.243,0.311l0.242,0.314l0.24,0.314l0.238,0.316l0.236,0.318l0.234,0.319l0.232,0.32l0.231,0.322l0.228,0.324l0.227,0.325l0.225,0.326l0.223,0.327l0.221,0.33l0.219,0.33l0.217,0.332l0.215,0.333l0.213,0.335l0.211,0.336l0.209,0.337l0.208,0.339l0.205,0.34l0.203,0.341l0.202,0.343l0.199,0.344l0.197,0.345l0.195,0.347l0.194,0.347l0.191,0.35l0.189,0.35l0.187,0.352l0.185,0.353l0.183,0.354l0.181,0.356l0.178,0.356l0.177,0.358l0.175,0.36l0.172,0.36l0.17,0.361l0.168,0.363l0.166,0.364l0.164,0.365l0.162,0.367l0.16,0.367l0.157,0.369l0.155,0.37l0.153,0.371l0.151,0.372l0.149,0.373l0.146,0.374l0.144,0.376l0.142,0.376l0.14,0.378l0.137,0.378l0.135,0.38l0.133,0.381l0.131,0.382l0.128,0.383l0.126,0.384l0.124,0.385l0.122,0.386l0.119,0.387l0.117,0.388l0.114,0.389l0.112,0.39l0.11,0.391l0.108,0.392l0.105,0.393l0.103,0.394l0.1,0.395l0.098,0.396l0.096,0.396l0.093,0.398l0.091,0.399l0.088,0.399l0.086,0.4l0.083,0.402l0.082,0.402l0.078,0.403l0.076,0.404l0.074,0.405l0.071,0.405l0.069,0.407l0.066,0.407l0.064,0.408l0.061,0.409l0.059,0.41l0.056,0.41l0.054,0.411l0.051,0.412l0.049,0.413l0.046,0.414l0.043,0.414l0.041,0.415l0.038,0.416l0.036,0.417l0.033,0.417l0.031,0.418l0.027,0.419l0.026,0.419l0.022,0.42l0.02,0.421l0.018,0.421l0.014,0.423l0.013,0.422l0.009,0.424l0.007,0.424l0.004,0.424l0.001,0.426l-0.001,0.425l-0.004,0.424l-0.007,0.424l-0.009,0.424l-0.013,0.423l-0.014,0.422l-0.018,0.421l-0.02,0.421l-0.022,0.42l-0.026,0.419l-0.027,0.419l-0.031,0.418l-0.033,0.417l-0.036,0.417l-0.038,0.416l-0.041,0.415l-0.043,0.414l-0.046,0.414l-0.049,0.413l-0.051,0.412l-0.054,0.411l-0.056,0.411l-0.059,0.409l-0.061,0.409l-0.064,0.408l-0.066,0.408l-0.069,0.406l-0.071,0.406l-0.074,0.404l-0.076,0.404l-0.078,0.403l-0.082,0.402l-0.083,0.402l-0.086,0.4l-0.088,0.4l-0.091,0.398l-0.093,0.398l-0.096,0.397l-0.098,0.395l-0.1,0.395l-0.103,0.394l-0.105,0.393l-0.108,0.392l-0.11,0.391l-0.112,0.39l-0.114,0.389l-0.117,0.388l-0.119,0.387l-0.122,0.386l-0.124,0.385l-0.126,0.384l-0.128,0.383l-0.131,0.382l-0.133,0.381l-0.135,0.38l-0.137,0.378l-0.14,0.378l-0.142,0.377l-0.144,0.375l-0.146,0.374l-0.149,0.373l-0.151,0.372l-0.153,0.371l-0.155,0.37l-0.157,0.369l-0.16,0.367l-0.162,0.367l-0.164,0.365l-0.166,0.364l-0.168,0.363l-0.17,0.361l-0.172,0.361l-0.175,0.359l-0.177,0.358l-0.178,0.357l-0.181,0.355l-0.183,0.354l-0.185,0.353l-0.187,0.352l-0.189,0.35l-0.191,0.35l-0.194,0.348l-0.195,0.346l-0.197,0.345l-0.199,0.344l-0.202,0.343l-0.203,0.342l-0.205,0.34l-0.208,0.338l-0.209,0.338l-0.211,0.335l-0.213,0.335l-0.215,0.333l-0.217,0.332l-0.219,0.331l-0.221,0.329l-0.223,0.327l-0.225,0.327l-0.227,0.324l-0.228,0.324l-0.231,0.322l-0.232,0.32l-0.234,0.319l-0.236,0.318l-0.238,0.316l-0.24,0.315l-0.242,0.313l-0.243,0.311l-0.246,0.311l-0.247,0.308l-0.249,0.307l-0.25,0.306l-0.253,0.304l-0.254,0.302l-0.256,0.301l-0.258,0.3l-0.26,0.298l-0.261,0.296l-0.263,0.295l-0.265,0.293l-0.266,0.291l-0.269,0.29l-0.27,0.288l-0.271,0.287l-0.274,0.285l-0.275,0.283l-0.276,0.282l-0.279,0.28l-0.28,0.279l-0.282,0.276l-0.283,0.275l-0.285,0.274l-0.287,0.271l-0.288,0.27l-0.29,0.269l-0.291,0.266l-0.293,0.265l-0.295,0.263l-0.296,0.261l-0.298,0.26l-0.3,0.258l-0.301,0.256l-0.302,0.254l-0.304,0.253l-0.306,0.25l-0.307,0.249l-0.308,0.247l-0.311,0.246l-0.311,0.243l-0.313,0.242l-0.315,0.24l-0.316,0.238l-0.318,0.236l-0.319,0.234l-0.32,0.232l-0.322,0.231l-0.324,0.228l-0.324,0.227l-0.327,0.225l-0.327,0.223l-0.329,0.221l-0.331,0.219l-0.332,0.217l-0.333,0.215l-0.335,0.213l-0.335,0.211l-0.338,0.209l-0.338,0.208l-0.34,0.205l-0.342,0.203l-0.343,0.202l-0.344,0.199l-0.345,0.197l-0.346,0.195l-0.348,0.194l-0.35,0.191l-0.35,0.189l-0.352,0.187l-0.353,0.185l-0.354,0.183l-0.355,0.181l-0.357,0.178l-0.358,0.177l-0.359,0.175l-0.361,0.172l-0.361,0.17l-0.363,0.168l-0.364,0.166l-0.365,0.164l-0.367,0.162l-0.367,0.16l-0.369,0.157l-0.37,0.155l-0.371,0.153l-0.372,0.151l-0.373,0.149l-0.374,0.146l-0.375,0.144l-0.377,0.142l-0.378,0.14l-0.378,0.137l-0.38,0.135l-0.381,0.133l-0.382,0.131l-0.383,0.128l-0.384,0.126l-0.385,0.124l-0.386,0.122l-0.387,0.119l-0.388,0.117l-0.389,0.114l-0.39,0.112l-0.391,0.11l-0.392,0.108l-0.393,0.105l-0.394,0.103l-0.395,0.1l-0.395,0.098l-0.397,0.096l-0.398,0.093l-0.398,0.091l-0.4,0.088l-0.4,0.086l-0.402,0.083l-0.402,0.082l-0.403,0.078l-0.404,0.076l-0.404,0.074l-0.406,0.071l-0.406,0.069l-0.408,0.066l-0.408,0.064l-0.409,0.061l-0.409,0.059l-0.411,0.056l-0.411,0.054l-0.412,0.051l-0.413,0.049l-0.414,0.046l-0.414,0.043l-0.415,0.041l-0.416,0.038l-0.417,0.036l-0.417,0.033l-0.418,0.031l-0.419,0.027l-0.419,0.026l-0.42,0.022l-0.421,0.02l-0.421,0.018l-0.422,0.014l-0.423,0.013l-0.424,0.009l-0.424,0.007l-0.424,0.004l-0.425,0.001ZM67.301,129.137l0.399,-0.001l0.4,-0.004l0.398,-0.006l0.398,-0.009l0.398,-0.012l0.397,-0.013l0.396,-0.017l0.395,-0.019l0.395,-0.021l0.394,-0.024l0.393,-0.026l0.393,-0.028l0.392,-0.032l0.392,-0.033l0.39,-0.036l0.39,-0.039l0.39,-0.04l0.388,-0.044l0.388,-0.045l0.387,-0.048l0.386,-0.051l0.386,-0.052l0.384,-0.056l0.384,-0.057l0.384,-0.06l0.382,-0.062l0.382,-0.065l0.38,-0.067l0.381,-0.069l0.379,-0.071l0.378,-0.074l0.378,-0.076l0.376,-0.079l0.376,-0.08l0.375,-0.083l0.375,-0.085l0.373,-0.088l0.372,-0.09l0.372,-0.092l0.371,-0.094l0.369,-0.096l0.369,-0.099l0.368,-0.101l0.367,-0.103l0.367,-0.105l0.365,-0.108l0.364,-0.11l0.363,-0.112l0.363,-0.114l0.361,-0.116l0.361,-0.118l0.359,-0.121l0.359,-0.122l0.357,-0.125l0.357,-0.127l0.355,-0.129l0.355,-0.131l0.353,-0.133l0.353,-0.136l0.351,-0.137l0.35,-0.14l0.35,-0.141l0.348,-0.144l0.347,-0.146l0.346,-0.147l0.345,-0.15l0.344,-0.152l0.343,-0.154l0.342,-0.156l0.34,-0.158l0.34,-0.16l0.338,-0.161l0.338,-0.164l0.336,-0.166l0.335,-0.168l0.334,-0.17l0.332,-0.172l0.332,-0.173l0.33,-0.176l0.329,-0.178l0.328,-0.179l0.327,-0.182l0.325,-0.183l0.325,-0.185l0.323,-0.187l0.322,-0.19l0.32,-0.19l0.32,-0.193l0.318,-0.195l0.317,-0.197l0.315,-0.198l0.315,-0.2l0.313,-0.202l0.311,-0.204l0.311,-0.206l0.309,-0.207l0.308,-0.21l0.306,-0.211l0.305,-0.213l0.304,-0.215l0.303,-0.216l0.301,-0.219l0.299,-0.22l0.299,-0.221l0.297,-0.224l0.295,-0.225l0.295,-0.227l0.292,-0.229l0.292,-0.231l0.29,-0.232l0.288,-0.234l0.288,-0.235l0.285,-0.237l0.285,-0.239l0.282,-0.241l0.282,-0.242l0.279,-0.244l0.279,-0.246l0.277,-0.247l0.275,-0.249l0.274,-0.25l0.272,-0.252l0.271,-0.254l0.27,-0.255l0.268,-0.257l0.266,-0.259l0.265,-0.26l0.263,-0.261l0.261,-0.263l0.26,-0.265l0.259,-0.266l0.257,-0.268l0.255,-0.27l0.254,-0.271l0.252,-0.272l0.25,-0.274l0.249,-0.275l0.247,-0.277l0.246,-0.279l0.244,-0.279l0.242,-0.282l0.241,-0.282l0.239,-0.285l0.237,-0.285l0.235,-0.288l0.234,-0.288l0.232,-0.29l0.231,-0.292l0.229,-0.292l0.227,-0.295l0.225,-0.295l0.224,-0.297l0.221,-0.299l0.22,-0.299l0.219,-0.301l0.216,-0.303l0.215,-0.304l0.213,-0.305l0.211,-0.306l0.21,-0.308l0.207,-0.309l0.206,-0.311l0.204,-0.311l0.202,-0.313l0.2,-0.315l0.198,-0.315l0.197,-0.317l0.195,-0.318l0.193,-0.32l0.19,-0.32l0.19,-0.322l0.187,-0.323l0.185,-0.325l0.183,-0.325l0.182,-0.327l0.179,-0.328l0.178,-0.329l0.176,-0.33l0.173,-0.332l0.172,-0.332l0.17,-0.334l0.168,-0.335l0.166,-0.336l0.164,-0.338l0.161,-0.338l0.16,-0.34l0.158,-0.34l0.156,-0.342l0.154,-0.343l0.152,-0.344l0.15,-0.345l0.147,-0.346l0.146,-0.347l0.144,-0.348l0.141,-0.35l0.14,-0.35l0.137,-0.351l0.136,-0.353l0.133,-0.353l0.131,-0.355l0.129,-0.355l0.127,-0.357l0.125,-0.357l0.122,-0.359l0.121,-0.359l0.118,-0.361l0.116,-0.361l0.114,-0.363l0.112,-0.363l0.11,-0.364l0.108,-0.365l0.105,-0.367l0.103,-0.367l0.101,-0.368l0.099,-0.369l0.096,-0.369l0.094,-0.371l0.092,-0.372l0.09,-0.372l0.088,-0.373l0.085,-0.375l0.083,-0.375l0.08,-0.376l0.079,-0.376l0.076,-0.378l0.074,-0.378l0.071,-0.379l0.069,-0.381l0.067,-0.38l0.065,-0.382l0.062,-0.382l0.06,-0.384l0.057,-0.384l0.056,-0.384l0.052,-0.386l0.051,-0.386l0.048,-0.387l0.045,-0.388l0.044,-0.388l0.04,-0.39l0.039,-0.39l0.036,-0.39l0.033,-0.392l0.032,-0.392l0.028,-0.393l0.026,-0.393l0.024,-0.394l0.021,-0.395l0.019,-0.395l0.017,-0.396l0.013,-0.397l0.012,-0.398l0.009,-0.398l0.006,-0.398l0.004,-0.4l0.001,-0.399l-0.001,-0.4l-0.004,-0.4l-0.006,-0.398l-0.009,-0.398l-0.012,-0.398l-0.013,-0.396l-0.017,-0.397l-0.019,-0.395l-0.021,-0.395l-0.024,-0.394l-0.026,-0.393l-0.028,-0.393l-0.032,-0.392l-0.033,-0.391l-0.036,-0.391l-0.039,-0.39l-0.04,-0.389l-0.044,-0.389l-0.045,-0.388l-0.048,-0.387l-0.051,-0.386l-0.052,-0.385l-0.056,-0.385l-0.057,-0.384l-0.06,-0.383l-0.062,-0.383l-0.065,-0.381l-0.067,-0.381l-0.069,-0.38l-0.071,-0.38l-0.074,-0.378l-0.076,-0.378l-0.079,-0.376l-0.08,-0.376l-0.083,-0.375l-0.085,-0.374l-0.088,-0.374l-0.09,-0.372l-0.092,-0.372l-0.094,-0.37l-0.096,-0.37l-0.099,-0.369l-0.101,-0.368l-0.103,-0.367l-0.105,-0.366l-0.108,-0.366l-0.11,-0.364l-0.112,-0.363l-0.114,-0.363l-0.116,-0.361l-0.118,-0.36l-0.121,-0.36l-0.122,-0.358l-0.125,-0.358l-0.127,-0.356l-0.129,-0.356l-0.131,-0.354l-0.133,-0.354l-0.136,-0.352l-0.137,-0.352l-0.14,-0.35l-0.141,-0.349l-0.144,-0.349l-0.146,-0.347l-0.147,-0.346l-0.15,-0.345l-0.152,-0.344l-0.154,-0.343l-0.156,-0.342l-0.158,-0.34l-0.16,-0.34l-0.161,-0.338l-0.164,-0.338l-0.166,-0.336l-0.168,-0.335l-0.17,-0.334l-0.172,-0.332l-0.173,-0.332l-0.176,-0.33l-0.178,-0.329l-0.179,-0.328l-0.182,-0.327l-0.183,-0.325l-0.185,-0.325l-0.187,-0.323l-0.19,-0.322l-0.19,-0.32l-0.193,-0.32l-0.195,-0.318l-0.197,-0.317l-0.198,-0.315l-0.2,-0.314l-0.202,-0.313l-0.204,-0.312l-0.206,-0.311l-0.207,-0.309l-0.21,-0.308l-0.211,-0.306l-0.213,-0.305l-0.215,-0.304l-0.216,-0.302l-0.219,-0.302l-0.22,-0.299l-0.221,-0.299l-0.224,-0.297l-0.225,-0.295l-0.227,-0.294l-0.229,-0.293l-0.231,-0.292l-0.232,-0.29l-0.234,-0.288l-0.235,-0.287l-0.237,-0.286l-0.239,-0.284l-0.241,-0.283l-0.242,-0.281l-0.244,-0.28l-0.246,-0.279l-0.247,-0.277l-0.249,-0.275l-0.25,-0.274l-0.252,-0.272l-0.254,-0.271l-0.255,-0.27l-0.257,-0.267l-0.259,-0.267l-0.26,-0.264l-0.261,-0.264l-0.263,-0.261l-0.265,-0.26l-0.266,-0.259l-0.268,-0.257l-0.27,-0.255l-0.271,-0.254l-0.272,-0.252l-0.274,-0.25l-0.275,-0.249l-0.277,-0.247l-0.279,-0.246l-0.279,-0.244l-0.282,-0.242l-0.282,-0.24l-0.285,-0.239l-0.285,-0.238l-0.288,-0.235l-0.288,-0.234l-0.29,-0.232l-0.292,-0.231l-0.292,-0.229l-0.295,-0.227l-0.295,-0.225l-0.297,-0.223l-0.299,-0.222l-0.299,-0.22l-0.301,-0.219l-0.303,-0.216l-0.304,-0.215l-0.305,-0.213l-0.306,-0.211l-0.308,-0.209l-0.309,-0.208l-0.311,-0.206l-0.311,-0.204l-0.313,-0.202l-0.315,-0.2l-0.315,-0.198l-0.317,-0.197l-0.318,-0.195l-0.32,-0.192l-0.32,-0.191l-0.322,-0.189l-0.323,-0.188l-0.325,-0.185l-0.325,-0.183l-0.327,-0.182l-0.328,-0.179l-0.329,-0.178l-0.33,-0.175l-0.332,-0.174l-0.332,-0.172l-0.334,-0.17l-0.335,-0.168l-0.336,-0.165l-0.338,-0.164l-0.338,-0.162l-0.34,-0.16l-0.34,-0.158l-0.342,-0.156l-0.343,-0.154l-0.344,-0.152l-0.345,-0.149l-0.346,-0.148l-0.347,-0.146l-0.348,-0.144l-0.35,-0.141l-0.35,-0.14l-0.351,-0.137l-0.353,-0.135l-0.353,-0.134l-0.355,-0.131l-0.355,-0.129l-0.357,-0.127l-0.357,-0.125l-0.359,-0.122l-0.359,-0.121l-0.361,-0.118l-0.361,-0.116l-0.363,-0.114l-0.363,-0.112l-0.364,-0.11l-0.365,-0.107l-0.367,-0.106l-0.367,-0.103l-0.368,-0.101l-0.369,-0.098l-0.369,-0.097l-0.371,-0.094l-0.372,-0.092l-0.372,-0.09l-0.373,-0.087l-0.375,-0.086l-0.375,-0.083l-0.376,-0.08l-0.376,-0.079l-0.378,-0.076l-0.378,-0.074l-0.379,-0.071l-0.381,-0.069l-0.38,-0.067l-0.382,-0.065l-0.382,-0.062l-0.384,-0.06l-0.384,-0.057l-0.384,-0.055l-0.386,-0.053l-0.386,-0.051l-0.387,-0.048l-0.388,-0.045l-0.388,-0.043l-0.39,-0.041l-0.39,-0.039l-0.39,-0.036l-0.392,-0.033l-0.392,-0.031l-0.393,-0.029l-0.393,-0.026l-0.394,-0.024l-0.395,-0.021l-0.395,-0.019l-0.396,-0.016l-0.397,-0.014l-0.398,-0.012l-0.398,-0.009l-0.398,-0.006l-0.4,-0.004l-0.399,-0.001l-0.4,0.001l-0.4,0.004l-0.398,0.006l-0.398,0.009l-0.398,0.012l-0.396,0.014l-0.397,0.016l-0.395,0.019l-0.395,0.021l-0.394,0.024l-0.393,0.026l-0.393,0.029l-0.392,0.031l-0.391,0.033l-0.391,0.036l-0.39,0.039l-0.389,0.041l-0.389,0.043l-0.388,0.045l-0.387,0.048l-0.386,0.051l-0.385,0.053l-0.385,0.055l-0.384,0.057l-0.383,0.06l-0.383,0.062l-0.381,0.065l-0.381,0.067l-0.38,0.069l-0.38,0.071l-0.378,0.074l-0.378,0.076l-0.376,0.079l-0.376,0.08l-0.375,0.083l-0.374,0.086l-0.374,0.087l-0.372,0.09l-0.372,0.092l-0.37,0.094l-0.37,0.097l-0.369,0.098l-0.368,0.101l-0.367,0.103l-0.366,0.106l-0.366,0.107l-0.364,0.11l-0.363,0.112l-0.363,0.114l-0.361,0.116l-0.36,0.118l-0.36,0.121l-0.358,0.122l-0.358,0.125l-0.356,0.127l-0.356,0.129l-0.354,0.131l-0.354,0.134l-0.352,0.135l-0.352,0.137l-0.35,0.14l-0.349,0.141l-0.349,0.144l-0.347,0.146l-0.346,0.148l-0.345,0.149l-0.344,0.152l-0.343,0.154l-0.342,0.156l-0.34,0.158l-0.34,0.16l-0.338,0.162l-0.338,0.164l-0.336,0.165l-0.335,0.168l-0.334,0.17l-0.332,0.172l-0.332,0.174l-0.33,0.175l-0.329,0.178l-0.328,0.179l-0.327,0.182l-0.325,0.183l-0.325,0.185l-0.323,0.188l-0.322,0.189l-0.32,0.191l-0.32,0.192l-0.318,0.195l-0.317,0.197l-0.315,0.198l-0.314,0.2l-0.313,0.202l-0.312,0.204l-0.311,0.206l-0.309,0.208l-0.308,0.209l-0.306,0.211l-0.305,0.213l-0.304,0.215l-0.302,0.216l-0.302,0.219l-0.299,0.22l-0.299,0.222l-0.297,0.223l-0.295,0.225l-0.294,0.227l-0.293,0.229l-0.292,0.231l-0.29,0.232l-0.288,0.234l-0.287,0.235l-0.286,0.238l-0.284,0.239l-0.283,0.24l-0.281,0.242l-0.28,0.244l-0.279,0.246l-0.277,0.247l-0.275,0.249l-0.274,0.25l-0.272,0.252l-0.271,0.254l-0.27,0.255l-0.267,0.257l-0.267,0.259l-0.264,0.26l-0.264,0.261l-0.261,0.264l-0.26,0.264l-0.259,0.267l-0.257,0.267l-0.255,0.27l-0.254,0.271l-0.252,0.272l-0.25,0.274l-0.249,0.275l-0.247,0.277l-0.246,0.279l-0.244,0.28l-0.242,0.281l-0.24,0.283l-0.239,0.284l-0.238,0.286l-0.235,0.287l-0.234,0.288l-0.232,0.29l-0.231,0.292l-0.229,0.293l-0.227,0.294l-0.225,0.295l-0.223,0.297l-0.222,0.299l-0.22,0.299l-0.219,0.302l-0.216,0.302l-0.215,0.304l-0.213,0.305l-0.211,0.306l-0.209,0.308l-0.208,0.309l-0.206,0.311l-0.204,0.312l-0.202,0.313l-0.2,0.314l-0.198,0.315l-0.197,0.317l-0.195,0.318l-0.192,0.32l-0.191,0.32l-0.189,0.322l-0.188,0.323l-0.185,0.325l-0.183,0.325l-0.182,0.327l-0.179,0.328l-0.178,0.329l-0.175,0.33l-0.174,0.332l-0.172,0.332l-0.17,0.334l-0.168,0.335l-0.165,0.336l-0.164,0.338l-0.162,0.338l-0.16,0.34l-0.158,0.34l-0.156,0.342l-0.154,0.343l-0.152,0.344l-0.149,0.345l-0.148,0.346l-0.146,0.347l-0.144,0.349l-0.141,0.349l-0.14,0.35l-0.137,0.352l-0.135,0.352l-0.134,0.354l-0.131,0.354l-0.129,0.356l-0.127,0.356l-0.125,0.358l-0.122,0.358l-0.121,0.36l-0.118,0.36l-0.116,0.361l-0.114,0.363l-0.112,0.363l-0.11,0.364l-0.107,0.366l-0.106,0.366l-0.103,0.367l-0.101,0.368l-0.098,0.369l-0.097,0.37l-0.094,0.37l-0.092,0.372l-0.09,0.372l-0.087,0.374l-0.086,0.374l-0.083,0.375l-0.08,0.376l-0.079,0.376l-0.076,0.378l-0.074,0.378l-0.071,0.38l-0.069,0.38l-0.067,0.381l-0.065,0.381l-0.062,0.383l-0.06,0.383l-0.057,0.384l-0.055,0.385l-0.053,0.385l-0.051,0.386l-0.048,0.387l-0.045,0.388l-0.043,0.389l-0.041,0.389l-0.039,0.39l-0.036,0.391l-0.033,0.391l-0.031,0.392l-0.029,0.393l-0.026,0.393l-0.024,0.394l-0.021,0.395l-0.019,0.395l-0.016,0.397l-0.014,0.396l-0.012,0.398l-0.009,0.398l-0.006,0.398l-0.004,0.4l-0.001,0.4l0.001,0.399l0.004,0.4l0.006,0.398l0.009,0.398l0.012,0.398l0.014,0.397l0.016,0.396l0.019,0.395l0.021,0.395l0.024,0.394l0.026,0.393l0.029,0.393l0.031,0.392l0.033,0.392l0.036,0.39l0.039,0.39l0.041,0.39l0.043,0.388l0.045,0.388l0.048,0.387l0.051,0.386l0.053,0.386l0.055,0.384l0.057,0.384l0.06,0.384l0.062,0.382l0.065,0.382l0.067,0.38l0.069,0.381l0.071,0.379l0.074,0.378l0.076,0.378l0.079,0.376l0.08,0.376l0.083,0.375l0.086,0.375l0.087,0.373l0.09,0.372l0.092,0.372l0.094,0.371l0.097,0.369l0.098,0.369l0.101,0.368l0.103,0.367l0.106,0.367l0.107,0.365l0.11,0.364l0.112,0.363l0.114,0.363l0.116,0.361l0.118,0.361l0.121,0.359l0.122,0.359l0.125,0.357l0.127,0.357l0.129,0.355l0.131,0.355l0.134,0.353l0.135,0.353l0.137,0.351l0.14,0.35l0.141,0.35l0.144,0.348l0.146,0.347l0.148,0.346l0.149,0.345l0.152,0.344l0.154,0.343l0.156,0.342l0.158,0.34l0.16,0.34l0.162,0.338l0.164,0.338l0.165,0.336l0.168,0.335l0.17,0.334l0.172,0.332l0.174,0.332l0.175,0.33l0.178,0.329l0.179,0.328l0.182,0.327l0.183,0.325l0.185,0.325l0.188,0.323l0.189,0.322l0.191,0.32l0.192,0.32l0.195,0.318l0.197,0.317l0.198,0.315l0.2,0.315l0.202,0.313l0.204,0.311l0.206,0.311l0.208,0.309l0.209,0.308l0.211,0.306l0.213,0.305l0.215,0.304l0.216,0.303l0.219,0.301l0.22,0.299l0.222,0.299l0.223,0.297l0.225,0.295l0.227,0.295l0.229,0.292l0.231,0.292l0.232,0.29l0.234,0.288l0.235,0.288l0.238,0.285l0.239,0.285l0.24,0.282l0.242,0.282l0.244,0.279l0.246,0.279l0.247,0.277l0.249,0.275l0.25,0.274l0.252,0.272l0.254,0.271l0.255,0.27l0.257,0.268l0.259,0.266l0.26,0.265l0.261,0.263l0.264,0.261l0.264,0.26l0.267,0.259l0.267,0.257l0.27,0.255l0.271,0.254l0.272,0.252l0.274,0.25l0.275,0.249l0.277,0.247l0.279,0.246l0.28,0.244l0.281,0.242l0.283,0.241l0.284,0.239l0.286,0.237l0.287,0.235l0.288,0.234l0.29,0.232l0.292,0.231l0.293,0.229l0.294,0.227l0.295,0.225l0.297,0.224l0.299,0.221l0.299,0.22l0.302,0.219l0.302,0.216l0.304,0.215l0.305,0.213l0.306,0.211l0.308,0.21l0.309,0.207l0.311,0.206l0.312,0.204l0.313,0.202l0.314,0.2l0.315,0.198l0.317,0.197l0.318,0.195l0.32,0.193l0.32,0.19l0.322,0.19l0.323,0.187l0.325,0.185l0.325,0.183l0.327,0.182l0.328,0.179l0.329,0.178l0.33,0.176l0.332,0.173l0.332,0.172l0.334,0.17l0.335,0.168l0.336,0.166l0.338,0.164l0.338,0.161l0.34,0.16l0.34,0.158l0.342,0.156l0.343,0.154l0.344,0.152l0.345,0.15l0.346,0.147l0.347,0.146l0.349,0.144l0.349,0.141l0.35,0.14l0.352,0.137l0.352,0.136l0.354,0.133l0.354,0.131l0.356,0.129l0.356,0.127l0.358,0.125l0.358,0.122l0.36,0.121l0.36,0.118l0.361,0.116l0.363,0.114l0.363,0.112l0.364,0.11l0.366,0.108l0.366,0.105l0.367,0.103l0.368,0.101l0.369,0.099l0.37,0.096l0.37,0.094l0.372,0.092l0.372,0.09l0.374,0.088l0.374,0.085l0.375,0.083l0.376,0.08l0.376,0.079l0.378,0.076l0.378,0.074l0.38,0.071l0.38,0.069l0.381,0.067l0.381,0.065l0.383,0.062l0.383,0.06l0.384,0.057l0.385,0.056l0.385,0.052l0.386,0.051l0.387,0.048l0.388,0.045l0.389,0.044l0.389,0.04l0.39,0.039l0.391,0.036l0.391,0.033l0.392,0.032l0.393,0.028l0.393,0.026l0.394,0.024l0.395,0.021l0.395,0.019l0.397,0.017l0.396,0.013l0.398,0.012l0.398,0.009l0.398,0.006l0.4,0.004l0.4,0.001Z" style="fill:#343434;"/></g><g><path d="M67.759,15.535c2.149,-4.024 2.217,-7.731 0,-11.09" style="fill:none;stroke-width:4px;stroke:#343434;"/><path d="M67.759,130.022c2.149,-4.024 2.217,-7.731 0,-11.09" style="fill:none;stroke-width:4px;stroke:#343434;"/></g><g><path d="M119.277,66.415c4.023,2.148 7.73,2.217 11.09,0" style="fill:none;stroke-width:4px;stroke:#343434;"/><path d="M4.789,66.415c4.024,2.148 7.731,2.217 11.09,0" style="fill:none;stroke-width:4px;stroke:#343434;"/></g><g><path d="M103.556,30.098c4.364,-1.326 7.034,-3.899 7.841,-7.842" style="fill:none;stroke-width:4px;stroke:#343434;"/><path d="M22.601,111.053c4.364,-1.326 7.034,-3.899 7.842,-7.842" style="fill:none;stroke-width:4px;stroke:#343434;"/></g><g><path d="M30.443,31.256c-1.326,-4.365 -3.899,-7.034 -7.842,-7.842" style="fill:none;stroke-width:4px;stroke:#343434;"/><path d="M111.397,112.21c-1.325,-4.364 -3.898,-7.034 -7.841,-7.841" style="fill:none;stroke-width:4px;stroke:#343434;"/></g><g><path d="M63.944,67.893l6.713,0l0.122,-0.001l0.113,-0.003l0.113,-0.005l0.112,-0.007l0.113,-0.009l0.112,-0.011l0.111,-0.012l0.112,-0.015l0.111,-0.017l0.111,-0.018l0.11,-0.021l0.111,-0.022l0.11,-0.024l0.11,-0.026l0.11,-0.028l0.11,-0.03l0.109,-0.032l0.109,-0.033l0.109,-0.036l0.109,-0.037l0.109,-0.039l0.108,-0.041l0.108,-0.042l0.108,-0.045l0.107,-0.046l0.108,-0.048l0.107,-0.05l0.106,-0.051l0.107,-0.054l0.106,-0.055l0.105,-0.057l0.106,-0.058l0.105,-0.06l0.104,-0.062l0.105,-0.064l0.103,-0.065l0.104,-0.067l0.103,-0.069l0.102,-0.07l0.102,-0.072l0.102,-0.074l0.101,-0.075l0.1,-0.076l0.1,-0.079l0.1,-0.079l0.098,-0.082l0.098,-0.083l0.098,-0.084l0.097,-0.086l0.096,-0.087l0.096,-0.089l0.095,-0.09l0.094,-0.091l0.093,-0.093l0.093,-0.094l0.092,-0.096l0.091,-0.096l0.091,-0.098l0.089,-0.1l0.089,-0.1l0.088,-0.102l0.087,-0.103l0.086,-0.104l0.085,-0.106l0.084,-0.106l0.084,-0.108l0.082,-0.108l0.082,-0.11l0.08,-0.111l0.08,-0.111l0.078,-0.113l0.077,-0.114l0.077,-0.114l0.075,-0.116l0.074,-0.116l0.073,-0.117l0.072,-0.118l0.071,-0.119l0.07,-0.119l0.069,-0.121l0.067,-0.121l0.066,-0.122l0.066,-0.122l0.063,-0.123l0.063,-0.124l0.061,-0.124l0.061,-0.125l0.059,-0.125l0.057,-0.126l0.057,-0.126l0.055,-0.127l0.054,-0.127l0.052,-0.128l0.051,-0.128l0.05,-0.128l0.048,-0.129l0.047,-0.129l0.046,-0.129l0.044,-0.129l0.043,-0.13l0.042,-0.13l0.04,-0.13l0.039,-0.13l0.037,-0.13l0.036,-0.13l0.034,-0.13l0.033,-0.131l0.031,-0.13l0.03,-0.13l0.029,-0.13l0.027,-0.13l0.025,-0.13l0.024,-0.13l0.023,-0.129l0.02,-0.13l0.02,-0.129l0.018,-0.129l0.016,-0.128l0.015,-0.128l0.013,-0.128l0.012,-0.127l0.01,-0.128l0.009,-0.126l0.007,-0.126l0.005,-0.126l0.004,-0.125l0.002,-0.125l0.001,-0.13l0,-4.643l0,-0.586l-0.002,-0.57l-0.002,-0.556l-0.004,-0.54l-0.004,-0.524l-0.005,-0.508l-0.005,-0.492l-0.006,-0.475l-0.014,-0.902l-0.015,-0.833l-0.016,-0.762l-0.016,-0.691l-0.015,-0.617l-0.004,-0.127l-2.655,0.024l-4.748,0.041l-5.443,0.046l-5.443,0.044l-2.504,0.019l-2.245,0.016l-1.898,0.011l-0.747,0.004l0,12.621l0.001,0.13l0.002,0.125l0.004,0.125l0.005,0.126l0.007,0.126l0.009,0.126l0.01,0.127l0.012,0.128l0.013,0.128l0.015,0.128l0.016,0.129l0.018,0.128l0.02,0.129l0.021,0.13l0.022,0.129l0.024,0.13l0.026,0.13l0.026,0.13l0.029,0.13l0.03,0.13l0.031,0.13l0.033,0.131l0.035,0.13l0.035,0.13l0.038,0.13l0.038,0.13l0.04,0.13l0.042,0.13l0.043,0.13l0.044,0.129l0.046,0.129l0.047,0.129l0.048,0.129l0.05,0.128l0.051,0.128l0.053,0.128l0.053,0.127l0.056,0.127l0.056,0.126l0.058,0.126l0.058,0.125l0.061,0.125l0.061,0.124l0.063,0.124l0.064,0.123l0.065,0.122l0.066,0.122l0.067,0.121l0.069,0.121l0.07,0.119l0.071,0.119l0.072,0.118l0.073,0.117l0.074,0.116l0.075,0.116l0.077,0.114l0.077,0.114l0.079,0.113l0.079,0.111l0.081,0.111l0.081,0.11l0.082,0.108l0.084,0.108l0.084,0.106l0.085,0.106l0.086,0.104l0.087,0.103l0.088,0.102l0.089,0.1l0.09,0.1l0.09,0.098l0.091,0.096l0.092,0.096l0.093,0.094l0.093,0.093l0.094,0.091l0.095,0.09l0.096,0.089l0.096,0.087l0.097,0.086l0.098,0.084l0.098,0.083l0.099,0.082l0.099,0.079l0.1,0.079l0.1,0.076l0.101,0.075l0.102,0.074l0.102,0.072l0.102,0.07l0.103,0.069l0.104,0.067l0.104,0.065l0.104,0.064l0.104,0.062l0.105,0.06l0.106,0.058l0.106,0.057l0.106,0.055l0.106,0.054l0.107,0.051l0.107,0.05l0.107,0.048l0.107,0.046l0.108,0.045l0.108,0.042l0.108,0.041l0.109,0.039l0.109,0.037l0.109,0.036l0.109,0.033l0.109,0.032l0.11,0.03l0.11,0.028l0.11,0.026l0.11,0.024l0.111,0.022l0.11,0.021l0.111,0.018l0.111,0.017l0.112,0.015l0.112,0.012l0.112,0.011l0.112,0.009l0.112,0.007l0.113,0.005l0.113,0.003l0.122,0.001ZM63.927,71.893l-0.176,-0.001l-0.184,-0.005l-0.183,-0.008l-0.183,-0.012l-0.182,-0.014l-0.181,-0.018l-0.18,-0.02l-0.18,-0.024l-0.179,-0.027l-0.178,-0.03l-0.177,-0.032l-0.176,-0.036l-0.175,-0.039l-0.175,-0.041l-0.173,-0.044l-0.173,-0.047l-0.171,-0.049l-0.17,-0.053l-0.169,-0.055l-0.168,-0.057l-0.168,-0.06l-0.165,-0.063l-0.165,-0.065l-0.164,-0.067l-0.162,-0.07l-0.162,-0.072l-0.16,-0.075l-0.159,-0.077l-0.157,-0.079l-0.157,-0.081l-0.155,-0.083l-0.154,-0.086l-0.153,-0.088l-0.152,-0.089l-0.15,-0.092l-0.149,-0.094l-0.148,-0.096l-0.146,-0.097l-0.146,-0.1l-0.144,-0.101l-0.142,-0.104l-0.141,-0.105l-0.141,-0.107l-0.138,-0.108l-0.138,-0.111l-0.136,-0.112l-0.135,-0.113l-0.133,-0.116l-0.132,-0.117l-0.131,-0.118l-0.13,-0.12l-0.128,-0.122l-0.126,-0.123l-0.126,-0.125l-0.124,-0.126l-0.123,-0.127l-0.121,-0.129l-0.12,-0.13l-0.119,-0.132l-0.117,-0.133l-0.116,-0.134l-0.114,-0.135l-0.113,-0.137l-0.112,-0.138l-0.11,-0.139l-0.109,-0.14l-0.107,-0.142l-0.106,-0.143l-0.104,-0.143l-0.103,-0.145l-0.102,-0.146l-0.1,-0.147l-0.099,-0.148l-0.097,-0.149l-0.096,-0.15l-0.094,-0.151l-0.093,-0.152l-0.091,-0.153l-0.09,-0.154l-0.088,-0.154l-0.087,-0.156l-0.085,-0.156l-0.083,-0.157l-0.082,-0.158l-0.081,-0.159l-0.079,-0.16l-0.077,-0.16l-0.076,-0.161l-0.074,-0.162l-0.072,-0.162l-0.071,-0.163l-0.069,-0.164l-0.068,-0.164l-0.066,-0.165l-0.064,-0.166l-0.063,-0.166l-0.06,-0.167l-0.06,-0.167l-0.057,-0.168l-0.056,-0.168l-0.054,-0.169l-0.052,-0.169l-0.05,-0.169l-0.049,-0.17l-0.047,-0.171l-0.045,-0.171l-0.043,-0.171l-0.042,-0.171l-0.039,-0.172l-0.038,-0.173l-0.036,-0.172l-0.033,-0.173l-0.032,-0.173l-0.03,-0.173l-0.029,-0.174l-0.026,-0.173l-0.024,-0.174l-0.022,-0.174l-0.02,-0.174l-0.018,-0.175l-0.016,-0.174l-0.014,-0.174l-0.012,-0.175l-0.01,-0.175l-0.007,-0.174l-0.006,-0.175l-0.003,-0.174l-0.001,-0.169l0,-16.649l0.392,-0.325l1.818,0.345l0.13,0.001l0.39,0l0.536,-0.001l1.458,-0.008l1.894,-0.011l2.242,-0.016l2.503,-0.019l5.442,-0.044l5.441,-0.046l4.747,-0.041l6.939,-0.062l0.76,2.174l-1.035,0.81l0.014,0.532l0.015,0.546l0.015,0.624l0.016,0.699l0.016,0.773l0.015,0.844l0.014,0.912l0.006,0.483l0.006,0.498l0.005,0.515l0.004,0.531l0.004,0.547l0.002,0.562l0.002,0.578l0,0.592l0,4.656l-0.001,0.169l-0.003,0.174l-0.006,0.175l-0.007,0.174l-0.01,0.175l-0.012,0.175l-0.014,0.174l-0.016,0.174l-0.018,0.175l-0.02,0.174l-0.022,0.174l-0.024,0.174l-0.026,0.173l-0.028,0.174l-0.03,0.173l-0.032,0.173l-0.034,0.173l-0.036,0.172l-0.038,0.173l-0.039,0.172l-0.042,0.171l-0.043,0.171l-0.045,0.171l-0.047,0.171l-0.048,0.17l-0.051,0.169l-0.052,0.169l-0.054,0.169l-0.056,0.168l-0.057,0.168l-0.059,0.167l-0.061,0.167l-0.063,0.166l-0.064,0.166l-0.066,0.165l-0.067,0.164l-0.07,0.164l-0.071,0.163l-0.072,0.162l-0.074,0.162l-0.076,0.161l-0.077,0.16l-0.079,0.16l-0.08,0.159l-0.082,0.158l-0.084,0.157l-0.085,0.156l-0.087,0.156l-0.088,0.154l-0.09,0.154l-0.091,0.153l-0.093,0.152l-0.094,0.151l-0.096,0.15l-0.097,0.149l-0.099,0.148l-0.1,0.147l-0.101,0.146l-0.103,0.145l-0.105,0.143l-0.106,0.143l-0.107,0.142l-0.109,0.14l-0.11,0.139l-0.112,0.138l-0.113,0.137l-0.114,0.135l-0.116,0.134l-0.117,0.133l-0.119,0.132l-0.12,0.13l-0.121,0.129l-0.123,0.127l-0.124,0.126l-0.125,0.125l-0.127,0.123l-0.128,0.122l-0.13,0.12l-0.131,0.118l-0.132,0.117l-0.133,0.115l-0.135,0.114l-0.136,0.112l-0.138,0.111l-0.138,0.108l-0.14,0.107l-0.142,0.105l-0.142,0.104l-0.144,0.101l-0.145,0.1l-0.147,0.097l-0.148,0.096l-0.149,0.094l-0.15,0.092l-0.152,0.089l-0.153,0.088l-0.154,0.086l-0.155,0.083l-0.156,0.081l-0.158,0.079l-0.159,0.077l-0.16,0.075l-0.161,0.072l-0.163,0.07l-0.164,0.067l-0.164,0.065l-0.166,0.063l-0.167,0.06l-0.168,0.057l-0.17,0.055l-0.17,0.053l-0.171,0.049l-0.173,0.047l-0.173,0.044l-0.174,0.041l-0.176,0.039l-0.176,0.036l-0.177,0.032l-0.178,0.03l-0.179,0.027l-0.18,0.024l-0.18,0.02l-0.181,0.018l-0.182,0.014l-0.183,0.012l-0.183,0.008l-0.184,0.005l-0.175,0.001l-6.748,0Z" style="fill:#343434;"/><g><path d="M63.555,70.198l0,16.979" style="fill:none;stroke-width:3.5px;stroke:#343434;"/><path d="M71.133,70.198l0,16.979" style="fill:none;stroke-width:3.5px;stroke:#343434;"/><path d="M53.359,95.871l9.841,-8.806l8.201,0l9.841,8.806l-27.883,0ZM61.21,92.871l12.181,0l-3.136,-2.806l-5.909,0l-3.136,2.806Z" style="fill:#343434;"/></g></g><path d="M38.128,48.241l-7.525,15.838l10.047,-3.201l-6.555,17.694l10.144,-3.77l-5.449,17.481" style="fill:none;stroke-width:3px;stroke-linecap:round;stroke:#343434;"/><path d="M97.063,48.241l7.524,15.838l-10.047,-3.201l6.555,17.694l-10.143,-3.77l5.448,17.481" style="fill:none;stroke-width:3px;stroke-linecap:round;stroke:#343434;"/></g></svg>