<?xml version="1.0" standalone="no"?><!DOCTYPE svg PUBLIC "-//W3C//DTD SVG 1.1//EN" "http://www.w3.org/Graphics/SVG/1.1/DTD/svg11.dtd"><svg width="100%" height="100%" viewBox="0 0 133 133" version="1.1" xmlns="http://www.w3.org/2000/svg" xmlns:xlink="http://www.w3.org/1999/xlink" xml:space="preserve" style="fill-rule:evenodd;clip-rule:evenodd;stroke-linejoin:round;stroke-miterlimit:1.41421;"><g id="Layer1"><g><g><circle cx="66.5" cy="66.5" r="50.576" style="fill:none;stroke-width:4.5px;stroke-linecap:square;stroke:#4e0100;"/><circle cx="66.5" cy="66.5" r="63.836" style="fill:none;stroke-width:4.5px;stroke-linecap:square;stroke:#4e0100;"/></g><g><path d="M66.959,14.734c2.149,-4.024 2.217,-7.731 0,-11.09" style="fill:none;stroke-width:4.5px;stroke-linecap:square;stroke:#4e0100;"/><path d="M66.959,129.221c2.149,-4.023 2.217,-7.73 0,-11.09" style="fill:none;stroke-width:4.5px;stroke-linecap:square;stroke:#4e0100;"/></g><g><path d="M118.476,65.614c4.024,2.149 7.731,2.217 11.09,0" style="fill:none;stroke-width:4.5px;stroke-linecap:square;stroke:#4e0100;"/><path d="M3.989,65.614c4.023,2.149 7.73,2.217 11.09,0" style="fill:none;stroke-width:4.5px;stroke-linecap:square;stroke:#4e0100;"/></g><g><path d="M102.755,29.297c4.365,-1.325 7.034,-3.898 7.842,-7.841" style="fill:none;stroke-width:4.5px;stroke-linecap:square;stroke:#4e0100;"/><path d="M21.8,110.252c4.365,-1.326 7.034,-3.899 7.842,-7.842" style="fill:none;stroke-width:4.5px;stroke-linecap:square;stroke:#4e0100;"/></g><g><path d="M29.642,30.455c-1.326,-4.364 -3.899,-7.034 -7.842,-7.842" style="fill:none;stroke-width:4.5px;stroke-linecap:square;stroke:#4e0100;"/><path d="M110.597,111.41c-1.326,-4.365 -3.899,-7.034 -7.842,-7.842" style="fill:none;stroke-width:4.5px;stroke-linecap:square;stroke:#4e0100;"/></g><g><path d="M63.145,66.843l6.71,0l0.119,-0.001l0.109,-0.003l0.108,-0.005l0.108,-0.007l0.108,-0.008l0.108,-0.011l0.107,-0.012l0.107,-0.014l0.107,-0.016l0.107,-0.018l0.106,-0.02l0.107,-0.021l0.106,-0.024l0.106,-0.025l0.106,-0.027l0.106,-0.028l0.105,-0.031l0.106,-0.032l0.105,-0.034l0.105,-0.036l0.105,-0.038l0.104,-0.04l0.105,-0.041l0.104,-0.043l0.104,-0.045l0.104,-0.046l0.104,-0.048l0.103,-0.05l0.103,-0.052l0.103,-0.053l0.103,-0.056l0.102,-0.056l0.102,-0.059l0.102,-0.06l0.101,-0.062l0.101,-0.064l0.101,-0.065l0.1,-0.067l0.1,-0.068l0.099,-0.07l0.099,-0.072l0.099,-0.073l0.098,-0.075l0.097,-0.076l0.097,-0.078l0.097,-0.079l0.096,-0.081l0.095,-0.083l0.095,-0.084l0.094,-0.085l0.093,-0.086l0.093,-0.089l0.092,-0.089l0.092,-0.091l0.09,-0.092l0.09,-0.094l0.09,-0.094l0.088,-0.096l0.088,-0.098l0.087,-0.098l0.086,-0.1l0.085,-0.101l0.085,-0.102l0.083,-0.104l0.083,-0.104l0.082,-0.105l0.081,-0.107l0.08,-0.108l0.079,-0.108l0.077,-0.11l0.077,-0.11l0.076,-0.112l0.075,-0.112l0.074,-0.114l0.073,-0.114l0.072,-0.115l0.071,-0.116l0.069,-0.117l0.069,-0.117l0.067,-0.118l0.067,-0.119l0.065,-0.12l0.064,-0.12l0.062,-0.121l0.062,-0.121l0.06,-0.122l0.059,-0.123l0.058,-0.123l0.057,-0.124l0.055,-0.124l0.054,-0.124l0.053,-0.125l0.052,-0.125l0.05,-0.126l0.049,-0.126l0.047,-0.126l0.047,-0.127l0.044,-0.127l0.044,-0.127l0.042,-0.127l0.041,-0.127l0.039,-0.128l0.038,-0.127l0.037,-0.128l0.035,-0.128l0.033,-0.127l0.033,-0.128l0.03,-0.128l0.03,-0.127l0.028,-0.128l0.026,-0.127l0.025,-0.127l0.023,-0.127l0.022,-0.127l0.021,-0.127l0.019,-0.126l0.017,-0.126l0.016,-0.126l0.015,-0.125l0.013,-0.125l0.011,-0.124l0.01,-0.125l0.009,-0.123l0.006,-0.123l0.006,-0.123l0.004,-0.122l0.002,-0.122l0.001,-0.128l0,-4.641l-0.001,-0.586l-0.001,-0.57l-0.003,-0.555l-0.003,-0.539l-0.004,-0.524l-0.005,-0.508l-0.006,-0.492l-0.006,-0.474l-0.014,-0.901l-0.015,-0.833l-0.015,-0.761l-0.016,-0.69l-0.013,-0.498l-2.409,0.021l-4.748,0.041l-5.443,0.046l-5.443,0.044l-2.505,0.019l-2.245,0.016l-1.899,0.012l-0.498,0.002l0,12.371l0.001,0.128l0.002,0.122l0.004,0.122l0.006,0.123l0.006,0.123l0.009,0.123l0.01,0.124l0.011,0.125l0.013,0.125l0.015,0.125l0.016,0.126l0.017,0.126l0.019,0.126l0.021,0.127l0.022,0.127l0.023,0.127l0.025,0.127l0.026,0.127l0.028,0.128l0.03,0.127l0.03,0.128l0.033,0.128l0.033,0.127l0.035,0.128l0.037,0.128l0.038,0.127l0.039,0.128l0.041,0.127l0.042,0.127l0.044,0.127l0.044,0.127l0.047,0.127l0.047,0.126l0.049,0.126l0.05,0.126l0.052,0.125l0.053,0.125l0.054,0.124l0.055,0.125l0.057,0.123l0.058,0.123l0.059,0.123l0.06,0.122l0.062,0.121l0.062,0.121l0.064,0.12l0.065,0.12l0.067,0.119l0.067,0.118l0.069,0.117l0.069,0.117l0.071,0.116l0.072,0.115l0.073,0.114l0.074,0.114l0.075,0.112l0.076,0.112l0.077,0.11l0.078,0.11l0.078,0.108l0.08,0.108l0.081,0.107l0.082,0.105l0.083,0.104l0.083,0.104l0.085,0.102l0.085,0.101l0.086,0.1l0.087,0.098l0.088,0.098l0.088,0.096l0.09,0.094l0.09,0.094l0.09,0.092l0.092,0.091l0.092,0.089l0.093,0.089l0.093,0.086l0.094,0.086l0.095,0.083l0.095,0.083l0.096,0.081l0.097,0.079l0.097,0.078l0.097,0.076l0.098,0.075l0.099,0.073l0.099,0.072l0.099,0.07l0.1,0.068l0.1,0.067l0.101,0.065l0.101,0.064l0.101,0.062l0.102,0.06l0.102,0.059l0.102,0.056l0.103,0.056l0.103,0.053l0.103,0.052l0.103,0.05l0.104,0.048l0.104,0.046l0.104,0.045l0.104,0.043l0.105,0.041l0.104,0.04l0.105,0.038l0.105,0.036l0.105,0.034l0.106,0.032l0.105,0.031l0.106,0.028l0.106,0.027l0.106,0.025l0.106,0.024l0.107,0.021l0.106,0.02l0.107,0.018l0.107,0.016l0.107,0.014l0.107,0.012l0.108,0.011l0.108,0.008l0.108,0.007l0.108,0.005l0.109,0.003l0.119,0.001ZM63.125,71.343l-0.179,-0.002l-0.188,-0.005l-0.188,-0.008l-0.187,-0.012l-0.186,-0.015l-0.186,-0.018l-0.185,-0.021l-0.183,-0.024l-0.184,-0.028l-0.182,-0.03l-0.181,-0.034l-0.18,-0.036l-0.18,-0.039l-0.178,-0.043l-0.177,-0.045l-0.177,-0.048l-0.175,-0.05l-0.174,-0.054l-0.173,-0.056l-0.172,-0.059l-0.17,-0.061l-0.17,-0.064l-0.168,-0.066l-0.167,-0.069l-0.166,-0.072l-0.165,-0.073l-0.164,-0.076l-0.162,-0.079l-0.161,-0.08l-0.159,-0.083l-0.159,-0.086l-0.157,-0.087l-0.156,-0.089l-0.154,-0.092l-0.153,-0.093l-0.152,-0.096l-0.151,-0.097l-0.149,-0.1l-0.148,-0.101l-0.146,-0.104l-0.146,-0.105l-0.144,-0.107l-0.142,-0.109l-0.141,-0.11l-0.14,-0.112l-0.138,-0.114l-0.138,-0.116l-0.135,-0.117l-0.135,-0.119l-0.133,-0.121l-0.131,-0.122l-0.13,-0.123l-0.129,-0.125l-0.128,-0.127l-0.126,-0.128l-0.124,-0.129l-0.124,-0.131l-0.121,-0.132l-0.121,-0.134l-0.119,-0.135l-0.117,-0.136l-0.116,-0.138l-0.115,-0.138l-0.113,-0.14l-0.112,-0.141l-0.111,-0.143l-0.109,-0.143l-0.107,-0.145l-0.106,-0.146l-0.105,-0.147l-0.103,-0.148l-0.101,-0.149l-0.1,-0.15l-0.099,-0.151l-0.097,-0.152l-0.095,-0.153l-0.094,-0.154l-0.093,-0.155l-0.091,-0.156l-0.089,-0.157l-0.088,-0.158l-0.087,-0.158l-0.084,-0.16l-0.083,-0.16l-0.082,-0.161l-0.08,-0.162l-0.078,-0.162l-0.077,-0.163l-0.075,-0.164l-0.074,-0.165l-0.072,-0.165l-0.07,-0.166l-0.068,-0.167l-0.067,-0.167l-0.065,-0.168l-0.064,-0.169l-0.061,-0.169l-0.06,-0.169l-0.059,-0.17l-0.056,-0.171l-0.055,-0.171l-0.053,-0.172l-0.051,-0.172l-0.049,-0.173l-0.048,-0.172l-0.046,-0.174l-0.043,-0.174l-0.043,-0.174l-0.04,-0.174l-0.038,-0.175l-0.036,-0.175l-0.035,-0.176l-0.032,-0.175l-0.031,-0.176l-0.028,-0.177l-0.027,-0.176l-0.024,-0.177l-0.023,-0.177l-0.02,-0.177l-0.018,-0.177l-0.017,-0.177l-0.014,-0.178l-0.012,-0.177l-0.01,-0.178l-0.008,-0.177l-0.005,-0.178l-0.004,-0.178l-0.001,-0.17l0,-16.903l0.441,-0.365l2.044,0.388l0.106,0l0.389,0l0.535,-0.001l1.458,-0.007l1.894,-0.012l2.242,-0.016l2.503,-0.019l5.441,-0.043l5.441,-0.046l4.747,-0.042l7.228,-0.064l0.855,2.445l-1.164,0.911l0.011,0.406l0.015,0.546l0.015,0.625l0.017,0.699l0.016,0.774l0.015,0.844l0.014,0.913l0.006,0.483l0.005,0.499l0.005,0.515l0.005,0.532l0.003,0.547l0.003,0.563l0.001,0.578l0.001,0.592l0,4.658l-0.001,0.17l-0.004,0.178l-0.005,0.178l-0.008,0.177l-0.01,0.178l-0.012,0.177l-0.014,0.178l-0.017,0.177l-0.018,0.177l-0.02,0.177l-0.023,0.177l-0.024,0.177l-0.027,0.176l-0.028,0.177l-0.031,0.176l-0.032,0.175l-0.035,0.176l-0.036,0.175l-0.038,0.175l-0.04,0.174l-0.043,0.174l-0.043,0.174l-0.046,0.174l-0.048,0.173l-0.049,0.172l-0.051,0.172l-0.053,0.172l-0.055,0.171l-0.056,0.171l-0.059,0.17l-0.06,0.169l-0.061,0.169l-0.064,0.169l-0.065,0.168l-0.067,0.167l-0.068,0.167l-0.07,0.166l-0.072,0.165l-0.074,0.165l-0.075,0.164l-0.077,0.163l-0.078,0.162l-0.08,0.162l-0.082,0.161l-0.083,0.16l-0.085,0.16l-0.086,0.158l-0.088,0.158l-0.089,0.157l-0.091,0.156l-0.093,0.155l-0.094,0.154l-0.095,0.153l-0.097,0.152l-0.099,0.151l-0.1,0.15l-0.101,0.149l-0.103,0.148l-0.105,0.147l-0.106,0.146l-0.107,0.145l-0.109,0.143l-0.111,0.143l-0.112,0.141l-0.113,0.14l-0.115,0.138l-0.116,0.138l-0.117,0.136l-0.119,0.135l-0.121,0.134l-0.121,0.132l-0.124,0.131l-0.124,0.129l-0.126,0.128l-0.128,0.127l-0.129,0.125l-0.13,0.123l-0.131,0.122l-0.133,0.121l-0.135,0.119l-0.135,0.117l-0.138,0.116l-0.138,0.114l-0.14,0.112l-0.141,0.11l-0.142,0.109l-0.144,0.107l-0.146,0.105l-0.146,0.104l-0.148,0.101l-0.149,0.1l-0.151,0.097l-0.152,0.096l-0.153,0.093l-0.154,0.092l-0.156,0.089l-0.157,0.087l-0.159,0.086l-0.159,0.083l-0.161,0.08l-0.162,0.079l-0.164,0.076l-0.165,0.073l-0.166,0.072l-0.167,0.069l-0.168,0.066l-0.17,0.064l-0.17,0.061l-0.172,0.059l-0.173,0.056l-0.174,0.054l-0.175,0.05l-0.177,0.048l-0.177,0.045l-0.178,0.043l-0.18,0.039l-0.18,0.036l-0.181,0.034l-0.182,0.03l-0.184,0.028l-0.183,0.024l-0.185,0.021l-0.186,0.018l-0.186,0.015l-0.187,0.012l-0.188,0.008l-0.188,0.005l-0.179,0.002l-6.75,0Z" style="fill:#4e0100;"/><g><path d="M62.755,69.397l0,16.98" style="fill:none;stroke-width:4.5px;stroke-linecap:square;stroke:#4e0100;"/><path d="M70.332,69.397l0,16.98" style="fill:none;stroke-width:4.5px;stroke-linecap:square;stroke:#4e0100;"/><path d="M52.558,95.071l9.841,-8.807l8.202,0l9.841,8.807l-27.884,0Z" style="fill:#4e0100;"/></g></g><path d="M37.327,47.441l-7.524,15.837l10.046,-3.2l-6.554,17.693l10.143,-3.77l-5.448,17.481" style="fill:none;stroke-width:4.5px;stroke-linecap:round;stroke:#4e0100;"/><path d="M96.262,47.441l7.525,15.837l-10.047,-3.2l6.555,17.693l-10.144,-3.77l5.449,17.481" style="fill:none;stroke-width:4.5px;stroke-linecap:round;stroke:#4e0100;"/></g></g></svg>