<?xml version="1.0" standalone="no"?><!DOCTYPE svg PUBLIC "-//W3C//DTD SVG 1.1//EN" "http://www.w3.org/Graphics/SVG/1.1/DTD/svg11.dtd"><svg width="100%" height="100%" viewBox="0 0 200 128" version="1.1" xmlns="http://www.w3.org/2000/svg" xmlns:xlink="http://www.w3.org/1999/xlink" xml:space="preserve" style="fill-rule:evenodd;clip-rule:evenodd;stroke-linejoin:round;stroke-miterlimit:1.41421;"><g><rect x="17.044" y="107.783" width="64.498" height="1.008" style="fill:#c6d1fb;fill-rule:nonzero;"/><rect x="17.044" y="112.736" width="64.498" height="1.008" style="fill:#c6d1fb;fill-rule:nonzero;"/><rect x="55.043" y="80.033" width="26.498" height="1.008" style="fill:#c6d1fb;fill-rule:nonzero;"/><rect x="55.043" y="84.985" width="26.498" height="1.008" style="fill:#c6d1fb;fill-rule:nonzero;"/><rect x="55.043" y="89.89" width="26.498" height="1.008" style="fill:#c6d1fb;fill-rule:nonzero;"/><rect x="55.043" y="94.342" width="26.498" height="1.008" style="fill:#c6d1fb;fill-rule:nonzero;"/><rect x="55.043" y="99.294" width="26.498" height="1.008" style="fill:#c6d1fb;fill-rule:nonzero;"/><rect x="17.044" y="80.033" width="26.498" height="1.008" style="fill:#c6d1fb;fill-rule:nonzero;"/><rect x="17.044" y="84.985" width="26.498" height="1.008" style="fill:#c6d1fb;fill-rule:nonzero;"/><rect x="17.044" y="89.89" width="26.498" height="1.008" style="fill:#c6d1fb;fill-rule:nonzero;"/><rect x="17.044" y="94.342" width="26.498" height="1.008" style="fill:#c6d1fb;fill-rule:nonzero;"/><rect x="17.044" y="99.294" width="26.498" height="1.008" style="fill:#c6d1fb;fill-rule:nonzero;"/><path d="M200,127.53c0,0 -33.821,0 -50.731,0l0,-3.023l47.708,0l0,-81.409l-57.028,0l0,52.38l-3.023,0l0,-55.403l63.074,0c0,29.152 0,58.303 0,87.455Z" style="fill:#042ff1;fill-rule:nonzero;"/><path d="M173.987,53.094l-11.659,23.317l23.317,0l-11.658,-23.317Z" style="fill:#c6d1fb;"/><path d="M159.677,59.903l-8.254,16.508l16.508,0l-8.254,-16.508Z" style="fill:#dae0fa;"/><rect x="147.395" y="85.829" width="41.471" height="2.015" style="fill:#7e94f8;fill-rule:nonzero;"/><rect x="156.104" y="93.647" width="32.628" height="1.008" style="fill:#c6d1fb;fill-rule:nonzero;"/><rect x="156.104" y="98.599" width="32.628" height="1.008" style="fill:#c6d1fb;fill-rule:nonzero;"/><rect x="156.104" y="103.504" width="32.628" height="1.008" style="fill:#c6d1fb;fill-rule:nonzero;"/><rect x="156.104" y="107.955" width="32.628" height="1.008" style="fill:#c6d1fb;fill-rule:nonzero;"/><rect x="156.104" y="112.908" width="32.628" height="1.008" style="fill:#c6d1fb;fill-rule:nonzero;"/><rect x="17.044" y="14.459" width="64.498" height="5.038" style="fill:#7e94f8;fill-rule:nonzero;"/><path d="M150.78,127.53l-63.074,0l0,-33.564l63.074,0c0,11.188 0,22.376 0,33.564ZM90.729,96.989l0,27.518l57.028,0l0,-27.518c-19.009,0 -38.018,0 -57.028,0Z" style="fill:#042ff1;fill-rule:nonzero;"/><rect x="101.684" y="105.664" width="35.958" height="5.038" style="fill:#7e94f8;fill-rule:nonzero;"/><rect x="103.995" y="114.753" width="31.335" height="1.008" style="fill:#c6d1fb;fill-rule:nonzero;"/><path d="M57.385,25.587l-17.303,34.605l34.605,0l-17.302,-34.605Z" style="fill:#c6d1fb;"/><path d="M36.148,35.692l-12.25,24.5l24.5,0l-12.25,-24.5Z" style="fill:#dae0fa;"/><rect x="1.237" y="71.171" width="95.177" height="1.008" style="fill:#c6d1fb;fill-rule:nonzero;"/><path d="M98.194,96.989l-7.465,0l0,30.541l-90.729,0l0,-127.53l98.194,0c0,32.33 0,64.66 0,96.989ZM3.023,3.023l0,121.484l84.683,0l0,-30.541l7.465,0l0,-90.943c-30.716,0 -61.432,0 -92.148,0Z" style="fill:#042ff1;fill-rule:nonzero;"/></g></svg>