<?xml version="1.0" standalone="no"?><!DOCTYPE svg PUBLIC "-//W3C//DTD SVG 1.1//EN" "http://www.w3.org/Graphics/SVG/1.1/DTD/svg11.dtd"><svg width="100%" height="100%" viewBox="0 0 87 53" version="1.1" xmlns="http://www.w3.org/2000/svg" xmlns:xlink="http://www.w3.org/1999/xlink" xml:space="preserve" style="fill-rule:evenodd;clip-rule:evenodd;stroke-linejoin:round;stroke-miterlimit:1.41421;"><g><rect x="0.454" y="30.251" width="22.956" height="1.5" style="fill:#042ff1;fill-rule:nonzero;"/><rect x="63.612" y="30.251" width="22.956" height="1.5" style="fill:#042ff1;fill-rule:nonzero;"/><path d="M0.7,23.714l0,-2.033l2.778,-0.643l7.724,-20.869l3.388,-0.169l7.52,21.038l2.812,0.643l0,2.033l-9.824,0l0,-2.033l3.15,-0.643l-1.287,-3.761l-8.808,0l-1.321,3.761l3.184,0.643l0,2.033l-9.316,0ZM12.625,4.37l-3.557,10.197l6.978,0l-3.421,-10.197Z" style="fill:#042ff1;fill-rule:nonzero;"/><path d="M26.447,23.714l0,-2.033l2.879,-0.677l0,-18.294l-2.879,-0.677l0,-1.864l6.436,-0.169l3.727,0c2.394,0 4.263,0.542 5.606,1.626c1.344,1.084 2.016,2.575 2.016,4.472c0,3.32 -1.468,5.522 -4.404,6.606c0.542,0.474 1.22,1.49 2.033,3.049l2.676,5.386l2.405,0.542l0,2.033l-5.081,0l-2.88,-6.267c-0.79,-1.694 -1.474,-2.795 -2.049,-3.303c-0.576,-0.509 -1.418,-0.763 -2.524,-0.763l-1.525,0l0,7.623l2.88,0.677l0,2.033l-9.316,0ZM32.883,2.71l0,8.131l2.541,0c1.649,0 2.936,-0.373 3.862,-1.118c0.926,-0.746 1.389,-1.728 1.389,-2.948c0,-1.242 -0.395,-2.23 -1.186,-2.964c-0.79,-0.734 -1.807,-1.101 -3.049,-1.101l-3.557,0Z" style="fill:#042ff1;fill-rule:nonzero;"/><path d="M61.848,21.681l0,2.033l-10.332,0l0,-2.033l3.387,-0.677l0,-18.294l-4.404,0l-0.847,3.388l-2.202,0l0,-6.098l18.463,0l0,6.098l-2.202,0l-0.847,-3.388l-4.404,0l0,18.294l3.388,0.677Z" style="fill:#042ff1;fill-rule:nonzero;"/><path d="M82.005,2.71l-7.284,0l0,7.284l7.792,0l0,2.71l-7.792,0l0,8.3l7.792,0l0.678,-3.388l2.202,0l0,6.098l-17.108,0l0,-2.033l2.879,-0.677l0,-18.294l-2.879,-0.677l0,-1.864l6.436,-0.169l10.333,0l0,5.759l-2.202,0l-0.847,-3.049Z" style="fill:#042ff1;fill-rule:nonzero;"/><path d="M1.011,42.063l0.223,1.17c0.134,0.075 0.316,0.14 0.546,0.195c0.231,0.056 0.458,0.084 0.681,0.084c0.223,0 0.438,-0.028 0.646,-0.084c0.208,-0.055 0.391,-0.135 0.547,-0.239c0.156,-0.104 0.28,-0.229 0.373,-0.374c0.093,-0.145 0.14,-0.31 0.14,-0.496c0,-0.216 -0.06,-0.396 -0.179,-0.541c-0.119,-0.145 -0.273,-0.271 -0.463,-0.379c-0.189,-0.108 -0.403,-0.202 -0.641,-0.284c-0.238,-0.082 -0.479,-0.168 -0.724,-0.257c-0.261,-0.111 -0.511,-0.225 -0.753,-0.34c-0.242,-0.115 -0.457,-0.256 -0.647,-0.424c-0.189,-0.167 -0.34,-0.369 -0.451,-0.607c-0.112,-0.238 -0.168,-0.532 -0.168,-0.881c0,-0.372 0.073,-0.695 0.218,-0.97c0.145,-0.275 0.338,-0.502 0.58,-0.68c0.241,-0.179 0.524,-0.311 0.847,-0.396c0.323,-0.086 0.663,-0.128 1.02,-0.128c0.164,0 0.339,0.011 0.524,0.033c0.186,0.022 0.368,0.05 0.547,0.084c0.178,0.033 0.345,0.07 0.501,0.111c0.157,0.041 0.29,0.076 0.402,0.106l0.357,0.112l-0.056,1.895l-0.725,0l-0.379,-1.193c-0.208,-0.067 -0.414,-0.115 -0.619,-0.145c-0.204,-0.03 -0.414,-0.044 -0.63,-0.044c-0.215,0 -0.41,0.027 -0.585,0.083c-0.175,0.056 -0.324,0.132 -0.446,0.229c-0.123,0.096 -0.218,0.204 -0.285,0.323c-0.066,0.119 -0.1,0.242 -0.1,0.368c0.008,0.312 0.112,0.558 0.312,0.736c0.201,0.178 0.45,0.331 0.747,0.457c0.298,0.127 0.619,0.245 0.965,0.357c0.346,0.111 0.665,0.251 0.959,0.418c0.293,0.167 0.539,0.385 0.736,0.652c0.197,0.268 0.295,0.617 0.295,1.049c0,0.386 -0.074,0.728 -0.223,1.025c-0.148,0.298 -0.353,0.549 -0.613,0.753c-0.26,0.204 -0.569,0.361 -0.926,0.468c-0.356,0.108 -0.739,0.162 -1.148,0.162c-0.164,0 -0.34,-0.011 -0.53,-0.033c-0.189,-0.023 -0.375,-0.051 -0.557,-0.084c-0.182,-0.034 -0.351,-0.071 -0.507,-0.112c-0.157,-0.04 -0.287,-0.08 -0.391,-0.117l-0.312,-0.111l0,-1.951l0.892,0Z" style="fill:#042ff1;fill-rule:nonzero;"/><path d="M11.86,38.874l-0.301,-1.272c-0.401,-0.148 -0.877,-0.223 -1.427,-0.223c-0.758,0 -1.338,0.275 -1.739,0.826c-0.402,0.55 -0.603,1.319 -0.603,2.308c0,0.996 0.218,1.735 0.653,2.219c0.435,0.483 1.016,0.724 1.745,0.724c0.163,0 0.34,-0.018 0.529,-0.055c0.19,-0.038 0.374,-0.091 0.552,-0.162c0.179,-0.071 0.342,-0.145 0.491,-0.223c0.149,-0.078 0.271,-0.154 0.368,-0.229l0.29,-0.223l0.446,0.725c-0.164,0.164 -0.351,0.316 -0.563,0.457c-0.212,0.141 -0.439,0.266 -0.68,0.374c-0.242,0.108 -0.493,0.191 -0.753,0.251c-0.26,0.059 -0.524,0.089 -0.792,0.089c-1.137,0 -2.016,-0.329 -2.637,-0.987c-0.62,-0.658 -0.931,-1.619 -0.931,-2.882c0,-0.632 0.088,-1.205 0.262,-1.717c0.175,-0.513 0.426,-0.95 0.753,-1.311c0.327,-0.36 0.719,-0.639 1.176,-0.836c0.457,-0.197 0.972,-0.295 1.545,-0.295c0.171,0 0.358,0.013 0.563,0.039c0.204,0.026 0.405,0.061 0.602,0.106c0.197,0.044 0.383,0.091 0.557,0.139c0.175,0.048 0.318,0.095 0.43,0.139l0.356,0.134l-0.055,1.885l-0.837,0Z" style="fill:#042ff1;fill-rule:nonzero;"/><path d="M16.934,43.679l0,0.669l-3.178,0l0,-0.669l0.948,-0.223l0,-6.021l-0.948,-0.223l0,-0.613l3.178,-0.056l0,0.669l-1.06,0.223l0,2.453l3.736,0l0,-2.453l-1.059,-0.223l0,-0.613l3.177,-0.056l0,0.669l-0.947,0.223l0,6.021l0.947,0.223l0,0.669l-3.177,0l0,-0.669l1.059,-0.223l0,-2.676l-3.736,0l0,2.676l1.06,0.223Z" style="fill:#042ff1;fill-rule:nonzero;"/><path d="M22.899,40.535c0,-0.624 0.084,-1.189 0.251,-1.695c0.167,-0.505 0.411,-0.938 0.73,-1.299c0.32,-0.36 0.701,-0.635 1.143,-0.825c0.443,-0.19 0.935,-0.284 1.478,-0.284c0.542,0 1.029,0.091 1.46,0.273c0.432,0.182 0.798,0.444 1.099,0.786c0.301,0.342 0.529,0.754 0.685,1.238c0.157,0.483 0.235,1.025 0.235,1.628c0,0.602 -0.09,1.154 -0.268,1.655c-0.178,0.502 -0.429,0.933 -0.753,1.294c-0.323,0.36 -0.711,0.643 -1.165,0.847c-0.453,0.205 -0.955,0.307 -1.505,0.307c-1.093,0 -1.931,-0.338 -2.515,-1.015c-0.583,-0.676 -0.875,-1.646 -0.875,-2.91ZM26.467,37.379c-1.524,0 -2.286,1.023 -2.286,3.067c0,2.044 0.725,3.066 2.175,3.066c0.743,0 1.319,-0.26 1.728,-0.78c0.409,-0.521 0.613,-1.301 0.613,-2.342c0,-2.007 -0.743,-3.011 -2.23,-3.011Z" style="fill:#042ff1;fill-rule:nonzero;"/><path d="M31.373,40.535c0,-0.624 0.084,-1.189 0.251,-1.695c0.168,-0.505 0.411,-0.938 0.731,-1.299c0.319,-0.36 0.7,-0.635 1.143,-0.825c0.442,-0.19 0.934,-0.284 1.477,-0.284c0.543,0 1.029,0.091 1.461,0.273c0.431,0.182 0.797,0.444 1.098,0.786c0.301,0.342 0.53,0.754 0.686,1.238c0.156,0.483 0.234,1.025 0.234,1.628c0,0.602 -0.089,1.154 -0.268,1.655c-0.178,0.502 -0.429,0.933 -0.752,1.294c-0.324,0.36 -0.712,0.643 -1.166,0.847c-0.453,0.205 -0.955,0.307 -1.505,0.307c-1.093,0 -1.931,-0.338 -2.514,-1.015c-0.584,-0.676 -0.876,-1.646 -0.876,-2.91ZM34.941,37.379c-1.523,0 -2.285,1.023 -2.285,3.067c0,2.044 0.724,3.066 2.174,3.066c0.743,0 1.319,-0.26 1.728,-0.78c0.409,-0.521 0.614,-1.301 0.614,-2.342c0,-2.007 -0.744,-3.011 -2.231,-3.011Z" style="fill:#042ff1;fill-rule:nonzero;"/><path d="M41.687,37.435l0,6.021l2.286,0l0.223,-1.282l0.781,0l0,2.174l-5.408,0l0,-0.669l0.948,-0.223l0,-6.021l-0.948,-0.223l0,-0.613l3.066,-0.056l0,0.669l-0.948,0.223Z" style="fill:#042ff1;fill-rule:nonzero;"/><path d="M48.433,40.535c0,-0.624 0.084,-1.189 0.251,-1.695c0.168,-0.505 0.411,-0.938 0.731,-1.299c0.319,-0.36 0.7,-0.635 1.143,-0.825c0.442,-0.19 0.934,-0.284 1.477,-0.284c0.543,0 1.029,0.091 1.461,0.273c0.431,0.182 0.797,0.444 1.098,0.786c0.301,0.342 0.53,0.754 0.686,1.238c0.156,0.483 0.234,1.025 0.234,1.628c0,0.602 -0.089,1.154 -0.268,1.655c-0.178,0.502 -0.429,0.933 -0.752,1.294c-0.324,0.36 -0.712,0.643 -1.166,0.847c-0.453,0.205 -0.955,0.307 -1.505,0.307c-1.093,0 -1.931,-0.338 -2.514,-1.015c-0.584,-0.676 -0.876,-1.646 -0.876,-2.91ZM52.001,37.379c-1.523,0 -2.285,1.023 -2.285,3.067c0,2.044 0.724,3.066 2.174,3.066c0.743,0 1.319,-0.26 1.728,-0.78c0.409,-0.521 0.614,-1.301 0.614,-2.342c0,-2.007 -0.744,-3.011 -2.231,-3.011Z" style="fill:#042ff1;fill-rule:nonzero;"/><path d="M61.2,37.435l-2.397,0l0,2.509l2.565,0l0,0.892l-2.565,0l0,2.62l1.115,0.223l0,0.669l-3.233,0l0,-0.669l0.947,-0.223l0,-6.021l-0.947,-0.223l0,-0.613l2.118,-0.056l3.401,0l0,1.84l-0.725,0l-0.279,-0.948Z" style="fill:#042ff1;fill-rule:nonzero;"/><path d="M65.326,44.348l0,-0.669l0.914,-0.212l2.543,-6.868l1.115,-0.056l2.475,6.924l0.926,0.212l0,0.669l-3.234,0l0,-0.669l1.037,-0.212l-0.424,-1.237l-2.899,0l-0.435,1.237l1.048,0.212l0,0.669l-3.066,0ZM69.251,37.982l-1.171,3.356l2.297,0l-1.126,-3.356Z" style="fill:#042ff1;fill-rule:nonzero;"/><path d="M73.856,44.348l0,-0.669l0.948,-0.223l0,-6.021l-0.948,-0.223l0,-0.613l2.119,-0.056l1.226,0c0.788,0 1.403,0.179 1.846,0.535c0.442,0.357 0.663,0.848 0.663,1.472c0,1.093 -0.483,1.818 -1.45,2.174c0.179,0.157 0.402,0.491 0.669,1.004l0.881,1.773l0.792,0.178l0,0.669l-1.673,0l-0.947,-2.062c-0.26,-0.558 -0.485,-0.92 -0.675,-1.088c-0.189,-0.167 -0.466,-0.251 -0.831,-0.251l-0.501,0l0,2.509l0.947,0.223l0,0.669l-3.066,0ZM75.975,37.435l0,2.676l0.836,0c0.543,0 0.966,-0.122 1.271,-0.368c0.305,-0.245 0.457,-0.568 0.457,-0.97c0,-0.409 -0.13,-0.734 -0.39,-0.975c-0.26,-0.242 -0.595,-0.363 -1.004,-0.363l-1.17,0Z" style="fill:#042ff1;fill-rule:nonzero;"/><path d="M85.564,43.679l0,0.669l-3.401,0l0,-0.669l1.115,-0.223l0,-6.021l-1.449,0l-0.279,1.115l-0.725,0l0,-2.007l6.077,0l0,2.007l-0.725,0l-0.279,-1.115l-1.449,0l0,6.021l1.115,0.223Z" style="fill:#042ff1;fill-rule:nonzero;"/><path d="M3.186,51.196l-2.367,0.014c0,0.375 0.09,0.675 0.271,0.899c0.18,0.224 0.422,0.336 0.723,0.336c0.101,0 0.202,-0.009 0.302,-0.027c0.101,-0.019 0.196,-0.041 0.285,-0.069c0.089,-0.027 0.171,-0.058 0.244,-0.093c0.073,-0.034 0.135,-0.067 0.185,-0.099l0.137,-0.089l0.24,0.357c-0.155,0.123 -0.298,0.22 -0.428,0.291c-0.131,0.071 -0.284,0.135 -0.46,0.192c-0.176,0.058 -0.367,0.086 -0.573,0.086c-0.54,0 -0.949,-0.163 -1.228,-0.49c-0.279,-0.328 -0.419,-0.775 -0.419,-1.342c0,-0.284 0.041,-0.544 0.124,-0.782c0.082,-0.238 0.197,-0.443 0.346,-0.614c0.149,-0.172 0.326,-0.306 0.532,-0.402c0.206,-0.096 0.432,-0.144 0.679,-0.144c0.961,0 1.441,0.538 1.441,1.613l-0.034,0.363ZM0.846,50.695l1.647,0c0,-0.279 -0.06,-0.505 -0.179,-0.679c-0.119,-0.174 -0.311,-0.261 -0.576,-0.261c-0.261,0 -0.469,0.088 -0.624,0.265c-0.156,0.176 -0.245,0.401 -0.268,0.675Z" style="fill:#b5c3ff;fill-rule:nonzero;"/><path d="M5.08,51.828l0.48,0l0.075,0.59c0.046,0.018 0.118,0.033 0.217,0.044c0.098,0.012 0.195,0.017 0.291,0.017c0.298,0 0.514,-0.044 0.649,-0.133c0.135,-0.09 0.202,-0.226 0.202,-0.409c0,-0.123 -0.047,-0.221 -0.141,-0.295c-0.093,-0.073 -0.211,-0.135 -0.353,-0.185c-0.142,-0.05 -0.296,-0.101 -0.463,-0.151c-0.167,-0.05 -0.321,-0.115 -0.463,-0.195c-0.142,-0.08 -0.26,-0.185 -0.354,-0.313c-0.093,-0.128 -0.14,-0.297 -0.14,-0.507c0,-0.343 0.114,-0.605 0.343,-0.786c0.228,-0.181 0.533,-0.276 0.912,-0.285c0.16,0.005 0.324,0.017 0.491,0.038c0.167,0.02 0.337,0.058 0.511,0.113l0.172,0.055l-0.021,0.926l-0.446,0l-0.11,-0.535c-0.036,-0.014 -0.107,-0.031 -0.212,-0.051c-0.106,-0.021 -0.218,-0.031 -0.337,-0.031c-0.082,0 -0.16,0.007 -0.233,0.02c-0.073,0.014 -0.138,0.037 -0.195,0.069c-0.058,0.032 -0.103,0.078 -0.138,0.137c-0.034,0.06 -0.051,0.133 -0.051,0.22c0,0.132 0.047,0.237 0.14,0.312c0.094,0.075 0.212,0.141 0.354,0.196c0.142,0.054 0.296,0.107 0.463,0.157c0.167,0.051 0.321,0.116 0.463,0.196c0.142,0.08 0.26,0.182 0.354,0.305c0.093,0.124 0.14,0.286 0.14,0.487c0,0.193 -0.041,0.362 -0.123,0.508c-0.083,0.147 -0.194,0.269 -0.333,0.367c-0.14,0.099 -0.302,0.172 -0.487,0.22c-0.186,0.048 -0.383,0.072 -0.594,0.072c-0.078,0 -0.159,-0.003 -0.243,-0.01c-0.085,-0.007 -0.168,-0.016 -0.251,-0.028c-0.082,-0.011 -0.159,-0.024 -0.23,-0.037c-0.071,-0.014 -0.129,-0.028 -0.175,-0.042l-0.157,-0.041l-0.007,-1.015Z" style="fill:#b5c3ff;fill-rule:nonzero;"/><path d="M10.809,48.321l0,1.002l0.995,0l0,0.515l-0.995,0l0,2.202c0,0.279 0.115,0.419 0.343,0.419c0.147,0 0.325,-0.057 0.536,-0.172l0.185,0.364c-0.311,0.229 -0.632,0.343 -0.961,0.343c-0.233,0 -0.423,-0.077 -0.569,-0.23c-0.147,-0.153 -0.22,-0.408 -0.22,-0.765l0,-2.161l-0.686,0l0,-0.446l0.686,-0.069l0,-0.864l0.686,-0.138Z" style="fill:#b5c3ff;fill-rule:nonzero;"/><path d="M13.828,49.495c0.494,-0.183 0.947,-0.275 1.359,-0.275c0.403,0 0.711,0.081 0.926,0.244c0.215,0.162 0.323,0.435 0.323,0.82l0,2.093l0.549,0.137l0,0.377l-1.064,0.035l-0.144,-0.481c-0.366,0.366 -0.727,0.549 -1.084,0.549c-0.357,0 -0.624,-0.089 -0.803,-0.267c-0.178,-0.179 -0.267,-0.433 -0.267,-0.762c0,-0.709 0.526,-1.064 1.578,-1.064l0.549,0l0,-0.549c0,-0.411 -0.218,-0.617 -0.652,-0.617c-0.247,0 -0.451,0.025 -0.611,0.075l-0.082,0.028l-0.096,0.514l-0.446,0l-0.035,-0.857ZM15.75,51.347l-0.481,0c-0.343,0 -0.586,0.045 -0.73,0.134c-0.145,0.089 -0.217,0.228 -0.217,0.415c0,0.179 0.043,0.315 0.127,0.409c0.085,0.093 0.207,0.14 0.367,0.14c0.078,0 0.157,-0.014 0.237,-0.041c0.08,-0.027 0.158,-0.062 0.233,-0.103c0.076,-0.041 0.143,-0.086 0.203,-0.134c0.059,-0.048 0.107,-0.092 0.144,-0.134l0.117,-0.137l0,-0.549Z" style="fill:#b5c3ff;fill-rule:nonzero;"/><path d="M19.729,47.642l0,1.976c0.334,-0.265 0.677,-0.398 1.03,-0.398c0.485,0 0.846,0.158 1.084,0.474c0.238,0.315 0.357,0.764 0.357,1.345c0,0.283 -0.041,0.545 -0.124,0.785c-0.082,0.24 -0.203,0.447 -0.364,0.621c-0.16,0.174 -0.356,0.309 -0.59,0.405c-0.233,0.096 -0.503,0.144 -0.809,0.144c-0.234,-0.004 -0.443,-0.015 -0.628,-0.031c-0.185,-0.016 -0.349,-0.047 -0.491,-0.092l-0.151,-0.048l0,-4.632l-0.549,-0.137l0,-0.378l1.235,-0.034ZM19.729,52.377c0.11,0.045 0.348,0.068 0.714,0.068c0.183,0 0.34,-0.034 0.47,-0.103c0.13,-0.068 0.238,-0.163 0.323,-0.285c0.084,-0.121 0.146,-0.265 0.185,-0.432c0.039,-0.167 0.058,-0.349 0.058,-0.545c0,-0.412 -0.07,-0.733 -0.209,-0.964c-0.14,-0.231 -0.356,-0.347 -0.649,-0.347c-0.228,0 -0.412,0.045 -0.552,0.134c-0.139,0.089 -0.253,0.193 -0.34,0.312l0,2.162Z" style="fill:#b5c3ff;fill-rule:nonzero;"/><path d="M25.267,47.642l0,4.735l0.686,0.171l0,0.378l-1.969,0l0,-0.378l0.583,-0.171l0,-4.186l-0.583,-0.137l0,-0.378l1.283,-0.034Z" style="fill:#b5c3ff;fill-rule:nonzero;"/><path d="M28.458,47.676c0.297,0 0.446,0.172 0.446,0.515c0,0.142 -0.051,0.252 -0.151,0.329c-0.101,0.078 -0.209,0.117 -0.323,0.117c-0.123,0 -0.224,-0.042 -0.302,-0.127c-0.078,-0.085 -0.116,-0.202 -0.116,-0.353c0,-0.151 0.042,-0.269 0.127,-0.354c0.084,-0.084 0.19,-0.127 0.319,-0.127ZM28.835,49.289l0,3.088l0.515,0.171l0,0.378l-1.784,0l0,-0.378l0.583,-0.171l0,-2.539l-0.583,-0.138l0,-0.377l1.269,-0.034Z" style="fill:#b5c3ff;fill-rule:nonzero;"/><path d="M31.209,51.828l0.48,0l0.076,0.59c0.046,0.018 0.118,0.033 0.216,0.044c0.098,0.012 0.196,0.017 0.292,0.017c0.297,0 0.513,-0.044 0.648,-0.133c0.135,-0.09 0.203,-0.226 0.203,-0.409c0,-0.123 -0.047,-0.221 -0.141,-0.295c-0.094,-0.073 -0.212,-0.135 -0.353,-0.185c-0.142,-0.05 -0.297,-0.101 -0.464,-0.151c-0.167,-0.05 -0.321,-0.115 -0.463,-0.195c-0.142,-0.08 -0.259,-0.185 -0.353,-0.313c-0.094,-0.128 -0.141,-0.297 -0.141,-0.507c0,-0.343 0.114,-0.605 0.343,-0.786c0.229,-0.181 0.533,-0.276 0.913,-0.285c0.16,0.005 0.323,0.017 0.49,0.038c0.167,0.02 0.338,0.058 0.512,0.113l0.171,0.055l-0.02,0.926l-0.446,0l-0.11,-0.535c-0.037,-0.014 -0.108,-0.031 -0.213,-0.051c-0.105,-0.021 -0.217,-0.031 -0.336,-0.031c-0.082,0 -0.16,0.007 -0.233,0.02c-0.074,0.014 -0.139,0.037 -0.196,0.069c-0.057,0.032 -0.103,0.078 -0.137,0.137c-0.035,0.06 -0.052,0.133 -0.052,0.22c0,0.132 0.047,0.237 0.141,0.312c0.094,0.075 0.212,0.141 0.353,0.196c0.142,0.054 0.297,0.107 0.464,0.157c0.166,0.051 0.321,0.116 0.463,0.196c0.141,0.08 0.259,0.182 0.353,0.305c0.094,0.124 0.141,0.286 0.141,0.487c0,0.193 -0.041,0.362 -0.124,0.508c-0.082,0.147 -0.193,0.269 -0.333,0.367c-0.139,0.099 -0.301,0.172 -0.487,0.22c-0.185,0.048 -0.383,0.072 -0.593,0.072c-0.078,0 -0.159,-0.003 -0.244,-0.01c-0.085,-0.007 -0.168,-0.016 -0.25,-0.028c-0.083,-0.011 -0.159,-0.024 -0.23,-0.037c-0.071,-0.014 -0.129,-0.028 -0.175,-0.042l-0.158,-0.041l-0.007,-1.015Z" style="fill:#b5c3ff;fill-rule:nonzero;"/><path d="M36.87,47.642l0,2.072c0.389,-0.329 0.778,-0.494 1.167,-0.494c0.388,0 0.674,0.109 0.857,0.326c0.183,0.217 0.275,0.52 0.275,0.909l0,1.922l0.514,0.171l0,0.378l-1.646,0l0,-0.378l0.446,-0.165l0,-1.859c0,-0.247 -0.046,-0.429 -0.138,-0.546c-0.091,-0.116 -0.235,-0.175 -0.432,-0.175c-0.096,0 -0.19,0.013 -0.281,0.038c-0.092,0.025 -0.179,0.058 -0.261,0.1c-0.082,0.041 -0.156,0.085 -0.22,0.133c-0.064,0.048 -0.116,0.095 -0.157,0.141l-0.124,0.137l0,2.025l0.446,0.171l0,0.378l-1.715,0l0,-0.378l0.583,-0.171l0,-4.186l-0.583,-0.137l0,-0.378l1.269,-0.034Z" style="fill:#b5c3ff;fill-rule:nonzero;"/><path d="M44.555,51.196l-2.367,0.014c0,0.375 0.09,0.675 0.271,0.899c0.181,0.224 0.422,0.336 0.724,0.336c0.1,0 0.201,-0.009 0.302,-0.027c0.1,-0.019 0.195,-0.041 0.285,-0.069c0.089,-0.027 0.17,-0.058 0.243,-0.093c0.073,-0.034 0.135,-0.067 0.185,-0.099l0.138,-0.089l0.24,0.357c-0.156,0.123 -0.299,0.22 -0.429,0.291c-0.13,0.071 -0.284,0.135 -0.46,0.192c-0.176,0.058 -0.367,0.086 -0.573,0.086c-0.54,0 -0.949,-0.163 -1.228,-0.49c-0.279,-0.328 -0.419,-0.775 -0.419,-1.342c0,-0.284 0.042,-0.544 0.124,-0.782c0.082,-0.238 0.198,-0.443 0.346,-0.614c0.149,-0.172 0.326,-0.306 0.532,-0.402c0.206,-0.096 0.433,-0.144 0.68,-0.144c0.96,0 1.441,0.538 1.441,1.613l-0.035,0.363ZM42.215,50.695l1.647,0c0,-0.279 -0.059,-0.505 -0.178,-0.679c-0.119,-0.174 -0.311,-0.261 -0.577,-0.261c-0.26,0 -0.469,0.088 -0.624,0.265c-0.156,0.176 -0.245,0.401 -0.268,0.675Z" style="fill:#b5c3ff;fill-rule:nonzero;"/><path d="M49.599,47.642l0,4.735l0.583,0.137l0,0.377l-1.167,0.035l-0.055,-0.392c-0.306,0.307 -0.683,0.46 -1.132,0.46c-0.443,0 -0.785,-0.159 -1.026,-0.477c-0.24,-0.318 -0.36,-0.758 -0.36,-1.321c0,-0.599 0.153,-1.078 0.46,-1.437c0.306,-0.359 0.759,-0.539 1.359,-0.539c0.224,0 0.441,0.037 0.651,0.11l0,-1.139l-0.583,-0.137l0,-0.378l1.27,-0.034ZM48.912,51.931l0,-2.025c-0.16,-0.091 -0.4,-0.137 -0.72,-0.137c-0.686,0 -1.029,0.458 -1.029,1.372c0,0.403 0.069,0.721 0.209,0.954c0.139,0.234 0.356,0.35 0.648,0.35c0.225,0 0.414,-0.059 0.57,-0.178c0.146,-0.119 0.254,-0.231 0.322,-0.336Z" style="fill:#b5c3ff;fill-rule:nonzero;"/><path d="M55.706,47.676c0.297,0 0.446,0.172 0.446,0.515c0,0.142 -0.051,0.252 -0.151,0.329c-0.101,0.078 -0.209,0.117 -0.323,0.117c-0.123,0 -0.224,-0.042 -0.302,-0.127c-0.078,-0.085 -0.116,-0.202 -0.116,-0.353c0,-0.151 0.042,-0.269 0.126,-0.354c0.085,-0.084 0.191,-0.127 0.32,-0.127ZM56.083,49.289l0,3.088l0.515,0.171l0,0.378l-1.785,0l0,-0.378l0.584,-0.171l0,-2.539l-0.584,-0.138l0,-0.377l1.27,-0.034Z" style="fill:#b5c3ff;fill-rule:nonzero;"/><path d="M59.548,49.289l0.062,0.487c0.046,-0.037 0.11,-0.087 0.192,-0.151c0.082,-0.064 0.18,-0.126 0.292,-0.185c0.112,-0.06 0.235,-0.111 0.37,-0.155c0.135,-0.043 0.276,-0.065 0.422,-0.065c0.371,0 0.646,0.109 0.827,0.326c0.181,0.217 0.271,0.52 0.271,0.909l0,1.922l0.515,0.171l0,0.378l-1.647,0l0,-0.378l0.446,-0.171l0,-1.853c0,-0.247 -0.048,-0.429 -0.144,-0.546c-0.096,-0.116 -0.243,-0.175 -0.439,-0.175c-0.096,0 -0.191,0.013 -0.285,0.038c-0.094,0.025 -0.181,0.058 -0.261,0.1c-0.08,0.041 -0.151,0.085 -0.213,0.133c-0.061,0.048 -0.113,0.095 -0.154,0.141l-0.117,0.137l0,2.025l0.446,0.171l0,0.378l-1.715,0l0,-0.378l0.583,-0.171l0,-2.539l-0.583,-0.138l0,-0.377l1.132,-0.034Z" style="fill:#b5c3ff;fill-rule:nonzero;"/><path d="M70.232,52.342l0,0.584l-2.807,0l0,-0.584l1.057,0l0,-3.431l-1.166,0.755l-0.289,-0.494l1.599,-1.05l0.577,0l0,4.22l1.029,0Z" style="fill:#b5c3ff;fill-rule:nonzero;"/><path d="M72.942,52.994c-0.21,0 -0.393,-0.023 -0.549,-0.068l0.035,-0.549c0.073,0.009 0.149,0.018 0.229,0.027c0.08,0.009 0.166,0.014 0.258,0.014c0.242,0 0.453,-0.031 0.631,-0.093c0.178,-0.062 0.332,-0.142 0.46,-0.24c0.128,-0.098 0.232,-0.208 0.312,-0.329c0.08,-0.122 0.144,-0.243 0.192,-0.364c0.048,-0.121 0.082,-0.235 0.103,-0.34c0.021,-0.105 0.033,-0.192 0.038,-0.26l0.007,-0.097c-0.051,0.042 -0.122,0.082 -0.213,0.121c-0.092,0.038 -0.192,0.075 -0.302,0.109c-0.11,0.035 -0.222,0.062 -0.336,0.083c-0.115,0.02 -0.22,0.031 -0.316,0.031c-0.206,0 -0.399,-0.031 -0.58,-0.093c-0.18,-0.062 -0.337,-0.153 -0.47,-0.275c-0.132,-0.121 -0.236,-0.271 -0.312,-0.449c-0.075,-0.178 -0.113,-0.384 -0.113,-0.618c0,-0.233 0.043,-0.444 0.13,-0.634c0.087,-0.19 0.206,-0.354 0.357,-0.491c0.151,-0.137 0.326,-0.242 0.525,-0.316c0.199,-0.073 0.411,-0.109 0.635,-0.109c0.288,0 0.541,0.05 0.758,0.151c0.217,0.1 0.399,0.242 0.545,0.425c0.147,0.183 0.258,0.404 0.333,0.662c0.076,0.259 0.113,0.543 0.113,0.855c0,0.42 -0.052,0.806 -0.157,1.156c-0.106,0.35 -0.261,0.65 -0.467,0.902c-0.206,0.252 -0.463,0.446 -0.772,0.583c-0.309,0.138 -0.667,0.206 -1.074,0.206ZM74.692,50.147l0,-0.206c0,-0.439 -0.097,-0.767 -0.292,-0.982c-0.194,-0.215 -0.435,-0.322 -0.724,-0.322c-0.288,0 -0.517,0.082 -0.686,0.247c-0.169,0.165 -0.254,0.391 -0.254,0.679c0,0.595 0.321,0.892 0.961,0.892c0.169,0.005 0.334,-0.02 0.494,-0.075c0.16,-0.055 0.284,-0.108 0.371,-0.158l0.13,-0.075Z" style="fill:#b5c3ff;fill-rule:nonzero;"/><path d="M80.765,49.289c0,0.155 -0.029,0.294 -0.086,0.415c-0.057,0.121 -0.129,0.226 -0.216,0.316c-0.087,0.089 -0.182,0.163 -0.285,0.223c-0.103,0.059 -0.203,0.105 -0.299,0.137c0.298,0.123 0.531,0.275 0.7,0.456c0.17,0.181 0.254,0.42 0.254,0.717c0,0.211 -0.041,0.404 -0.123,0.58c-0.083,0.176 -0.199,0.328 -0.35,0.456c-0.151,0.128 -0.334,0.228 -0.549,0.299c-0.215,0.071 -0.453,0.106 -0.714,0.106c-0.261,0 -0.493,-0.033 -0.696,-0.099c-0.204,-0.067 -0.374,-0.16 -0.511,-0.282c-0.138,-0.121 -0.242,-0.265 -0.313,-0.432c-0.071,-0.167 -0.106,-0.353 -0.106,-0.559c0,-0.174 0.034,-0.331 0.103,-0.47c0.068,-0.14 0.157,-0.259 0.264,-0.357c0.108,-0.098 0.214,-0.18 0.319,-0.244c0.105,-0.064 0.192,-0.112 0.261,-0.144c-0.261,-0.128 -0.461,-0.274 -0.601,-0.439c-0.139,-0.165 -0.209,-0.38 -0.209,-0.645c0,-0.416 0.147,-0.732 0.439,-0.947c0.293,-0.215 0.689,-0.322 1.187,-0.322c0.499,0 0.879,0.113 1.139,0.339c0.261,0.227 0.392,0.525 0.392,0.896ZM80.078,51.587c0,-0.164 -0.06,-0.315 -0.181,-0.452c-0.122,-0.138 -0.306,-0.254 -0.553,-0.35l-0.329,-0.131c-0.526,0.238 -0.789,0.549 -0.789,0.933c0,0.261 0.081,0.462 0.243,0.604c0.163,0.142 0.39,0.213 0.683,0.213c0.293,0 0.52,-0.071 0.683,-0.213c0.162,-0.142 0.243,-0.343 0.243,-0.604ZM79.31,50.181c0.489,-0.201 0.734,-0.487 0.734,-0.858c0,-0.21 -0.074,-0.377 -0.223,-0.501c-0.149,-0.123 -0.36,-0.185 -0.635,-0.185c-0.274,0 -0.486,0.062 -0.634,0.185c-0.149,0.124 -0.223,0.291 -0.223,0.501c0,0.114 0.025,0.214 0.075,0.299c0.05,0.084 0.119,0.159 0.206,0.223c0.087,0.064 0.191,0.124 0.312,0.181c0.121,0.058 0.251,0.109 0.388,0.155Z" style="fill:#b5c3ff;fill-rule:nonzero;"/><path d="M86.117,49.289c0,0.155 -0.029,0.294 -0.086,0.415c-0.057,0.121 -0.129,0.226 -0.216,0.316c-0.087,0.089 -0.182,0.163 -0.285,0.223c-0.103,0.059 -0.202,0.105 -0.298,0.137c0.297,0.123 0.53,0.275 0.699,0.456c0.17,0.181 0.254,0.42 0.254,0.717c0,0.211 -0.041,0.404 -0.123,0.58c-0.083,0.176 -0.199,0.328 -0.35,0.456c-0.151,0.128 -0.334,0.228 -0.549,0.299c-0.215,0.071 -0.453,0.106 -0.714,0.106c-0.26,0 -0.493,-0.033 -0.696,-0.099c-0.204,-0.067 -0.374,-0.16 -0.511,-0.282c-0.138,-0.121 -0.242,-0.265 -0.313,-0.432c-0.07,-0.167 -0.106,-0.353 -0.106,-0.559c0,-0.174 0.034,-0.331 0.103,-0.47c0.069,-0.14 0.157,-0.259 0.264,-0.357c0.108,-0.098 0.214,-0.18 0.319,-0.244c0.105,-0.064 0.192,-0.112 0.261,-0.144c-0.261,-0.128 -0.461,-0.274 -0.6,-0.439c-0.14,-0.165 -0.21,-0.38 -0.21,-0.645c0,-0.416 0.147,-0.732 0.439,-0.947c0.293,-0.215 0.689,-0.322 1.188,-0.322c0.498,0 0.878,0.113 1.139,0.339c0.26,0.227 0.391,0.525 0.391,0.896ZM85.431,51.587c0,-0.164 -0.061,-0.315 -0.182,-0.452c-0.122,-0.138 -0.306,-0.254 -0.553,-0.35l-0.329,-0.131c-0.526,0.238 -0.789,0.549 -0.789,0.933c0,0.261 0.081,0.462 0.243,0.604c0.163,0.142 0.39,0.213 0.683,0.213c0.293,0 0.521,-0.071 0.683,-0.213c0.162,-0.142 0.244,-0.343 0.244,-0.604ZM84.662,50.181c0.49,-0.201 0.734,-0.487 0.734,-0.858c0,-0.21 -0.074,-0.377 -0.223,-0.501c-0.148,-0.123 -0.36,-0.185 -0.634,-0.185c-0.275,0 -0.487,0.062 -0.635,0.185c-0.149,0.124 -0.223,0.291 -0.223,0.501c0,0.114 0.025,0.214 0.075,0.299c0.051,0.084 0.119,0.159 0.206,0.223c0.087,0.064 0.191,0.124 0.312,0.181c0.122,0.058 0.251,0.109 0.388,0.155Z" style="fill:#b5c3ff;fill-rule:nonzero;"/></g></svg>