<?xml version="1.0" standalone="no"?><!DOCTYPE svg PUBLIC "-//W3C//DTD SVG 1.1//EN" "http://www.w3.org/Graphics/SVG/1.1/DTD/svg11.dtd"><svg width="100%" height="100%" viewBox="0 0 200 128" version="1.1" xmlns="http://www.w3.org/2000/svg" xmlns:xlink="http://www.w3.org/1999/xlink" xml:space="preserve" style="fill-rule:evenodd;clip-rule:evenodd;stroke-linejoin:round;stroke-miterlimit:1.41421;"><g id="Layer2"><path d="M200,127.068l-200,0l0,-117.423l200,0c0,39.141 0,78.282 0,117.423ZM3.016,12.661l0,111.391l193.968,0l0,-111.391c-64.656,0 -129.312,0 -193.968,0Z" style="fill:#042ff1;fill-rule:nonzero;"/><rect x="1.508" y="39.062" width="196.984" height="3.016" style="fill:#042ff1;fill-rule:nonzero;"/><path d="M89.222,48.289c1.719,0.016 3.435,0.145 5.135,0.405c3.15,0.482 6.232,1.396 9.136,2.71c3.42,1.547 6.586,3.646 9.349,6.187c2.964,2.727 5.458,5.959 7.339,9.521c1.58,2.994 2.724,6.215 3.383,9.536c0.755,3.807 0.875,7.74 0.361,11.587c-0.481,3.592 -1.521,7.104 -3.074,10.377c-1.79,3.772 -4.256,7.215 -7.242,10.131c-3.143,3.069 -6.856,5.546 -10.901,7.258c-2.131,0.902 -4.35,1.591 -6.616,2.056c-2.26,0.462 -4.564,0.701 -6.87,0.715c-2.238,0.015 -4.478,-0.181 -6.678,-0.589c-2.35,-0.436 -4.655,-1.112 -6.867,-2.017c-4.068,-1.663 -7.813,-4.096 -10.994,-7.129c-3.019,-2.879 -5.525,-6.292 -7.36,-10.039c-1.591,-3.25 -2.673,-6.744 -3.198,-10.324c-0.552,-3.768 -0.493,-7.628 0.177,-11.377c0.585,-3.269 1.637,-6.452 3.116,-9.425c1.763,-3.546 4.128,-6.788 6.961,-9.554c2.836,-2.769 6.136,-5.057 9.727,-6.735c2.883,-1.347 5.949,-2.298 9.089,-2.819c1.693,-0.281 3.402,-0.431 5.117,-0.47c0.303,-0.004 0.606,-0.006 0.91,-0.005ZM88.786,51.305c-1.574,0.015 -3.143,0.133 -4.698,0.371c-2.88,0.44 -5.696,1.275 -8.35,2.476c-3.187,1.442 -6.132,3.407 -8.692,5.79c-2.649,2.466 -4.882,5.377 -6.572,8.578c-1.444,2.736 -2.489,5.68 -3.091,8.715c-0.691,3.483 -0.801,7.081 -0.33,10.601c0.439,3.282 1.389,6.492 2.809,9.483c1.637,3.45 3.893,6.599 6.624,9.266c2.874,2.807 6.27,5.073 9.97,6.639c1.947,0.824 3.975,1.454 6.046,1.878c2.066,0.423 4.174,0.641 6.284,0.655c2.047,0.012 4.096,-0.166 6.109,-0.54c2.147,-0.398 4.253,-1.016 6.275,-1.843c3.72,-1.521 7.145,-3.746 10.054,-6.52c2.809,-2.679 5.132,-5.862 6.818,-9.358c1.437,-2.981 2.407,-6.183 2.866,-9.46c0.492,-3.516 0.405,-7.116 -0.264,-10.604c-0.571,-2.977 -1.568,-5.869 -2.95,-8.566c-1.622,-3.165 -3.772,-6.056 -6.331,-8.525c-2.609,-2.518 -5.64,-4.593 -8.935,-6.108c-2.644,-1.216 -5.453,-2.068 -8.328,-2.526c-1.552,-0.248 -3.118,-0.375 -4.689,-0.4c-0.209,-0.002 -0.417,-0.003 -0.625,-0.002Z" style="fill:#042ff1;fill-rule:nonzero;"/><path d="M89.152,59.078c1.193,0.012 2.383,0.101 3.562,0.282c2.187,0.334 4.326,0.968 6.341,1.88c2.506,1.134 4.816,2.695 6.807,4.593c1.988,1.895 3.655,4.124 4.907,6.568c1.05,2.048 1.807,4.244 2.24,6.504c0.498,2.595 0.572,5.271 0.222,7.889c-0.334,2.493 -1.055,4.93 -2.134,7.201c-1.242,2.617 -2.952,5.006 -5.024,7.029c-2.18,2.13 -4.757,3.848 -7.564,5.036c-2.954,1.25 -6.149,1.903 -9.357,1.923c-3.214,0.02 -6.423,-0.592 -9.398,-1.809c-2.823,-1.154 -5.421,-2.842 -7.628,-4.946c-2.095,-1.997 -3.833,-4.365 -5.106,-6.965c-1.105,-2.255 -1.856,-4.68 -2.22,-7.164c-0.383,-2.614 -0.342,-5.292 0.123,-7.893c0.406,-2.269 1.136,-4.477 2.162,-6.541c1.224,-2.46 2.864,-4.709 4.83,-6.628c1.967,-1.921 4.257,-3.509 6.748,-4.673c2.001,-0.935 4.129,-1.595 6.308,-1.956c1.174,-0.195 2.36,-0.299 3.55,-0.326c0.21,-0.003 0.421,-0.005 0.631,-0.004ZM88.855,62.094c-1.046,0.01 -2.09,0.089 -3.125,0.247c-1.915,0.293 -3.788,0.848 -5.553,1.647c-2.159,0.977 -4.152,2.315 -5.876,3.939c-1.753,1.652 -3.227,3.597 -4.339,5.734c-0.929,1.787 -1.604,3.705 -1.995,5.681c-0.46,2.317 -0.533,4.711 -0.22,7.053c0.292,2.183 0.924,4.318 1.868,6.307c1.09,2.295 2.59,4.39 4.407,6.165c1.912,1.867 4.171,3.374 6.632,4.415c2.59,1.097 5.39,1.667 8.201,1.685c2.817,0.018 5.63,-0.518 8.238,-1.584c2.475,-1.012 4.753,-2.493 6.688,-4.338c1.837,-1.752 3.362,-3.828 4.479,-6.109c0.967,-1.975 1.625,-4.098 1.944,-6.274c0.342,-2.338 0.298,-4.734 -0.132,-7.057c-0.368,-1.983 -1.019,-3.912 -1.928,-5.713c-1.086,-2.151 -2.537,-4.114 -4.27,-5.787c-1.705,-1.645 -3.68,-3.006 -5.826,-4.009c-1.752,-0.818 -3.616,-1.396 -5.524,-1.713c-1.03,-0.171 -2.071,-0.262 -3.114,-0.285c-0.185,-0.003 -0.37,-0.005 -0.555,-0.004Z" style="fill:#042ff1;fill-rule:nonzero;"/><path d="M183.261,11.153l-3.016,0l0,-8.137l-25.882,0l0,8.137l-3.016,0l0,-11.153l31.914,0c0,3.718 0,7.435 0,11.153Z" style="fill:#042ff1;fill-rule:nonzero;"/><rect x="147.851" y="40.569" width="3.016" height="84.991" style="fill:#042ff1;fill-rule:nonzero;"/><path d="M47.791,32.895l-38.031,0l0,-14.479l38.031,0c0,4.827 0,9.653 0,14.479ZM12.776,21.432l0,8.447l31.999,0l0,-8.447c-10.666,0 -21.333,0 -31.999,0Z" style="fill:#042ff1;fill-rule:nonzero;"/></g></svg>