<?xml version="1.0" standalone="no"?><!DOCTYPE svg PUBLIC "-//W3C//DTD SVG 1.1//EN" "http://www.w3.org/Graphics/SVG/1.1/DTD/svg11.dtd"><svg width="100%" height="100%" viewBox="0 0 234 362" version="1.1" xmlns="http://www.w3.org/2000/svg" xmlns:xlink="http://www.w3.org/1999/xlink" xml:space="preserve" style="fill-rule:evenodd;clip-rule:evenodd;stroke-linejoin:round;stroke-miterlimit:1.41421;"><path d="M143.88,8.717l2.682,-4.382l0.075,-0.11c0.087,-0.104 0.173,-0.2 0.283,-0.281c0.095,-0.07 0.124,-0.081 0.228,-0.137l7.408,-3.532c0.117,-0.049 0.145,-0.066 0.269,-0.096c0.124,-0.03 0.157,-0.028 0.283,-0.039c0.048,0.001 0.095,0.002 0.143,0.003c0.142,0.018 0.142,0.018 0.281,0.05l6.573,1.87c0.109,0.036 0.138,0.042 0.241,0.093c0.103,0.052 0.125,0.072 0.219,0.137l13.178,10.024l1.924,-1.002l0.126,-0.058c0.117,-0.04 0.146,-0.054 0.267,-0.076c0.122,-0.022 0.154,-0.019 0.277,-0.022c0.047,0.003 0.093,0.007 0.139,0.01c0.122,0.021 0.154,0.022 0.271,0.061c0.118,0.04 0.144,0.058 0.254,0.114l19.178,11.072c0.109,0.072 0.14,0.085 0.237,0.173c0.097,0.088 0.114,0.118 0.196,0.219l5.07,7.06c0.07,0.109 0.092,0.134 0.144,0.252c0.019,0.044 0.034,0.09 0.051,0.136l3.861,12.099c0.012,0.046 0.027,0.091 0.036,0.137c0.026,0.124 0.023,0.156 0.03,0.282l0.021,9.36l8.157,8.753c0.083,0.098 0.108,0.12 0.174,0.231c0.075,0.125 0.13,0.261 0.163,0.403c0.011,0.047 0.017,0.095 0.025,0.143l1.501,12.269c0.009,0.108 0.01,0.21 0.003,0.318l-1.431,13.179l1.701,4.943c0.028,0.092 0.028,0.091 0.049,0.184l1.53,7.776c0.021,0.147 0.034,0.287 0.016,0.436c-0.016,0.129 -0.03,0.16 -0.066,0.284l-2.618,7.577c0.462,0.002 0.924,0.007 1.385,0.016c0.162,0.01 0.319,0.04 0.469,0.102c0.394,0.161 0.698,0.503 0.811,0.914c0.043,0.156 0.055,0.316 0.046,0.477l-0.506,6.479l5.15,5.657c0.085,0.105 0.111,0.128 0.179,0.246c0.05,0.088 0.091,0.181 0.121,0.279c0.015,0.048 0.024,0.098 0.036,0.147l2.568,13.386c0.018,0.131 0.028,0.164 0.024,0.297c-0.003,0.153 -0.038,0.291 -0.082,0.437l-4.882,13.473l9.054,9.713c0.031,0.037 0.064,0.073 0.094,0.112c0.088,0.117 0.157,0.248 0.204,0.387c0.042,0.123 0.043,0.157 0.064,0.285l1.617,13.77c0.009,0.149 0.011,0.289 -0.018,0.436c-0.088,0.434 -0.386,0.808 -0.79,0.99c-0.133,0.06 -0.275,0.099 -0.421,0.115c-0.048,0.005 -0.097,0.005 -0.145,0.008l-0.46,0.001l0.013,5.712c-0.003,0.114 -0.013,0.225 -0.04,0.336c-0.048,0.191 -0.136,0.373 -0.259,0.528c-0.053,0.067 -0.112,0.125 -0.175,0.183l-4.6,4.024c-0.043,0.099 -0.097,0.192 -0.161,0.278c-0.057,0.077 -0.122,0.142 -0.19,0.208c-0.176,0.146 -0.353,0.29 -0.53,0.434l2.852,11.709c0.025,0.133 0.037,0.166 0.039,0.301c0.005,0.255 -0.061,0.509 -0.19,0.729c-0.069,0.117 -0.095,0.14 -0.182,0.244l-10.367,11.118l-9.747,13.714l0.018,7.964c-0.008,0.143 -0.004,0.18 -0.037,0.32c-0.005,0.02 -0.01,0.04 -0.015,0.059l9.661,7.189l0.122,0.101l10.417,9.781c0.18,0.206 0.18,0.206 0.316,0.444l4.981,11.116c0.025,0.073 0.057,0.144 0.076,0.219c0.053,0.201 0.04,0.256 0.04,0.461l-2.123,25.79c-0.014,0.082 -0.021,0.164 -0.042,0.244c-0.043,0.16 -0.114,0.311 -0.21,0.446c-0.047,0.067 -0.107,0.125 -0.16,0.188l-26.891,26.296c-0.141,0.12 -0.141,0.12 -0.296,0.221l-28.906,16.07l-41.791,27.862l-0.254,0.134c-0.092,0.026 -0.182,0.062 -0.276,0.078c-0.38,0.067 -0.778,-0.031 -1.084,-0.266c-0.076,-0.059 -0.139,-0.132 -0.208,-0.198l-21.94,-25.607l-0.008,0.004l-0.011,-0.027l-15.522,-18.117l-0.161,-0.232l-15.908,-28.78l0.095,-0.052l-9.942,-6.544c-0.164,-0.128 -0.215,-0.152 -0.342,-0.319c-0.048,-0.063 -0.084,-0.133 -0.126,-0.199l-22.516,-43.265l-3.832,3.973c-0.052,0.052 -0.052,0.051 -0.107,0.1c-0.135,0.107 -0.279,0.194 -0.442,0.25c-0.467,0.16 -0.997,0.054 -1.367,-0.272c-0.129,-0.114 -0.23,-0.25 -0.313,-0.4l-4.309,-8.285c-0.161,0.021 -0.325,0.013 -0.484,-0.023c-0.113,-0.025 -0.139,-0.04 -0.246,-0.081l-9.495,-4.135c-0.103,-0.051 -0.131,-0.06 -0.226,-0.124c-0.108,-0.074 -0.197,-0.162 -0.285,-0.259l-7,-8.378c-0.071,-0.093 -0.136,-0.185 -0.186,-0.291c-0.051,-0.106 -0.082,-0.214 -0.109,-0.328l-3.682,-18.517l0.053,-0.01l-3.034,-4.888c-0.05,-0.088 -0.095,-0.174 -0.129,-0.269c-0.078,-0.219 -0.099,-0.457 -0.061,-0.687c0.014,-0.088 0.022,-0.108 0.046,-0.194l0.131,-0.414l-4.481,-8.203c-0.111,-0.022 -0.22,-0.057 -0.323,-0.107c-0.15,-0.071 -0.287,-0.17 -0.402,-0.289c-0.039,-0.04 -0.072,-0.084 -0.108,-0.126l-3.894,-5.146c-0.028,-0.041 -0.058,-0.081 -0.083,-0.123c-0.077,-0.128 -0.133,-0.269 -0.165,-0.414c-0.029,-0.13 -0.025,-0.164 -0.033,-0.296l-0.022,-9.82c0.006,-0.126 0.003,-0.158 0.029,-0.283c0.029,-0.143 0.084,-0.268 0.148,-0.398l5.538,-9.88l-0.029,-12.845l0.009,-0.162c0.025,-0.142 0.025,-0.179 0.075,-0.315c0.049,-0.136 0.073,-0.165 0.145,-0.29l7.795,-11.815c-0.004,-3.134 0.016,-5.388 0.07,-7.28l-0.083,-0.006l0.208,-2.955c0.052,-0.913 0.117,-1.806 0.195,-2.767l0.689,-9.792l-2.252,-4.838l-0.066,-0.167l-0.042,-0.175l-1.366,-7.655c-0.007,-0.067 -0.019,-0.134 -0.021,-0.202c-0.004,-0.135 0.011,-0.271 0.047,-0.402c0.047,-0.175 0.077,-0.212 0.161,-0.371l4.696,-7.562l-1.206,-13.088l-0.003,-0.218c0.028,-0.192 0.024,-0.245 0.097,-0.426c0.027,-0.068 0.065,-0.131 0.097,-0.196l4.51,-7.519c0.034,-0.049 0.065,-0.1 0.102,-0.147c0.098,-0.125 0.135,-0.146 0.255,-0.249l7.198,-5.402l-1.132,-9.616l-0.01,-0.159l-0.031,-13.854l0.016,-0.214c0.017,-0.07 0.028,-0.141 0.05,-0.21c0.058,-0.183 0.093,-0.22 0.191,-0.383l5.485,-7.704c0.043,-0.051 0.082,-0.106 0.129,-0.155c0.093,-0.097 0.2,-0.181 0.318,-0.247c0.157,-0.089 0.204,-0.093 0.375,-0.145l7.649,-1.74l8.589,-9.9c0.095,-0.098 0.116,-0.127 0.226,-0.208c0.111,-0.081 0.145,-0.092 0.267,-0.154l6.236,-2.721l3.533,-1.686l5.88,-6.695c0.099,-0.1 0.12,-0.13 0.235,-0.213c0.042,-0.03 0.089,-0.056 0.133,-0.084l7.606,-4.231c0.056,-0.026 0.11,-0.056 0.167,-0.078c0.115,-0.046 0.236,-0.075 0.358,-0.088c0.164,-0.018 0.206,-0.006 0.369,0.009l8.118,1.3l12.276,-1.356l0.164,-0.008c0.055,0.004 0.11,0.008 0.165,0.011c0.144,0.028 0.182,0.028 0.32,0.081c0.137,0.053 0.166,0.078 0.291,0.154l10.136,7.004l3.064,-4.447c0.08,-0.105 0.097,-0.135 0.194,-0.226c0.181,-0.169 0.407,-0.289 0.65,-0.342c0.129,-0.029 0.163,-0.025 0.295,-0.032l6.727,-0.016c0.048,0.003 0.095,0.005 0.143,0.007c0.124,0.02 0.157,0.02 0.278,0.058c0.136,0.043 0.265,0.107 0.382,0.189c0.038,0.027 0.074,0.058 0.112,0.088l5.204,4.536l3.826,-5.353c0.056,-0.072 0.068,-0.092 0.131,-0.157c0.167,-0.173 0.379,-0.3 0.609,-0.368c0.1,-0.029 0.2,-0.042 0.303,-0.052c0.103,-0.003 0.103,-0.003 0.205,0.002c0.103,0.013 0.102,0.013 0.203,0.033l11.192,2.678c0.087,0.024 0.11,0.028 0.194,0.062c0.221,0.089 0.418,0.235 0.567,0.422c0.065,0.081 0.115,0.167 0.163,0.258l1.779,3.657l2.175,-1.085ZM174.507,278.981l-40.057,27.35c-0.164,0.095 -0.202,0.129 -0.385,0.184c-0.068,0.02 -0.139,0.03 -0.209,0.045l-21.942,3.001c-0.083,0.004 -0.165,0.015 -0.248,0.012c-0.166,-0.008 -0.33,-0.045 -0.483,-0.11c-0.076,-0.032 -0.146,-0.078 -0.219,-0.117l-12.689,-8.351l13.504,32.297l20.875,24.364l17.031,-11.354l2.08,-20.477c0.008,-0.053 0.014,-0.108 0.025,-0.161c0.032,-0.141 0.052,-0.173 0.108,-0.306l22.609,-46.377ZM195.969,236.564l-2.987,9.139c-0.041,0.164 -0.041,0.163 -0.101,0.321l-13.204,29.182c-0.041,0.073 -0.076,0.15 -0.124,0.219c-0.129,0.186 -0.185,0.212 -0.357,0.354l-0.064,0.044l-24.633,50.528l-1.823,17.957l20.839,-13.894l28.842,-16.034l25.942,-25.369l-13.958,-23.191l-0.075,-0.143l-0.058,-0.151l-9.459,-29.668l-4.07,1.221c-0.05,0.013 -0.1,0.028 -0.151,0.037c-0.102,0.018 -0.206,0.025 -0.31,0.021c-0.313,-0.015 -0.616,-0.137 -0.851,-0.343c-0.105,-0.091 -0.122,-0.122 -0.21,-0.23l-0.639,-0.883l3.525,13.976l-2.689,0.678l-3.385,-13.771ZM96.065,314.95l9.842,11.488l-11.78,-28.172l-11.449,-7.535l13.387,24.219ZM63.707,49.201c-0.005,0.001 -0.011,0.003 -0.016,0.004l-11.47,2.558l-5.564,8.947l0.021,9.438c-0.009,0.158 -0.004,0.199 -0.044,0.353c-0.03,0.115 -0.075,0.226 -0.133,0.33c-0.03,0.051 -0.065,0.099 -0.098,0.149l-13.158,17.644l-15.192,22.952l-0.77,9.006l7.142,-9.173l0.087,-0.101c0.085,-0.082 0.104,-0.106 0.201,-0.175c0.144,-0.103 0.308,-0.179 0.481,-0.22c0.115,-0.028 0.146,-0.027 0.264,-0.038c0.044,0.001 0.088,0.001 0.133,0.001c0.134,0.013 0.262,0.032 0.39,0.077c0.252,0.089 0.476,0.251 0.638,0.463c0.073,0.094 0.084,0.123 0.141,0.226l3.526,7.068c0.046,0.104 0.062,0.128 0.093,0.238c0.036,0.125 0.047,0.248 0.053,0.378l0.02,9.008l3.861,4.663l6.4,-8.459l-2.278,-4.168l-2.897,5.003l-2.4,-1.39l4.086,-7.057l1.14,-7.826c0.02,-0.111 0.045,-0.218 0.088,-0.323c0.037,-0.093 0.052,-0.113 0.1,-0.2l8.996,-14.726c0.789,0.482 1.578,0.964 2.367,1.446l-8.848,14.484l-1.103,7.571c1.264,2.181 2.404,4.432 3.613,6.643c0.042,0.085 0.081,0.168 0.108,0.259c0.083,0.269 0.081,0.561 -0.005,0.829c-0.038,0.121 -0.095,0.23 -0.161,0.337c-2.332,3.309 -4.863,6.473 -7.322,9.689l8.832,8.187l-1.886,2.034l-9.797,-9.082l0.036,-0.038c-0.03,-0.031 -0.06,-0.062 -0.089,-0.095l-4.54,-5.485l-8.474,5.209l-6.383,10.343l-2.361,-1.457l6.557,-10.623l0.073,-0.107c0.073,-0.089 0.089,-0.114 0.174,-0.191c0.085,-0.078 0.112,-0.091 0.207,-0.156l9.132,-5.613l-0.019,-8.378l-2.398,-4.807l-8.36,10.737l-0.055,0.784l0.018,7.97l0,0.001l0,0.001l0,0l-0.001,0l-8.023,12.163l0.028,12.791c-0.007,0.145 -0.02,0.281 -0.064,0.42c-0.038,0.121 -0.057,0.148 -0.113,0.261l-5.538,9.88l0.021,8.991l1.481,1.958l1.463,-14.564l0.025,-0.162c0.015,-0.052 0.027,-0.105 0.045,-0.157c0.054,-0.154 0.135,-0.298 0.239,-0.424c0.104,-0.126 0.23,-0.234 0.371,-0.316c0.38,-0.222 0.853,-0.25 1.256,-0.073c0.15,0.066 0.287,0.158 0.405,0.271c0.039,0.038 0.074,0.08 0.111,0.12l6.509,7.937l5.421,-8.047l-0.855,-0.662l-0.105,-0.09c-0.032,-0.033 -0.065,-0.065 -0.095,-0.1c-0.121,-0.14 -0.213,-0.304 -0.27,-0.479c-0.038,-0.118 -0.038,-0.149 -0.058,-0.27l-1.181,-10.4l2.756,-0.313l1.114,9.818l5.224,4.048l0.105,0.09c0.032,0.033 0.066,0.065 0.096,0.1c0.09,0.104 0.164,0.222 0.22,0.349c0.049,0.112 0.053,0.144 0.085,0.262l1.069,4.907l3.462,-0.75l0.148,-0.024c0.152,-0.008 0.295,-0.008 0.445,0.025c0.342,0.076 0.648,0.282 0.846,0.571c0.075,0.11 0.084,0.143 0.14,0.263l3.02,7.46c2.278,-7.682 2.614,-7.689 2.596,-15.702l-8.785,3.141c-0.146,0.044 -0.285,0.078 -0.439,0.081c-0.453,0.009 -0.892,-0.211 -1.156,-0.58c-0.087,-0.122 -0.154,-0.257 -0.198,-0.4c-0.014,-0.048 -0.024,-0.097 -0.036,-0.145l-2.48,-12.946l-4.687,-10.049l-4.556,8.473l-4.331,9.773l1.726,2.448l2.353,-2.118l1.856,2.061l-3.514,3.163l-0.101,0.082c-0.11,0.074 -0.217,0.14 -0.342,0.186c-0.411,0.154 -0.88,0.101 -1.246,-0.14c-0.149,-0.097 -0.264,-0.22 -0.372,-0.36l-3.08,-4.366c-0.062,-0.098 -0.081,-0.12 -0.129,-0.226c-0.108,-0.237 -0.147,-0.503 -0.111,-0.761c0.018,-0.132 0.058,-0.251 0.106,-0.374l4.692,-10.588l6.128,-11.398l0.07,-0.115c0.071,-0.096 0.086,-0.123 0.17,-0.208c0.19,-0.191 0.436,-0.323 0.7,-0.378c0.117,-0.024 0.148,-0.022 0.267,-0.029c0.045,0.002 0.089,0.003 0.134,0.005c0.136,0.018 0.263,0.042 0.391,0.092c0.112,0.044 0.136,0.063 0.239,0.123l9.641,6.191l7.18,4.591l3.818,-2.823l1.649,2.23l-4.586,3.391c-0.108,0.073 -0.215,0.137 -0.338,0.183c-0.281,0.106 -0.595,0.117 -0.884,0.03c-0.125,-0.037 -0.236,-0.095 -0.349,-0.16l-7.987,-5.107l-6.179,-3.968l4.258,9.13c0.045,0.108 0.078,0.211 0.105,0.325l2.209,11.525l3.546,-1.269l8.29,-10.873c0.735,0.561 1.47,1.121 2.205,1.682l-5.7,7.477l0.769,-0.275l0.141,-0.042c0.048,-0.009 0.096,-0.021 0.144,-0.027c0.147,-0.02 0.296,-0.015 0.44,0.012c0.49,0.093 0.9,0.452 1.058,0.925c0.047,0.144 0.062,0.284 0.07,0.434l0.021,9.063c-0.002,0.045 -0.002,0.09 -0.007,0.135c-0.011,0.119 -0.022,0.147 -0.051,0.263l-2.005,6.76l2.725,22.27l0.136,0.069l-0.103,0.205l4.109,33.59l22.921,44.042l42.277,27.822l21.102,-2.887l43.805,-29.909l0.237,-0.487l0.185,0.09c8.292,-18.315 14.065,-28.884 16.729,-42.417c0,0 0.696,-4.883 0.875,-5.848c0,0 0.751,-3.273 0.982,-4.872c0.883,-6.111 2.621,-14.102 3.004,-22.723c0.137,-3.074 -0.07,-6.129 -0.475,-9.173l-0.117,-0.841c-1.099,-7.573 -3.351,-15.082 -4.541,-22.65l2.74,-0.43l0.009,0.056l0.021,-0.026c3.138,2.503 6.276,5.005 9.414,7.508c0.138,0.117 0.257,0.248 0.346,0.407c0.206,0.368 0.232,0.819 0.071,1.209c-0.058,0.14 -0.14,0.262 -0.235,0.379l-6.884,7.912l0.643,4.093l3.937,1.746l3.882,-1.082l3.337,-9.854l-1.354,-0.692c-0.042,-0.025 -0.086,-0.047 -0.127,-0.074c-0.164,-0.107 -0.304,-0.249 -0.41,-0.414c-0.07,-0.11 -0.079,-0.142 -0.13,-0.262l-3.044,-8.152l-13.918,-7.851l1.362,-2.416l13.267,7.484l4.394,-6.243l-7.836,2.26l-0.102,0.026c-0.092,0.015 -0.114,0.022 -0.207,0.027c-0.245,0.013 -0.491,-0.039 -0.709,-0.151c-0.094,-0.049 -0.177,-0.109 -0.261,-0.174l-10.138,-8.546l1.788,-2.12c3.19,2.689 6.381,5.379 9.572,8.068l6.206,-1.79l-3.826,0.008l-0.1,-0.003c-0.201,-0.021 -0.391,-0.069 -0.569,-0.167c-0.089,-0.049 -0.167,-0.107 -0.245,-0.171l-8.977,-7.817l1.821,-2.092l8.584,7.476l5.199,-0.012l-1.485,-9.526c-2.267,-0.2 -4.468,0.059 -9.025,0.069l-0.11,-0.004c-0.11,-0.013 -0.215,-0.029 -0.321,-0.063c-0.208,-0.068 -0.4,-0.185 -0.554,-0.34c-0.069,-0.069 -0.082,-0.09 -0.142,-0.167l-3.6,-4.976l-4.956,5.993l-2.137,-1.767l5.956,-7.204l-2.186,-3.998l-3.581,7.326l-2.492,-1.218l4.443,-9.089l-1.877,-3.432l-4.95,-3.203l-1.581,2.911l-2.438,-1.324l2.296,-4.227c0.047,-0.079 0.095,-0.155 0.154,-0.226c0.156,-0.187 0.362,-0.332 0.591,-0.415c0.116,-0.042 0.234,-0.064 0.356,-0.078c0.091,-0.005 0.091,-0.005 0.183,-0.004c0.092,0.008 0.181,0.018 0.271,0.04c0.119,0.03 0.229,0.078 0.339,0.134c2.238,1.346 4.387,2.835 6.58,4.254c0.071,0.049 0.14,0.099 0.203,0.159c0.105,0.1 0.187,0.215 0.261,0.34l3.792,6.935l-0.011,-5.098l-5.008,-7.154l-9.018,-5.998l-3.83,5.788l-2.313,-1.531l4.952,-7.482l-0.02,-8.848l-4.393,-4.315l-6.697,0.015l-6.518,6.258l10.107,-0.023l0.198,0.014c0.171,0.037 0.218,0.037 0.379,0.11c0.363,0.165 0.643,0.487 0.756,0.87c0.05,0.169 0.044,0.215 0.057,0.39l0.015,6.53c-0.004,0.06 -0.004,0.121 -0.012,0.181c-0.015,0.121 -0.047,0.239 -0.093,0.352c-0.062,0.15 -0.092,0.18 -0.182,0.314l-2.876,3.748l-2.2,-1.689l2.588,-3.373l-0.01,-4.67l-12.565,0.028c-0.144,-0.008 -0.181,-0.004 -0.322,-0.037c-0.141,-0.033 -0.173,-0.054 -0.305,-0.111l-13.153,-6.621c-0.166,-0.098 -0.165,-0.098 -0.316,-0.219l-11.839,-10.915l0.023,10.204l-2.774,0.007l-0.028,-12.509c-1.371,-1.109 -2.611,-2.111 -3.748,-3.028l-3.047,2.64l3.186,5.692l-1.21,0.677l0.003,1.387l-8.705,0.02l-1.781,2.25l2.058,1.878l-1.869,2.049l-3.014,-2.75c-0.058,-0.056 -0.057,-0.055 -0.112,-0.115c-0.009,-0.011 -0.018,-0.022 -0.026,-0.033l-6.215,0.014l-5.804,3.128l-4.065,2.026l-0.334,0.478l-0.26,-0.182l-3.819,1.902c-0.172,0.071 -0.213,0.099 -0.398,0.128c-0.186,0.03 -0.234,0.016 -0.419,0.004l-13.421,-1.95c-0.156,-0.033 -0.198,-0.034 -0.345,-0.097c-0.148,-0.063 -0.177,-0.093 -0.309,-0.183l-6.261,-4.888c-0.754,1.507 -1.483,3.027 -2.256,4.525l4.817,4.772l9.053,-0.02l0.109,0.004c0.097,0.011 0.121,0.011 0.216,0.034c0.177,0.042 0.345,0.119 0.492,0.226c0.388,0.281 0.607,0.755 0.569,1.232c-0.011,0.145 -0.046,0.288 -0.102,0.423c-0.056,0.134 -0.133,0.259 -0.227,0.37c-0.063,0.074 -0.083,0.088 -0.155,0.154l-7.867,6.695c-0.089,0.07 -0.177,0.134 -0.278,0.184c-0.2,0.1 -0.423,0.151 -0.646,0.147c-0.099,-0.002 -0.123,-0.008 -0.221,-0.022l-14.726,-2.662l0.002,-0.011l-5.125,-8.365l-0.619,2.54l0.956,10.584l2.062,3.878l7.481,4.013c0.173,0.101 0.324,0.22 0.446,0.38c0.282,0.369 0.361,0.867 0.206,1.304c-0.055,0.158 -0.14,0.294 -0.241,0.425c-1.492,1.669 -3.098,3.233 -4.648,4.848c-0.072,0.069 -0.143,0.129 -0.223,0.187c-2.953,1.852 -6.031,3.497 -9.046,5.243c-0.143,0.077 -0.288,0.136 -0.448,0.165c-0.412,0.075 -0.845,-0.045 -1.16,-0.32c-0.097,-0.086 -0.176,-0.183 -0.25,-0.289l-2.795,-4.299l-1.465,2.469l4.032,5.698l-2.263,1.603l-4.553,-6.433c-0.052,-0.079 -0.101,-0.158 -0.139,-0.245c-0.126,-0.288 -0.15,-0.616 -0.068,-0.919c0.033,-0.123 0.085,-0.234 0.146,-0.345l6.437,-10.844c0.795,0.472 1.59,0.943 2.385,1.415l-2.933,4.941l2.823,4.343c5.803,-3.36 6.192,-2.909 10.836,-7.746l-6.606,-3.544l0.006,-0.01l-0.013,0.007l-1.673,-3.146l-7.176,0.016l-0.006,-2.774l6.062,-0.013l-0.955,-10.572c-0.009,-0.155 0.002,-0.3 0.034,-0.453l1.597,-6.558c0.898,0.219 1.797,0.437 2.695,0.656l-0.001,0.002l0.004,-0.002l5.922,9.665l12.847,2.322l4.488,-3.819l-5.845,0.013c-0.11,-0.004 -0.215,-0.012 -0.323,-0.037c-0.176,-0.042 -0.343,-0.119 -0.49,-0.224c-0.079,-0.057 -0.095,-0.076 -0.166,-0.141l-5.395,-5.345l-2.245,0.967l-1.098,-2.547l2.858,-1.232l1.902,-3.793l-12.091,0.028l-0.197,-0.014c-0.064,-0.014 -0.13,-0.023 -0.193,-0.042c-0.254,-0.073 -0.484,-0.22 -0.658,-0.419c-0.116,-0.133 -0.13,-0.178 -0.214,-0.331l-2.347,-5.083l-5.348,-9.515l-4.836,7.082l2.438,7.959c0.026,0.1 0.036,0.125 0.05,0.228c0.03,0.231 0,0.468 -0.085,0.685c-0.043,0.111 -0.102,0.208 -0.167,0.306l-5.257,7.274l-5.241,7.568l1.87,3.041l-2.362,1.453l-2.345,-3.812c-0.061,-0.11 -0.115,-0.217 -0.15,-0.337c-0.081,-0.278 -0.073,-0.578 0.023,-0.85c0.042,-0.119 0.101,-0.223 0.168,-0.329l5.773,-8.336l4.869,-6.738l-1.587,-5.18l-3.232,4.734l-3.95,8.579l-2.519,-1.16l3.998,-8.685l0.053,-0.103l0.062,-0.099l11.396,-16.689c0.111,-0.139 0.132,-0.182 0.271,-0.295c0.209,-0.169 0.466,-0.275 0.733,-0.303c0.067,-0.006 0.134,-0.003 0.201,-0.005c0.067,0.007 0.133,0.015 0.2,0.023c0.172,0.046 0.219,0.049 0.379,0.131c0.178,0.093 0.336,0.225 0.459,0.384c0.041,0.053 0.074,0.112 0.111,0.168l4.514,8.03l0.322,-4.223l-3.77,-6.457l-0.057,-0.108c-0.048,-0.114 -0.089,-0.224 -0.111,-0.346c-0.019,-0.107 -0.017,-0.135 -0.022,-0.242l-0.022,-10.051c0.006,-0.12 0.003,-0.15 0.026,-0.269c0.023,-0.118 0.037,-0.145 0.077,-0.259l2.947,-7.207c0.856,0.35 1.711,0.699 2.567,1.049l-2.843,6.954l0.021,9.403l3.8,6.508l0.056,0.106c0.047,0.112 0.088,0.221 0.11,0.341c0.022,0.12 0.023,0.236 0.019,0.358l-0.682,8.957l1.565,3.39l14.278,-0.032c0.163,0.01 0.206,0.005 0.364,0.048c0.119,0.032 0.233,0.08 0.34,0.142c0.053,0.031 0.101,0.069 0.152,0.104l6.715,5.242l2.373,0.345c-0.12,-0.156 -0.24,-0.31 -0.361,-0.464c-0.793,-1.011 -1.626,-1.989 -2.477,-2.95l-0.152,-0.17l-7.614,-8.377l2.053,-1.866l2.526,2.78l3.978,-4.09l-8.527,-4.399c-0.113,-0.062 -0.218,-0.132 -0.312,-0.221c-0.244,-0.229 -0.4,-0.544 -0.432,-0.877c-0.015,-0.155 0,-0.306 0.032,-0.458l1.041,-4.344l-0.263,-0.116l-0.074,-0.035c-0.095,-0.052 -0.186,-0.109 -0.269,-0.18c-0.249,-0.211 -0.417,-0.509 -0.469,-0.832c-0.022,-0.135 -0.02,-0.268 -0.006,-0.404c0.413,-2.553 0.973,-5.081 1.461,-7.62c0.03,-0.133 0.07,-0.261 0.133,-0.382c0.139,-0.264 0.362,-0.48 0.631,-0.608c0.099,-0.047 0.201,-0.079 0.307,-0.105l2.942,-0.632l-0.14,-0.214c-0.052,-0.087 -0.068,-0.108 -0.108,-0.201c-0.108,-0.246 -0.142,-0.521 -0.098,-0.785c0.019,-0.115 0.055,-0.22 0.098,-0.328l1.254,-2.864l-6.179,0.014c-0.228,-0.006 -0.446,-0.052 -0.649,-0.159c-0.076,-0.04 -0.144,-0.087 -0.212,-0.138c-0.103,-0.086 -0.205,-0.173 -0.307,-0.26l-1.379,3.018l2.241,6.997l-2.641,0.846l-1.312,-4.097l-0.525,1.147c-0.005,0.117 -0.025,0.233 -0.06,0.345c-0.042,0.136 -0.107,0.257 -0.183,0.377l-1.869,2.712l0.009,-0.005c1.206,2.059 2.413,4.117 3.619,6.175c0.054,0.099 0.102,0.2 0.134,0.308c0.071,0.243 0.075,0.504 0.01,0.749c-0.022,0.082 -0.052,0.159 -0.086,0.237l-2.652,5.611l1.412,-0.003l0.006,2.773l-5.637,0.013c-0.148,-0.005 -0.289,-0.022 -0.431,-0.067c-0.349,-0.113 -0.644,-0.366 -0.809,-0.693c-0.067,-0.132 -0.105,-0.27 -0.134,-0.415l-1.552,-10.035c-0.011,-0.093 -0.016,-0.116 -0.016,-0.21c0,-0.175 0.033,-0.349 0.097,-0.512c0.039,-0.099 0.091,-0.188 0.148,-0.277l4.963,-7.203l-1.568,-2.642l-4.855,3.386l0.433,4.008l-2.757,0.298l-0.522,-4.824l-0.007,-0.106c0,-0.107 0.005,-0.21 0.026,-0.316c0.049,-0.243 0.163,-0.471 0.329,-0.655c0.072,-0.08 0.152,-0.145 0.237,-0.21l6.753,-4.71c0.093,-0.059 0.184,-0.113 0.287,-0.153c0.137,-0.054 0.276,-0.079 0.422,-0.093c0.109,-0.003 0.108,-0.003 0.217,0.003c0.109,0.015 0.213,0.033 0.317,0.069c0.24,0.082 0.456,0.231 0.618,0.426c0.062,0.075 0.072,0.097 0.125,0.178l1.369,2.306l3.058,-6.692c-0.171,-0.155 -0.344,-0.31 -0.517,-0.464c-0.062,-0.059 -0.12,-0.118 -0.173,-0.186c-0.123,-0.159 -0.202,-0.338 -0.254,-0.531l-1.07,-4.527ZM55.414,159.721c0.021,-0.047 0.04,-0.095 0.065,-0.14c0.099,-0.18 0.239,-0.337 0.406,-0.457c0.148,-0.107 0.196,-0.116 0.363,-0.187l31.136,-10.564c0.177,-0.047 0.176,-0.047 0.357,-0.07c0.061,0 0.121,0 0.182,0c0.16,0.022 0.203,0.019 0.357,0.072c0.057,0.02 0.112,0.047 0.168,0.07l14.507,7.222l0.146,0.084l9.825,6.491c0.142,0.109 0.185,0.13 0.3,0.268c0.13,0.156 0.224,0.339 0.276,0.534c0.017,0.065 0.025,0.132 0.037,0.198l2.801,39.881c0.008,0.166 0.018,0.209 -0.008,0.375c-0.01,0.062 -0.028,0.122 -0.042,0.183l-3.948,16.185l9.165,5.85l6.081,-0.562l4.032,-4.236l-4.864,-39.791l-0.011,-0.168l0.011,-0.168l1.95,-15.989c0.03,-0.16 0.03,-0.203 0.092,-0.355c0.07,-0.171 0.173,-0.327 0.303,-0.457c0.043,-0.043 0.092,-0.081 0.138,-0.121l12.808,-9.815c0.121,-0.082 0.148,-0.108 0.283,-0.168c0.134,-0.059 0.172,-0.061 0.313,-0.096l21.492,-3.892l0.167,-0.02c0.057,0 0.113,0 0.169,0.001c0.149,0.018 0.188,0.016 0.332,0.062c0.143,0.046 0.174,0.07 0.306,0.141l23.403,14.419c0.13,0.091 0.168,0.109 0.277,0.224c0.124,0.13 0.222,0.283 0.287,0.45c0.022,0.056 0.036,0.114 0.054,0.17l2.775,11.111l4.45,11.128l0.073,0.251l0.026,0.26l0.049,21.815c-0.022,0.246 -0.022,0.246 -0.087,0.484l-21.063,56.905c-0.09,0.191 -0.102,0.248 -0.24,0.411c-0.051,0.061 -0.112,0.113 -0.169,0.169l-20.065,16.846l-20.424,14.496l-0.247,0.14c-0.27,0.086 -0.27,0.086 -0.553,0.116l-20.36,0.046c-0.077,-0.007 -0.156,-0.006 -0.232,-0.019c-0.155,-0.026 -0.303,-0.078 -0.44,-0.153c-0.068,-0.038 -0.13,-0.087 -0.195,-0.13l-34.401,-27.392c-0.179,-0.176 -0.242,-0.21 -0.361,-0.435c-0.045,-0.084 -0.071,-0.176 -0.107,-0.264l-4.458,-15.372l-11.102,-18.338l-0.104,-0.209l-0.067,-0.223l-6.786,-32.165l-9.324,-30.481c-0.009,-0.006 -0.017,-0.013 -0.026,-0.019c-0.327,-0.253 -0.528,-0.648 -0.539,-1.061c-0.005,-0.16 0.023,-0.313 0.067,-0.466c0.807,-2.222 1.761,-4.388 2.643,-6.581c0.035,-0.079 0.071,-0.155 0.118,-0.228c0.078,-0.123 0.174,-0.225 0.282,-0.321l7.151,-5.945ZM111.154,166.811l-9.618,6.833l-0.067,0.045c-0.075,0.044 -0.15,0.083 -0.229,0.115l-11.511,7.965l-0.118,0.074c-0.128,0.062 -0.251,0.115 -0.391,0.144c-0.122,0.025 -0.153,0.022 -0.277,0.029l-12.501,0.028c-0.111,-0.005 -0.139,-0.002 -0.248,-0.022c-0.126,-0.023 -0.239,-0.065 -0.356,-0.115l-12.069,-5.803l-4.314,2.343c-0.085,0.042 -0.169,0.081 -0.26,0.108c-0.18,0.055 -0.371,0.072 -0.558,0.051c-0.083,-0.009 -0.103,-0.016 -0.184,-0.034c-3.192,-0.924 -6.333,-2.011 -9.482,-3.075l8.741,28.574l0.031,0.119l6.75,31.995l11.076,18.293l0.083,0.161l0.062,0.171l4.386,15.124l33.676,26.814l19.433,-0.043c20.467,-14.528 20.448,-14.576 39.671,-30.714l20.849,-56.325c-0.037,-16.194 1.532,-17.084 -4.07,-31.345l-0.143,0.001l-0.004,0.001l0,-0.001l-12.692,0.028l-5.623,6.308c-0.1,0.1 -0.122,0.13 -0.238,0.212c-0.173,0.122 -0.375,0.203 -0.585,0.236c-0.14,0.022 -0.176,0.015 -0.317,0.012l-17.031,-1.291c-0.14,-0.019 -0.177,-0.017 -0.312,-0.06c-0.101,-0.032 -0.198,-0.075 -0.29,-0.129c-0.045,-0.027 -0.087,-0.059 -0.131,-0.089l-11.665,-8.844l-0.032,0.028l-0.132,-0.152l-9.297,-7.049l-1.638,13.427l4.895,40.041l6.733,-1.288l-2.628,-9.298l2.669,-0.754c1.013,3.584 2.026,7.168 3.039,10.753c0.041,0.161 0.062,0.321 0.048,0.487c-0.035,0.441 -0.286,0.847 -0.664,1.076c-0.143,0.087 -0.296,0.14 -0.457,0.176l-10.868,2.079l-3.057,3.212l-0.147,0.134c-0.035,0.024 -0.063,0.043 -0.088,0.06l2.603,12.083l0.016,0.093c0.014,0.125 0.02,0.248 0.004,0.374c-0.036,0.28 -0.158,0.547 -0.348,0.756c-0.064,0.07 -0.134,0.13 -0.209,0.188c-2.094,1.427 -4.28,2.713 -6.42,4.067c-0.076,0.045 -0.15,0.086 -0.232,0.118c-0.136,0.054 -0.275,0.081 -0.42,0.094c-1.104,0.037 -2.209,0.008 -3.313,0.011c-0.185,-0.006 -0.362,-0.035 -0.534,-0.106c-0.085,-0.035 -0.163,-0.08 -0.241,-0.129c-1.794,-1.29 -3.502,-2.694 -5.252,-4.042c-0.098,-0.081 -0.188,-0.166 -0.264,-0.268c-0.209,-0.279 -0.306,-0.632 -0.269,-0.978c0.014,-0.127 0.048,-0.246 0.091,-0.366l4.821,-12.102l-8.239,-5.259l-5.15,1.347l-0.086,0.02c-0.087,0.014 -0.173,0.025 -0.261,0.026c-0.209,0 -0.405,-0.05 -0.595,-0.132c-2.223,-1.134 -4.374,-2.405 -6.56,-3.608c-0.124,-0.074 -0.238,-0.156 -0.338,-0.261c-0.277,-0.293 -0.415,-0.7 -0.372,-1.101c0.015,-0.144 0.056,-0.279 0.11,-0.412l4.706,-10.687c0.846,0.373 1.692,0.745 2.539,1.118l-4.196,9.525l4.886,2.689l4.032,-1.055l4.039,-16.488l-2.398,-36.341ZM216.801,264.529l12.248,20.349l0.661,-8.035l-0.001,0c-5.387,-14.228 -5.064,-14.5 -9.122,-28.852c-4.39,-4.053 -6.443,-5.704 -12.264,-10.054l8.478,26.592ZM228.576,266.018l1.664,4.393l0.556,-6.754l-4.721,-10.536c-0.552,-0.519 -1.074,-1.008 -1.569,-1.473l4.07,14.37ZM111.776,259.695c9.483,1.645 9.582,1.589 19.07,-0.031l6.696,-5.67l1.792,2.117l-6.985,5.915c-0.086,0.067 -0.106,0.087 -0.201,0.142c-0.146,0.084 -0.298,0.131 -0.462,0.166l-10.309,1.76c-0.104,0.013 -0.13,0.02 -0.235,0.02c-0.106,0 -0.132,-0.007 -0.236,-0.02l-9.885,-1.715c-0.121,-0.027 -0.153,-0.03 -0.27,-0.076c-0.116,-0.045 -0.141,-0.066 -0.249,-0.128l-9.031,-5.879l1.513,-2.325c2.931,1.908 5.861,3.816 8.792,5.724ZM124.173,250.904l-3.047,0.006c-0.051,-0.002 -0.102,-0.002 -0.152,-0.008c-0.101,-0.011 -0.201,-0.033 -0.297,-0.065c-0.128,-0.044 -0.156,-0.065 -0.275,-0.129l-6.076,-3.696c-7.817,0.018 -7.613,1.246 -14.977,3.868l-0.149,0.044c-0.135,0.024 -0.169,0.035 -0.307,0.036c-0.208,0.001 -0.414,-0.044 -0.602,-0.133c-0.047,-0.022 -0.091,-0.049 -0.136,-0.074l-6.308,-3.899l1.459,-2.359l5.741,3.549l10.432,-3.715l0.15,-0.044c0.155,-0.027 0.155,-0.027 0.312,-0.036l4.769,-0.011c0.051,0.003 0.102,0.003 0.152,0.008c0.101,0.011 0.201,0.033 0.297,0.065c0.128,0.044 0.156,0.065 0.275,0.129l6.076,3.696l2.307,-0.005l6.941,-3.763c0.125,-0.059 0.155,-0.08 0.289,-0.117c0.101,-0.028 0.204,-0.044 0.309,-0.049c0.052,-0.002 0.104,0.001 0.156,0.002c0.052,0.006 0.104,0.013 0.155,0.019c0.153,0.037 0.152,0.037 0.299,0.09l8.326,3.58l4.724,-3.457l1.638,2.238l-5.364,3.925l-0.134,0.087c-0.127,0.063 -0.157,0.085 -0.294,0.125c-0.205,0.06 -0.423,0.072 -0.633,0.035c-0.14,-0.025 -0.172,-0.043 -0.306,-0.092l-8.435,-3.627l-6.657,3.609l-0.155,0.072c-0.055,0.018 -0.108,0.038 -0.164,0.053c-0.148,0.037 -0.187,0.033 -0.339,0.043ZM126.259,228.062l-4.66,0.431l-4.419,11.093l3.973,3.06l2.352,-0.005l5.187,-3.283l-2.433,-11.296ZM42.839,224.882l-2.45,4.813c-0.051,0.09 -0.061,0.114 -0.122,0.197c-0.092,0.124 -0.205,0.232 -0.333,0.319c-0.085,0.058 -0.109,0.067 -0.201,0.114l-2.585,1.192l3.329,6.399l3.511,-3.641l-1.149,-9.393ZM200.477,189.395l1.273,8.098c0.017,0.233 0.017,0.233 -0.006,0.465l-0.318,1.732l4.344,4.071c0.069,0.069 0.088,0.084 0.148,0.161c0.089,0.116 0.161,0.246 0.21,0.383c0.033,0.092 0.035,0.117 0.057,0.212l0.937,4.998c0.017,0.112 0.028,0.22 0.022,0.334c-0.011,0.186 -0.059,0.37 -0.142,0.537c-0.044,0.089 -0.061,0.108 -0.115,0.191c-2.136,2.985 -4.274,5.967 -6.414,8.949c-1.007,1.399 -1.885,2.953 -2.895,4.35l-0.709,4.507l3.957,5.757l4.426,-1.329l-0.016,-7.374c0.006,-0.127 0.002,-0.16 0.028,-0.285c0.03,-0.141 0.081,-0.276 0.151,-0.401c0.024,-0.042 0.051,-0.081 0.077,-0.121l10.058,-14.151c0.055,-0.073 0.055,-0.073 0.116,-0.143l9.919,-10.638l-2.363,-9.703l-0.41,0.358l-0.07,-0.081c-0.447,0.339 -0.893,0.679 -1.336,1.022c-0.076,0.055 -0.152,0.106 -0.237,0.147l0.01,4.38c-0.002,0.089 -0.008,0.175 -0.024,0.262c-0.05,0.265 -0.178,0.495 -0.355,0.695c-2.01,1.992 -4.141,3.857 -6.212,5.785l0.015,6.973c-0.007,0.203 -0.041,0.397 -0.127,0.583c-0.042,0.092 -0.096,0.174 -0.154,0.257l-10.231,13.5l-2.211,-1.675l9.949,-13.127l-0.016,-6.984l-8.466,-5.039l1.418,-2.383l8.682,5.167l4.957,-4.613l-0.007,-3.192c-1.789,0.321 -3.587,0.6 -5.377,0.919c-0.083,0.011 -0.104,0.017 -0.188,0.02c-0.221,0.009 -0.443,-0.036 -0.644,-0.13c-0.087,-0.041 -0.164,-0.091 -0.243,-0.146l-4.041,-3.027c-1.242,0.352 -2.493,0.673 -3.737,1.02c-0.085,0.021 -0.168,0.038 -0.256,0.046c-0.236,0.02 -0.461,-0.026 -0.679,-0.114l-2.755,-1.223ZM22.978,198.358l-6.596,0.015c-0.216,0.738 -0.431,1.477 -0.639,2.218c-0.002,0.006 -0.004,0.013 -0.006,0.019l3.48,17.505l6.563,7.856l8.624,3.756l3.731,-1.719l2.621,-5.148l-4.699,5.162c-0.087,0.088 -0.174,0.168 -0.279,0.235c-0.31,0.198 -0.694,0.265 -1.053,0.184c-0.163,-0.037 -0.305,-0.105 -0.448,-0.189l-10.121,-6.559c-0.092,-0.066 -0.118,-0.08 -0.2,-0.158c-0.154,-0.147 -0.274,-0.329 -0.347,-0.529c-0.04,-0.106 -0.042,-0.135 -0.066,-0.246l-2.591,-15.33c-0.014,-0.108 -0.024,-0.213 -0.016,-0.322c0.007,-0.109 0.03,-0.212 0.058,-0.318l1.984,-6.432ZM24.239,203.679l-0.497,1.614l2.434,14.404l8.622,5.588l7.132,-7.835l-1.43,-11.692l-6.508,12.942l-0.048,0.088c-0.109,0.169 -0.238,0.317 -0.405,0.432c-0.109,0.075 -0.229,0.135 -0.356,0.176c-0.447,0.146 -0.949,0.051 -1.312,-0.248c-0.157,-0.13 -0.272,-0.288 -0.366,-0.466l-7.266,-15.003ZM200.831,202.933l-2.415,14.517c1.238,-1.723 2.095,-2.735 3.331,-4.459c0.847,-1.182 1.694,-2.365 2.54,-3.547l-0.744,-3.97l-2.712,-2.541ZM38.336,188.069l-1.78,3.111c-0.038,0.062 -0.038,0.062 -0.079,0.122c-0.059,0.077 -0.121,0.151 -0.193,0.216c-0.18,0.163 -0.402,0.278 -0.64,0.329c-0.095,0.02 -0.191,0.028 -0.288,0.031l-5.388,0.012l-3.846,5.683l-0.684,2.219l1.505,3.107l5.147,-2.604c0.417,0.825 0.835,1.65 1.252,2.475l-5.19,2.625l4.624,9.549l7.116,-14.151l-1.556,-12.724ZM12.596,194.666l1.33,2.143l1.535,-5.458l0.849,-5.948l-0.715,-0.226c-1,3.163 -2,6.326 -2.999,9.489ZM22.697,167.095l-4.916,7.297l7.049,0.101c0.145,0.007 0.285,0.026 0.423,0.072c0.385,0.13 0.699,0.429 0.848,0.806c0.053,0.136 0.08,0.275 0.093,0.419c0.077,2.29 0.013,4.582 0.018,6.872c-0.003,0.113 -0.012,0.222 -0.039,0.332c-0.046,0.19 -0.133,0.37 -0.254,0.524c-0.052,0.067 -0.11,0.125 -0.171,0.183l-7.324,6.52l-0.23,1.613l-0.016,0.091c-0.303,1.231 -0.64,2.453 -0.989,3.672l6.932,-0.015l3.723,-5.501l-0.033,-14.42l-0.116,0.019c-0.148,0.008 -0.287,0.009 -0.433,-0.021c-0.382,-0.08 -0.719,-0.322 -0.915,-0.659c-0.075,-0.128 -0.119,-0.261 -0.158,-0.404l-1.256,-5.768l-2.236,-1.733ZM213.617,178.221l-3.312,9.778l2.821,2.113l6.001,-1.068l-4.588,-3.254l1.604,-2.263l5.617,3.984l0.783,-0.607l1.087,-0.951l-0.748,-3.064l-4.941,-3.794l-0.268,0.231l-0.108,0.084c-0.118,0.074 -0.233,0.139 -0.366,0.183c-0.26,0.085 -0.544,0.091 -0.808,0.016c-0.117,-0.033 -0.144,-0.05 -0.254,-0.099l-2.52,-1.289ZM7.268,182.544l-0.076,0.756l3.856,7.059l1.902,-6.019l-5.682,-1.796ZM30.583,175.062l0.032,14.053l3.932,-0.009l1.936,-3.383c-0.162,-0.047 -0.317,-0.122 -0.454,-0.227c-0.158,-0.12 -0.29,-0.274 -0.384,-0.449c-0.023,-0.044 -0.042,-0.09 -0.063,-0.135l-4.068,-10.052l-0.931,0.202ZM7.551,179.724l10.716,3.389c0.13,0.046 0.253,0.1 0.367,0.179c0.313,0.215 0.527,0.555 0.585,0.93c0.021,0.137 0.017,0.271 0.003,0.409l-0.191,1.336l4.407,-3.923l-0.011,-4.797l-8.051,-0.115c-0.306,0.041 -0.624,-0.019 -0.895,-0.18c-0.093,-0.054 -0.179,-0.12 -0.256,-0.195c-0.039,-0.037 -0.073,-0.079 -0.11,-0.118l-5.572,-6.795l-0.992,9.88ZM220.088,177.246l4.87,3.74c0.147,0.121 0.273,0.256 0.366,0.423c0.046,0.083 0.08,0.169 0.112,0.258c0.205,0.733 0.387,1.473 0.563,2.214l2.786,-2.437l-0.011,-5.081l-1.366,0.003c-0.146,-0.007 -0.284,-0.021 -0.425,-0.066c-0.368,-0.117 -0.676,-0.39 -0.837,-0.741c-0.062,-0.134 -0.092,-0.269 -0.117,-0.414l-0.33,-2.729l-5.611,4.83ZM177.046,174.225l-1.338,-1.326c-0.032,0.042 -0.067,0.082 -0.104,0.121l-6.065,6.002c-0.089,0.08 -0.109,0.104 -0.209,0.17c-0.15,0.1 -0.319,0.17 -0.495,0.205c-0.118,0.023 -0.149,0.02 -0.268,0.026l-10.118,0.023c-0.118,-0.004 -0.231,-0.013 -0.345,-0.043c-0.101,-0.025 -0.124,-0.038 -0.22,-0.076l-9.653,-4.273l-2.545,0.005l7.957,6.033l15.94,1.209l7.463,-8.076ZM95.165,171.175l-7.456,5.691l-0.092,0.065c-0.087,0.05 -0.107,0.066 -0.199,0.105c-0.176,0.077 -0.357,0.106 -0.548,0.114l-8.511,0.019c-0.106,-0.003 -0.208,-0.011 -0.312,-0.034c-0.139,-0.032 -0.264,-0.087 -0.389,-0.154l-8.11,-4.721l-3.167,2.022l10.373,4.988l11.752,-0.027l9.707,-6.717l-3.048,-1.351ZM197.219,168.659l1.54,9.803l4.404,-5.062l-5.944,-4.741ZM216.008,156.256l-0.098,0.139l2.025,9.414c0.017,0.095 0.031,0.188 0.031,0.286c0.001,0.224 -0.053,0.448 -0.157,0.647c-0.039,0.075 -0.053,0.092 -0.1,0.163l-5.377,7.543l4.238,2.168l8.806,-7.581l-0.015,-6.661l-9.077,-6.349l-0.276,0.231ZM156.283,168.347l-5.275,4.903l7.729,3.422l9.255,-0.021l4.85,-4.8c-0.26,-0.305 -0.547,-0.587 -0.843,-0.858c-0.425,-0.39 -0.871,-0.756 -1.327,-1.109c-1.223,-0.947 -2.517,-1.801 -3.836,-2.607l-0.196,-0.118c-3.452,0.396 -6.905,0.792 -10.357,1.188ZM183.285,171.097l-3.988,4.474l8.047,-0.018c-1.575,-1.849 -2.888,-3.288 -4.059,-4.456ZM100.101,157.345l-12.372,-6.16l-29.841,10.124l-2.785,13.255l3.553,1.16l3.217,-1.747l-0.865,-4.705c-0.016,-0.124 -0.025,-0.155 -0.022,-0.28c0.005,-0.235 0.07,-0.467 0.189,-0.67c0.063,-0.108 0.087,-0.13 0.165,-0.227l7.567,-8.436c0.083,-0.084 0.101,-0.108 0.195,-0.179c0.142,-0.107 0.304,-0.187 0.475,-0.233c0.042,-0.012 0.086,-0.019 0.129,-0.029l15.278,-2.605c0.132,-0.016 0.132,-0.016 0.266,-0.02c0.045,0.004 0.089,0.007 0.134,0.01c0.117,0.02 0.148,0.021 0.261,0.058c0.113,0.037 0.139,0.054 0.245,0.107l10.492,5.83l3.719,-5.253ZM92.447,169.76l-7.517,-4.557l-10.113,1.372l-3.246,3.653l7.158,4.167l7.668,-0.017l6.05,-4.618ZM218.486,154.18l9.055,6.334c0.077,0.058 0.149,0.116 0.215,0.186c0.174,0.185 0.295,0.416 0.347,0.665c0.02,0.094 0.027,0.187 0.03,0.282l0.018,7.937l0.483,4.006l1.811,-0.004l-1.382,-11.775l-8.632,-9.26l-1.945,1.629ZM54.464,164.118l-4.158,3.457l-1.927,4.792l4.072,1.33l2.013,-9.579ZM154.13,163.089l-0.37,0.21l-10.352,8.992l4.569,-0.01l6.751,-6.275c0.085,-0.072 0.104,-0.094 0.199,-0.154c0.141,-0.09 0.299,-0.154 0.463,-0.188c0.041,-0.009 0.083,-0.013 0.124,-0.02l11.274,-1.294l0.127,-0.008c0.042,0.001 0.084,0.002 0.127,0.003c0.112,0.012 0.14,0.012 0.25,0.04c0.126,0.032 0.237,0.085 0.351,0.144c0.283,0.165 0.562,0.334 0.841,0.504c0.672,0.416 1.338,0.843 1.991,1.288c1.006,0.685 1.991,1.406 2.915,2.199c0.599,0.514 1.183,1.061 1.684,1.675l3.551,1.086c2.92,-3.469 -4.425,-6.264 -11.259,-10.382l-13.236,2.19ZM70.649,161.871l-6.79,7.569l0.52,2.829c4.992,-3.187 4.772,-3.493 8.706,-7.921l0.098,-0.1c0.036,-0.03 0.071,-0.061 0.108,-0.089c0.113,-0.085 0.238,-0.151 0.371,-0.198c0.118,-0.041 0.15,-0.043 0.273,-0.066l11.108,-1.506c0.045,-0.004 0.09,-0.01 0.134,-0.012c0.18,-0.007 0.36,0.022 0.529,0.084c0.113,0.041 0.137,0.059 0.243,0.116l9.073,5.501l2.548,1.129l-2.157,-3.974l-10.444,-5.804c-4.773,0.814 -9.547,1.628 -14.32,2.442ZM208.733,166.591l1.991,5.334l4.371,-6.131l-1.358,-6.312l-5.004,7.109ZM146.517,155.907l7.571,4.378l13.329,-2.206l0.162,-0.017c0.055,0.001 0.109,0.001 0.164,0.002c0.143,0.019 0.181,0.017 0.32,0.061c0.138,0.044 0.168,0.067 0.296,0.134l16.033,9.662c0.041,0.028 0.084,0.054 0.123,0.084c0.106,0.081 0.126,0.109 0.217,0.205l3.19,3.745l-1.346,-5.389l-22.47,-13.844l-17.589,3.185ZM132.37,164.964l8.139,6.171l10.712,-9.304l-8.414,-4.865l-10.437,7.998ZM98.285,164.71l3.072,5.66l9.077,-6.45l-7.897,-5.217l-4.252,6.007ZM212.761,144.118l1.406,9.022l1.246,-0.003l3.003,-2.516l-0.69,-4.907c-2.087,-0.762 -3.648,-1.266 -4.965,-1.596ZM203.992,106.889l16.654,17.734c0.079,0.093 0.102,0.114 0.167,0.218c0.097,0.156 0.162,0.33 0.191,0.511c0.02,0.121 0.015,0.153 0.017,0.274l-0.726,18.623c0.028,0.083 0.046,0.168 0.062,0.255l0.343,2.443l3.792,-10.466l-2.422,-12.628l-16.64,-18.276l-1.438,1.312ZM217.58,142.694l0.225,-5.766l-4.067,4.352c1.289,0.446 2.565,0.932 3.842,1.414ZM201.943,108.758l-8.88,8.101l4.798,6.856c0.058,0.09 0.076,0.111 0.121,0.208c0.087,0.187 0.121,0.38 0.13,0.584l0.024,10.696c-0.004,0.107 -0.002,0.134 -0.02,0.24c-0.027,0.158 -0.082,0.31 -0.162,0.45c-0.005,0.009 -0.009,0.017 -0.014,0.025l3.615,4.996l1.257,-0.003l8.845,-8.561l-0.013,-5.688l-10.653,-9.96l1.894,-2.026c3.697,3.457 7.394,6.914 11.091,10.37c0.081,0.082 0.155,0.164 0.218,0.26c0.102,0.159 0.172,0.338 0.203,0.525c0.017,0.099 0.015,0.125 0.019,0.225l0.015,6.877c-0.003,0.099 -0.001,0.125 -0.017,0.222c-0.029,0.184 -0.096,0.361 -0.195,0.519c-0.06,0.096 -0.132,0.177 -0.21,0.259l-7.2,6.969l3.492,-0.007l7.669,-8.205l0.257,-6.591l-16.284,-17.341ZM64.768,118.079l7.278,-0.017l0.006,2.774l-7.719,0.017l-0.085,-0.002c-0.086,-0.008 -0.17,-0.018 -0.253,-0.039c-0.169,-0.042 -0.32,-0.117 -0.464,-0.212l-7.088,-4.997l1.598,-2.267l6.727,4.743ZM187.666,112.69l3.384,2.251l3.406,-3.108l-3.055,-2.432l-3.735,3.289ZM214.507,111.427l2.165,2.377l0.186,-2.383l-2.351,0.006ZM203.332,103.737l-1.379,-7.255l-6.098,-3.02l-5.668,4.599c-0.075,0.056 -0.092,0.072 -0.174,0.12c-0.093,0.054 -0.189,0.092 -0.29,0.128l-6.845,2.116l0.019,8.559c-0.005,0.165 -0.027,0.323 -0.084,0.479l2.463,1.637l5.163,-4.548c0.06,-0.05 0.059,-0.049 0.122,-0.096c0.065,-0.043 0.13,-0.083 0.2,-0.116c0.166,-0.079 0.34,-0.118 0.522,-0.132c0.077,-0.002 0.076,-0.002 0.154,0c0.078,0.007 0.154,0.015 0.23,0.033c0.204,0.047 0.386,0.141 0.553,0.266l4.312,3.433l0.653,-0.595l-1.005,-5.074l-4.563,-5.177l2.08,-1.834c1.604,1.819 3.207,3.639 4.811,5.458c0.052,0.063 0.102,0.126 0.144,0.196c0.086,0.141 0.139,0.292 0.176,0.452l0.752,3.794l3.752,-3.423ZM177.397,52.787l3.679,2.079c0.044,0.028 0.089,0.054 0.131,0.084c0.126,0.092 0.237,0.204 0.326,0.332c0.079,0.114 0.089,0.149 0.147,0.274l2.101,5.22c0.041,0.119 0.057,0.148 0.079,0.272c0.025,0.14 0.029,0.283 0.01,0.424c-0.006,0.047 -0.017,0.093 -0.025,0.14l-0.565,2.393l7.895,2.545c0.095,0.034 0.187,0.072 0.274,0.123c0.195,0.114 0.361,0.275 0.48,0.467c0.053,0.086 0.093,0.176 0.129,0.27l2.054,5.843l-2.617,0.92l-1.825,-5.194l-7.029,-2.265l-0.866,3.672l-0.451,-0.107l0.059,0.156c2.088,-0.049 4.178,-0.051 6.266,0.002c0.128,0.01 0.252,0.031 0.375,0.072c0.291,0.1 0.544,0.297 0.712,0.554c0.071,0.108 0.121,0.224 0.163,0.345l2.251,7.209l2.204,4.094l1.111,-0.674l-0.009,-4.412l0.003,-0.097c0.01,-0.098 0.023,-0.192 0.05,-0.287c0.055,-0.191 0.151,-0.356 0.272,-0.512c0.757,-0.837 1.547,-1.642 2.341,-2.445l-2.431,-3.453c-0.04,-0.061 -0.04,-0.06 -0.077,-0.123c-0.034,-0.065 -0.063,-0.129 -0.09,-0.197l-2.124,-5.782l2.603,-0.956c0.687,1.87 1.374,3.74 2.061,5.61l2.119,3.01c0.097,-0.034 0.199,-0.057 0.303,-0.073c0.106,-0.008 0.105,-0.008 0.211,-0.008c0.094,0.007 0.118,0.006 0.21,0.023c0.208,0.04 0.406,0.128 0.575,0.256c0.085,0.064 0.157,0.139 0.229,0.218l10.723,12.853c0.066,0.085 0.127,0.17 0.175,0.267c0.098,0.195 0.138,0.401 0.147,0.618l0.017,7.332c0.368,0.511 0.737,1.021 1.109,1.529c0.023,0.035 0.048,0.069 0.069,0.104c0.086,0.143 0.145,0.3 0.176,0.464c0.02,0.109 0.017,0.138 0.023,0.248l0.027,12.427c0.305,-0.002 0.609,-0.005 0.913,-0.008l2.813,-8.142c-2.19,-11.133 -2.708,-11.003 -6.4,-21.732l-9.138,-10.07l2.054,-1.864l1.625,1.79l5.27,-0.012l-0.008,-3.72l-17.665,-17.648l-1.433,14.777l-2.761,-0.267l0.431,-4.447l-5.146,-5.545l-6.348,-4.63l0.013,5.654ZM16.849,93.753l-2.584,4.161c0.975,5.462 0.946,6.165 2.76,10.191l5.483,-8.285l-0.929,-3.129l-3.252,4.054l-2.163,-1.736l3.735,-4.655l-3.05,-0.601ZM210.4,106.916l-0.023,-10.234c-5.403,-7.385 -5.112,-7.68 -11.868,-13.851l-8.133,4.926l-1.164,1.556l1.408,4.824l4.179,-3.39l0.09,-0.068c0.097,-0.06 0.193,-0.115 0.301,-0.155c0.108,-0.04 0.216,-0.061 0.329,-0.078c0.113,-0.008 0.113,-0.008 0.226,-0.007c0.1,0.009 0.125,0.009 0.224,0.03c0.112,0.025 0.214,0.066 0.319,0.112l7.514,3.722c0.083,0.046 0.106,0.055 0.183,0.109c0.204,0.144 0.367,0.342 0.468,0.57c0.045,0.099 0.072,0.2 0.096,0.305l1.329,6.99c0.005,0.001 0.01,0.002 0.014,0.004c0.15,0.041 0.293,0.108 0.421,0.197c0.114,0.08 0.135,0.109 0.234,0.205l3.853,4.233ZM168.152,86.782l-6.602,1.074l-1.546,7.657c-0.026,0.107 -0.055,0.21 -0.102,0.31c-0.138,0.299 -0.383,0.542 -0.683,0.678c-0.135,0.061 -0.273,0.093 -0.419,0.116l-8.09,0.908l7.944,3.999l8.513,-8.173c0.503,-2.857 0.821,-4.884 0.985,-6.569ZM79.094,85.879l-3.171,3.26l3.226,3.55c0.949,1.061 1.873,2.145 2.751,3.265c0.324,0.412 0.642,0.83 0.945,1.258c0.332,0.468 0.649,0.946 0.918,1.453l6.57,0.954l2.078,-1.035l-10.611,-7.417l-0.072,-0.054c-0.069,-0.059 -0.134,-0.118 -0.193,-0.188c-0.078,-0.092 -0.139,-0.194 -0.194,-0.301l-2.247,-4.745ZM180.779,82.554l-9.527,3.593l-1.142,6.484c2.091,-0.03 4.182,-0.07 6.271,0.006c0.108,0.013 0.213,0.029 0.317,0.062c0.211,0.068 0.387,0.184 0.55,0.332l4.826,4.739l4.963,-1.534l-6.121,-4.537l-7.273,-1.161l0.437,-2.739c2.536,0.405 5.072,0.81 7.607,1.214c0.11,0.021 0.216,0.048 0.32,0.091c0.103,0.044 0.196,0.101 0.288,0.165l5.123,3.798l-1.058,-3.625l-5.581,-6.888ZM100.782,77.851l-0.004,-1.543l-16.039,4.134l-0.075,-0.29l-3.506,3.605l2.532,5.347l11.548,8.071l3.144,-1.566l6.072,-3.272l0.155,-0.072c0.144,-0.046 0.179,-0.065 0.33,-0.084c0.056,-0.007 0.113,-0.007 0.17,-0.01l7.352,-0.017c0.52,-0.662 1.051,-1.315 1.578,-1.97l-1.911,-2.076l-10.209,0.023l-3.787,3.23l-1.8,-2.11l4.175,-3.56c0.155,-0.124 0.32,-0.221 0.511,-0.277c0.095,-0.027 0.19,-0.041 0.288,-0.051c3.838,-0.144 7.683,-0.15 11.521,-0.026c0.084,0.008 0.106,0.008 0.189,0.026c0.188,0.039 0.367,0.117 0.523,0.228c0.079,0.056 0.147,0.121 0.215,0.19l2.852,3.095l6.155,-0.014l-2.415,-4.315l-10.177,-3.938l-10.108,0.022l-10.924,8.756l-1.735,-2.164l11.303,-9.059c0.096,-0.07 0.118,-0.091 0.223,-0.146c0.158,-0.083 0.331,-0.135 0.508,-0.152c0.044,-0.005 0.089,-0.005 0.133,-0.007c0.404,-0.001 0.808,-0.004 1.213,-0.008ZM79.341,16.406l4.462,-3.574l-7.436,-4.031l-9.552,5.985l1.103,5.679l0.021,0.151c0.001,0.05 0.005,0.101 0.004,0.152c-0.003,0.101 -0.017,0.202 -0.042,0.301c-0.113,0.448 -0.452,0.818 -0.889,0.97c-0.096,0.033 -0.195,0.056 -0.296,0.068c-0.051,0.006 -0.102,0.006 -0.152,0.009l-9.934,0.049l-12.688,13.195l-2,-1.922l2.062,-2.144l-2.903,-0.938l-7.204,1.639l-4.92,6.91c0.026,11.859 -0.141,11.881 1.246,23.658l0.009,0.206c-0.007,0.069 -0.01,0.138 -0.022,0.206c-0.037,0.204 -0.121,0.398 -0.242,0.565c-0.109,0.15 -0.152,0.174 -0.29,0.294l-7.619,5.718l-4.137,6.897l1.208,13.1c0.001,0.074 0.008,0.149 0.002,0.224c-0.01,0.149 -0.045,0.296 -0.102,0.435c-0.029,0.069 -0.069,0.133 -0.103,0.199l-0.514,0.827l3.893,0.768c0.129,0.028 0.252,0.068 0.37,0.129c0.233,0.121 0.43,0.309 0.561,0.536c0.056,0.095 0.096,0.196 0.13,0.3l1.139,3.835l1.492,-2.255l-0.016,-7.434l-3.777,-4.833l2.186,-1.707l2.832,3.625l0.03,-0.067l2.348,-5.856l0.037,-0.085c0.044,-0.083 0.043,-0.083 0.092,-0.162c3.639,-5.136 7.616,-10.023 11.425,-15.033c0.063,-0.077 0.077,-0.099 0.15,-0.168c0.136,-0.129 0.298,-0.23 0.475,-0.294c0.107,-0.04 0.215,-0.06 0.327,-0.078c0.112,-0.007 0.112,-0.007 0.225,-0.006c0.113,0.011 0.222,0.025 0.332,0.059c0.251,0.076 0.479,0.225 0.649,0.425c0.075,0.088 0.131,0.181 0.186,0.281l0.392,0.784l-0.008,-3.68c0.009,-0.135 0.007,-0.191 0.029,-0.291l-2.312,-13.793c-0.013,-0.114 -0.021,-0.142 -0.018,-0.257c0.003,-0.172 0.039,-0.343 0.104,-0.502c0.044,-0.106 0.063,-0.129 0.121,-0.228l6.253,-9.585c0.067,-0.095 0.137,-0.177 0.22,-0.26l9.957,-9.21c0.092,-0.077 0.112,-0.1 0.215,-0.163c0.114,-0.07 0.24,-0.124 0.37,-0.159c0.043,-0.011 0.088,-0.019 0.132,-0.028l9.359,-1.541c-0.059,-0.121 -0.101,-0.249 -0.123,-0.382c-0.02,-0.123 -0.02,-0.244 -0.012,-0.368c0.385,-2.869 0.957,-5.71 1.437,-8.565c0.048,-0.238 0.139,-0.457 0.293,-0.646c0.058,-0.071 0.122,-0.131 0.189,-0.191c1.181,-0.917 2.417,-1.758 3.626,-2.636c0.17,-0.115 0.351,-0.201 0.553,-0.24c0.086,-0.016 0.172,-0.022 0.259,-0.025l3.561,-0.008c0.002,0.925 0.004,1.849 0.006,2.774l-3.112,0.007l-2.733,1.984l-1.175,6.982l7.761,4.657l6.661,-5.674c0.099,-0.076 0.122,-0.099 0.232,-0.159c0.248,-0.136 0.535,-0.194 0.816,-0.163c0.125,0.013 0.155,0.026 0.276,0.058l4.834,1.554l1.082,-0.417l-2.23,-6.544l-2.089,1.1c-0.125,0.06 -0.246,0.102 -0.381,0.134l-12.544,2.449l-0.531,-2.722l4.372,-0.854ZM106.298,47.692l-0.993,4.549l5.164,4.761l4.058,-8.39c0.832,0.402 1.665,0.805 2.497,1.207l-4.364,9.025l2.359,1.972l1.11,-5.036l0.029,-0.111c0.04,-0.11 0.081,-0.214 0.143,-0.314c0.161,-0.264 0.41,-0.468 0.699,-0.576c0.11,-0.041 0.221,-0.062 0.336,-0.079c0.116,-0.007 0.115,-0.007 0.231,-0.005c0.101,0.01 0.128,0.01 0.228,0.033c0.114,0.026 0.218,0.069 0.324,0.119l14.658,7.56c0.088,0.05 0.112,0.06 0.194,0.121c0.122,0.091 0.229,0.202 0.315,0.328c0.058,0.084 0.067,0.108 0.113,0.199l3.946,8.49c0.039,0.093 0.052,0.115 0.079,0.212c0.071,0.256 0.067,0.529 -0.011,0.782c-0.034,0.11 -0.084,0.209 -0.139,0.31l-5.634,9.294c2.921,2.454 5.333,4.6 9.266,8.202l7.815,-4.267l-1.093,-4.14l2.682,-0.707c0.457,1.729 0.913,3.459 1.37,5.189c0.035,0.151 0.053,0.302 0.042,0.457c-0.025,0.333 -0.173,0.652 -0.411,0.886c-0.093,0.091 -0.196,0.163 -0.308,0.228l-7.938,4.335c0.962,0.885 2.009,1.85 3.161,2.912l11.26,-1.265l1.356,-6.719l-5.261,-7.569l-7.051,-5.58l-6.401,3.147l2.524,6.771l-2.599,0.968l-2.962,-7.946l-0.035,-0.108c-0.035,-0.149 -0.058,-0.294 -0.05,-0.448c0.02,-0.38 0.199,-0.742 0.489,-0.987c0.088,-0.075 0.183,-0.131 0.284,-0.186l4.525,-2.224l-1.78,-14.076c-0.016,-0.176 -0.011,-0.347 0.033,-0.518c0.109,-0.426 0.422,-0.782 0.831,-0.945c0.164,-0.065 0.333,-0.092 0.509,-0.098l6.138,-0.014c0.002,0.925 0.004,1.849 0.006,2.774l-4.568,0.01l1.463,11.573l1.156,-0.568c0.103,-0.046 0.204,-0.086 0.315,-0.11c0.097,-0.021 0.122,-0.021 0.221,-0.03c0.111,-0.002 0.111,-0.002 0.223,0.006c0.149,0.022 0.29,0.054 0.428,0.117c0.103,0.047 0.194,0.108 0.285,0.174l7.898,6.25c0.069,0.059 0.088,0.072 0.15,0.138c0.063,0.066 0.074,0.086 0.129,0.158l3.296,4.743l-0.015,-6.515l-3.52,-3.251l1.882,-2.037l3.347,3.091l4.393,-2.072l-5.331,-4.889l-14.092,1.485l-0.291,-2.758l14.715,-1.551l0.13,-0.008c0.043,0.002 0.087,0.003 0.13,0.005c0.115,0.015 0.145,0.015 0.257,0.046c0.168,0.047 0.326,0.125 0.465,0.23c0.035,0.027 0.067,0.056 0.1,0.084l6.628,6.079l0.009,-0.005l0.011,0.024l0.223,0.204l7.805,-2.1l0.113,-0.026l0.115,-0.016c0.116,-0.006 0.116,-0.006 0.232,-0.003c0.117,0.014 0.229,0.031 0.341,0.069c0.258,0.086 0.487,0.249 0.654,0.464c0.073,0.093 0.126,0.193 0.177,0.299l1.135,2.616l0.289,-0.323l-2.194,-5.827l-6.578,-6.583l-13.752,0.031l0,-0.045l-0.011,0.015l-6.225,-4.84l-10.098,0.022l-5.289,4.802l-1.109,-1.222l-3.367,-3.574l-12.775,-9.316l-11.244,2.411ZM208.991,90.001l-0.007,-2.947l-9.415,-11.284l-2.339,2.413l0.005,2.177l0.725,-0.439c0.105,-0.058 0.209,-0.109 0.325,-0.144c0.101,-0.03 0.128,-0.031 0.232,-0.047c0.119,-0.009 0.118,-0.009 0.237,-0.008c0.105,0.011 0.132,0.01 0.235,0.034c0.155,0.035 0.303,0.097 0.436,0.183c0.089,0.057 0.108,0.077 0.188,0.144l6.097,5.57c0.066,0.064 0.065,0.063 0.127,0.132c1.083,1.381 2.125,2.793 3.154,4.216ZM37.375,72.225c-3.098,3.709 -4.563,5.493 -7.567,12.986l-1.052,2.365l0.007,2.795l2.212,-3.343l7.237,-9.704l-0.837,-5.099ZM184.04,82.173l3.665,4.524l0.611,-0.817l0.067,-0.083c0.065,-0.068 0.08,-0.088 0.152,-0.148c0.073,-0.061 0.094,-0.072 0.173,-0.124l2.271,-1.376l-1.812,-3.365l-5.127,1.389ZM167.142,74.008l-5.344,2.519l0.019,8.476l6.47,-1.053c-0.022,-2.555 -0.462,-4.978 -1.145,-9.942ZM169.836,73.238l1.362,9.966l7.931,-2.992l-3.681,-8.485l-5.612,1.511ZM95.14,62.15l-5.966,3.155l-0.104,0.049c-0.109,0.042 -0.215,0.077 -0.331,0.095c-0.266,0.042 -0.541,0.004 -0.786,-0.107c-0.107,-0.048 -0.2,-0.111 -0.294,-0.18l-9.482,-7.582l-1.357,3.098l4.812,7.379l4.876,2.233l13.652,-5.513c0.114,-0.039 0.141,-0.054 0.26,-0.076c0.119,-0.023 0.15,-0.02 0.27,-0.025c0.046,0.003 0.091,0.006 0.136,0.008c0.045,0.007 0.09,0.012 0.134,0.021c0.133,0.028 0.262,0.075 0.382,0.14c0.106,0.058 0.128,0.08 0.224,0.152l9.904,8.247l-1.774,2.132l-9.267,-7.716l-12.727,5.139l-1.585,4.424l15.698,-4.046l0.095,-0.021c0.096,-0.015 0.096,-0.015 0.192,-0.022c0.098,-0.001 0.098,-0.001 0.194,0.005c0.163,0.022 0.317,0.059 0.466,0.131c0.352,0.169 0.622,0.487 0.731,0.863c0.036,0.126 0.05,0.253 0.055,0.383l0.007,3.293c2.333,-0.039 4.666,-0.072 6.997,0.031c0.042,0.006 0.085,0.01 0.127,0.018c0.113,0.021 0.139,0.034 0.248,0.07l10.264,3.972l2.809,-2.435c-7.866,-6.331 -10.665,-8.483 -22.04,-17.33l-6.82,0.015ZM194.934,45.615l17.737,17.721c0.075,0.081 0.144,0.161 0.202,0.256c0.095,0.154 0.159,0.327 0.187,0.506c0.016,0.095 0.014,0.12 0.018,0.216l0.013,5.68c-0.006,0.155 -0.024,0.303 -0.074,0.45c-0.137,0.402 -0.459,0.725 -0.86,0.864c-0.147,0.051 -0.295,0.069 -0.45,0.076l-4.152,0.009l5.194,5.724c0.079,0.096 0.103,0.118 0.167,0.226c0.063,0.107 0.071,0.139 0.117,0.254l1.263,3.67l0.777,-7.156l-1.427,-11.663l-16.538,-17.745l-2.174,0.912ZM58.872,72.959l1.277,8.255l2.874,-6.083l-2.596,-4.429l-1.555,2.257ZM75.849,64.267l-3.084,0.664l-1.067,5.552l7.472,3.277l-1.114,2.54l-5.641,-2.474l-0.672,2.801l8.311,4.288l2.842,-2.922l1.94,-5.418l-4.724,-2.164l-0.099,-0.05c-0.096,-0.06 -0.187,-0.12 -0.27,-0.197c-0.083,-0.078 -0.149,-0.164 -0.215,-0.256l-3.679,-5.641ZM117.417,62.82l4.906,4.1l0.11,0.103c0.088,0.101 0.114,0.124 0.185,0.239c0.105,0.172 0.171,0.367 0.194,0.568c0.005,0.05 0.005,0.1 0.008,0.151l0.016,6.963c2.742,2.218 4.844,3.922 6.647,5.407l5.035,-8.308l-3.434,-7.389l-12.635,-6.516l-1.032,4.682ZM188.113,78.196l-1.557,-4.985l-5.15,0.011l-1.295,1.446l-0.594,-0.532l2.291,5.282l0.397,0.49l-0.028,-0.103l5.936,-1.609ZM39.727,59.69l-2.119,5.281c-0.032,0.073 -0.031,0.073 -0.067,0.144c-0.04,0.069 -0.04,0.068 -0.084,0.135c-2.107,2.834 -4.373,5.546 -6.561,8.318c-0.061,0.072 -0.122,0.14 -0.195,0.201c-0.097,0.082 -0.202,0.144 -0.315,0.2l-6.522,2.994l-1.157,-2.52l6.219,-2.855c4.78,-6.058 5.353,-5.768 8.227,-12.93c0.858,0.344 1.716,0.688 2.574,1.032ZM43.743,69.908l-1.729,-3.461c-0.846,1.114 -1.606,2.079 -2.296,2.935l0.798,4.854l3.227,-4.328ZM102.866,53.765l0.013,5.571l17.178,13.363l-0.009,-4.066l-11.276,-9.423l-5.906,-5.445ZM122.306,41.583l-13.876,0.031l-9.5,4.749l4.012,3.699l0.837,-3.834c0.029,-0.115 0.064,-0.226 0.118,-0.332c0.133,-0.263 0.351,-0.479 0.614,-0.612c0.107,-0.053 0.217,-0.088 0.332,-0.116l13.324,-2.858l0.003,-0.004l0.004,0.002l0.019,-0.004l0.005,0.022l13.858,10.106c0.068,0.053 0.13,0.108 0.192,0.17l2.719,2.887l3.646,-3.31c0.077,-0.065 0.094,-0.083 0.179,-0.138c0.127,-0.082 0.267,-0.143 0.413,-0.18c0.112,-0.028 0.222,-0.037 0.337,-0.042c3.737,-0.009 7.476,-0.151 11.211,-0.022c0.172,0.019 0.335,0.055 0.492,0.129c0.094,0.044 0.177,0.1 0.261,0.16l5.883,4.574c4.486,-0.031 8.975,-0.19 13.458,-0.023c0.11,0.013 0.216,0.029 0.321,0.063c0.139,0.045 0.27,0.112 0.388,0.198c0.079,0.057 0.095,0.076 0.166,0.141l7.197,7.203c0.068,0.073 0.131,0.146 0.185,0.229c0.053,0.084 0.094,0.171 0.132,0.263l0.629,1.67l1.179,-5.001l-1.755,-4.361l-10.211,-5.771c-3.946,-1.294 -7.733,-3.256 -11.838,-3.882c-8.845,-1.348 -15.577,0.394 -24.055,1.831l0,-0.001l-0.002,0.003l-10.877,-7.639ZM89.422,47.604c-1.835,0.062 -3.259,0.171 -5.099,0.369l0.013,5.682c-0.003,0.133 -0.018,0.263 -0.055,0.391c-0.093,0.318 -0.301,0.597 -0.579,0.777c-0.093,0.06 -0.192,0.105 -0.295,0.144l-2.824,0.986l8.098,6.475l5.465,-2.889l0.101,-0.049c0.093,-0.035 0.115,-0.047 0.212,-0.071c0.11,-0.028 0.219,-0.036 0.332,-0.041l5.314,-0.012l-0.005,-2.514l-5.385,0.012l-5.115,3.083l-0.077,0.043c-0.107,0.051 -0.214,0.095 -0.33,0.121c-0.316,0.072 -0.653,0.03 -0.942,-0.118c-0.106,-0.054 -0.199,-0.123 -0.29,-0.199c-0.748,-0.711 -1.453,-1.467 -2.178,-2.201c-0.061,-0.066 -0.119,-0.133 -0.169,-0.209c-0.135,-0.204 -0.204,-0.431 -0.228,-0.673c-0.066,-1.921 -0.011,-3.845 -0.016,-5.767c0.003,-0.088 0.008,-0.174 0.024,-0.261c0.049,-0.257 0.172,-0.499 0.351,-0.691c0.081,-0.086 0.171,-0.156 0.268,-0.222l3.409,-2.166ZM40.625,33.357l-6.279,6.156l2.096,12.446c0.014,0.109 0.023,0.214 0.016,0.323c-0.008,0.11 -0.031,0.213 -0.059,0.318l-2.171,6.997l-2.649,-0.822l2.073,-6.681l-2.161,-12.834l-0.015,-0.121c-0.004,-0.123 -0.004,-0.241 0.019,-0.362c0.037,-0.199 0.117,-0.389 0.235,-0.554c0.063,-0.088 0.084,-0.105 0.158,-0.184l6.796,-6.662c0.647,0.66 1.294,1.32 1.941,1.98ZM100.087,51.202l-3.987,-3.676c-0.488,0.001 -0.951,0.003 -1.39,0.004l-6.564,4.171l0.009,4.347l0.948,0.96l4.509,-2.718c0.146,-0.082 0.298,-0.145 0.464,-0.176c0.083,-0.015 0.165,-0.02 0.249,-0.023l5.769,-0.013l-0.007,-2.876ZM71.631,26.551l0.002,0.014l-11.818,1.946l-9.526,8.811l-5.864,8.987l1.682,10.034l7.555,-12.148c0.785,0.488 1.57,0.976 2.355,1.465l-1.744,2.804l8.305,-1.853l5.049,-6.893l-0.014,-6.328l-1.284,-1.16l-5.554,5.836l-2.01,-1.912l6.486,-6.814c0.065,-0.064 0.079,-0.081 0.151,-0.137c0.134,-0.105 0.287,-0.185 0.45,-0.234c0.099,-0.03 0.197,-0.045 0.3,-0.056c0.103,-0.004 0.102,-0.004 0.204,0c0.102,0.011 0.201,0.025 0.3,0.055c0.2,0.06 0.37,0.165 0.529,0.298l2.743,2.477c0.076,0.074 0.147,0.149 0.208,0.236c0.12,0.173 0.201,0.373 0.233,0.581c0.014,0.092 0.013,0.116 0.016,0.209l0.017,7.398c-0.006,0.165 -0.027,0.323 -0.084,0.479c-0.034,0.093 -0.08,0.178 -0.129,0.263c-1.344,1.977 -2.788,3.882 -4.222,5.796l0.006,0.022l5.927,-1.125l6.081,-7.96l-5.696,-1.567c-0.043,-0.015 -0.087,-0.027 -0.13,-0.043c-0.17,-0.066 -0.327,-0.165 -0.459,-0.29c-0.403,-0.385 -0.538,-0.991 -0.335,-1.51c0.067,-0.169 0.167,-0.325 0.293,-0.457c0.032,-0.033 0.066,-0.062 0.1,-0.093l4.861,-4.141l-4.984,-2.99ZM101.065,22.608l-8.863,3.416l-0.127,0.042c-0.044,0.01 -0.087,0.022 -0.131,0.03c-0.133,0.023 -0.269,0.027 -0.402,0.011c-0.119,-0.014 -0.148,-0.026 -0.263,-0.057l-4.565,-1.467l-11.168,9.512l5.153,1.418c0.045,0.015 0.091,0.027 0.135,0.045c0.133,0.051 0.258,0.124 0.369,0.214c0.414,0.334 0.602,0.892 0.475,1.409c-0.034,0.138 -0.09,0.271 -0.164,0.393c-0.025,0.041 -0.054,0.078 -0.081,0.118l-2.277,2.981l8.678,-0.02l0.006,2.774l-10.806,0.024l-3.252,4.257c-0.072,0.086 -0.088,0.11 -0.171,0.186c-0.126,0.113 -0.272,0.204 -0.429,0.265c-0.105,0.041 -0.134,0.043 -0.244,0.069l-6.327,1.201l0.765,3.236l2.202,1.963l6.892,-0.016c0.024,-0.037 0.05,-0.074 0.078,-0.11c0.177,-0.221 0.421,-0.384 0.693,-0.464c0.118,-0.035 0.235,-0.048 0.358,-0.056c0.04,0.001 0.08,0.002 0.12,0.003c0.028,0.003 0.05,0.005 0.07,0.007l3.771,-1.318l-0.01,-4.38c-1.071,0.129 -2.303,0.28 -3.77,0.457l-0.331,-2.754l10.099,-1.215l0.081,-0.008l0.082,-0.002l8.236,-0.019l7.779,-3.888l-9.682,-1.031l-0.107,-0.016c-0.095,-0.022 -0.119,-0.024 -0.211,-0.057c-0.104,-0.037 -0.197,-0.088 -0.292,-0.144l-7.765,-5.06l0.122,-0.186l-2.781,1.555l-1.353,-2.421l8.234,-4.605l0.118,-0.059c0.109,-0.042 0.136,-0.056 0.25,-0.083c0.215,-0.049 0.44,-0.046 0.654,0.009c0.113,0.029 0.139,0.045 0.248,0.09l6.445,3.046c8.772,-2.255 8.66,-2.627 16.901,-6.385l0.121,-0.049c0.111,-0.032 0.138,-0.045 0.253,-0.061c0.115,-0.017 0.145,-0.013 0.261,-0.014c0.043,0.004 0.086,0.008 0.13,0.012c0.128,0.024 0.127,0.024 0.253,0.06l5.815,1.961c0.044,0.017 0.088,0.032 0.131,0.052c0.129,0.058 0.248,0.137 0.353,0.231c0.429,0.386 0.575,1.016 0.358,1.551c-0.053,0.131 -0.126,0.254 -0.216,0.363c-0.03,0.036 -0.064,0.069 -0.095,0.104l-9.228,9.103l8.59,-0.019l6.342,-9.726l-1.164,-0.985c-0.075,-0.017 -0.11,-0.033 -0.203,-0.066l-7.239,-3l-12.343,0.028l-0.131,-0.006c-0.116,-0.017 -0.146,-0.017 -0.258,-0.049c-0.042,-0.012 -0.083,-0.028 -0.124,-0.043l-4.329,-1.711c-0.121,-0.055 -0.155,-0.065 -0.266,-0.139c-0.19,-0.129 -0.347,-0.305 -0.453,-0.507ZM190.103,45.121l-4.175,-7.807l-5.923,-3.865l-2.639,5.757l0.01,4.466c1.588,1.103 3.143,2.253 4.695,3.408l-0.013,-5.576l2.774,-0.006l0.017,7.645c0.208,0.153 0.416,0.305 0.625,0.458c0.071,0.055 0.136,0.112 0.199,0.177l3.563,3.839l0.792,-8.16c0.02,-0.131 0.02,-0.166 0.061,-0.292c0.004,-0.015 0.009,-0.029 0.014,-0.044ZM165.198,35.921l5.221,7.718c0.058,0.094 0.106,0.186 0.149,0.287l2.399,6.357l1.653,0.934l-0.015,-6.813l0,0l-0.003,-1.124l-5.293,-7.64l-4.111,0.281ZM185.196,18.124l1.848,3.794l11.334,9.9c0.07,0.065 0.089,0.08 0.15,0.153c0.138,0.164 0.237,0.361 0.287,0.57c0.025,0.106 0.033,0.21 0.038,0.318l0.021,9.672l6.171,6.62l-0.014,-6.157c-3.096,-9.7 -2.557,-10.054 -8.498,-18.325l-11.337,-6.545ZM163.51,38.376l-4.559,2.33l2.099,5.014l8.251,2.705l-1.27,-3.367l-4.521,-6.682ZM143.587,39.884l-2.157,-1.845l-8.22,0.018l-3.372,5.427l4.004,2.812l7.897,-1.339l-0.008,-3.363c0.003,-0.093 0.009,-0.183 0.027,-0.275c0.061,-0.303 0.224,-0.581 0.458,-0.781c0.095,-0.081 0.199,-0.144 0.309,-0.201c0.353,-0.152 0.707,-0.303 1.062,-0.453ZM157.584,44.622l-2.603,-6.214l-10.474,4.126l0.005,2.11l12.945,-0.029l0.127,0.007ZM187.914,26.36c-0.004,0.631 -0.011,1.262 -0.01,1.892c-0.003,0.102 -0.01,0.2 -0.031,0.299c-0.011,0.048 -0.024,0.096 -0.04,0.142l6.097,5.623c0.06,0.059 0.077,0.073 0.131,0.138c0.141,0.172 0.24,0.377 0.286,0.595c0.02,0.094 0.026,0.187 0.03,0.283l0.017,7.502l1.706,-0.715l-0.019,-8.625l-8.167,-7.134ZM185.745,30.54l-2.379,1.742c1.461,0.963 2.909,1.947 4.375,2.903c0.072,0.05 0.14,0.101 0.204,0.162c0.106,0.102 0.188,0.219 0.261,0.345l3.412,6.381l-0.013,-6.129l-5.86,-5.404ZM124.118,39.466l3.447,2.422l5.216,-8.394l-3.073,-2.601l-5.59,8.573ZM161.944,36.062l-0.146,-0.216l-15.655,-6.036l-9.594,2.874l-1.607,2.587c2.359,-0.025 4.719,-0.069 7.077,-0.005c0.083,0.008 0.163,0.017 0.244,0.036c0.216,0.052 0.406,0.156 0.579,0.295l3.636,3.11c2.906,-1.15 5.841,-2.231 8.75,-3.377c0.15,-0.054 0.296,-0.084 0.455,-0.096c0.094,0 0.093,0 0.186,0.006c0.125,0.016 0.245,0.04 0.363,0.085c0.262,0.101 0.491,0.281 0.65,0.514c0.053,0.078 0.094,0.16 0.133,0.245l0.861,2.056l4.068,-2.078ZM176.726,33.89l-3.651,-8.623l-3.495,2.082l3.488,8.72l-0.069,0.028l1.659,2.393c0.008,-0.028 0.017,-0.056 0.027,-0.084c0.642,-1.522 1.338,-3.021 2.041,-4.516ZM108.901,38.627l9.419,-9.292l-3.161,-1.066l-9.87,4.5c-0.114,0.046 -0.114,0.046 -0.23,0.082l-7.248,1.863c-0.045,0.009 -0.089,0.02 -0.135,0.027c-0.181,0.028 -0.367,0.02 -0.545,-0.025c-0.118,-0.029 -0.145,-0.045 -0.258,-0.092l-6.252,-2.955l-2.315,1.296l6.363,4.146l14.232,1.516ZM144.671,26.377l0.009,0.092l-1.07,0.1l-0.281,0.051l-0.005,-0.024l-12.967,1.212l3.903,3.305l0.21,-0.338c0.073,-0.105 0.087,-0.134 0.176,-0.226c0.132,-0.139 0.293,-0.249 0.469,-0.323c0.044,-0.018 0.09,-0.032 0.135,-0.048l10.551,-3.16c0.05,-0.012 0.098,-0.027 0.148,-0.036c0.134,-0.025 0.168,-0.02 0.303,-0.022c0.051,0.005 0.101,0.01 0.152,0.014c0.149,0.031 0.149,0.031 0.294,0.078l16.203,6.247l5.91,-0.405l-1.629,-4.071l-2.5,1.647l-0.101,0.06c-0.094,0.046 -0.116,0.061 -0.215,0.095c-0.186,0.063 -0.386,0.086 -0.581,0.067c-0.12,-0.012 -0.23,-0.042 -0.344,-0.078l-13.927,-5.115l-4.843,0.878ZM120.316,10.367l-4.417,-3.85l-5.479,0.012l-6.752,9.803l0.01,4.689l3.207,1.267l12.356,-0.027l0.136,0.006c0.045,0.007 0.091,0.011 0.136,0.02c0.119,0.024 0.147,0.038 0.262,0.079l7.177,2.975l16.281,-1.522l6.157,-1.116l0.122,-0.016l0.122,-0.006c0.041,0.002 0.082,0.003 0.123,0.005c0.041,0.005 0.081,0.009 0.122,0.016c0.107,0.019 0.133,0.031 0.237,0.064l5.9,2.166l3.927,-4.063c0.144,-0.14 0.303,-0.253 0.491,-0.327c0.08,-0.031 0.161,-0.052 0.245,-0.071l8.268,-1.587c0.175,0.908 0.349,1.815 0.523,2.723l-7.838,1.505l-2.769,2.866l4.878,1.791l3.334,-2.197l0.106,-0.063c0.076,-0.037 0.152,-0.07 0.23,-0.096l7.802,-4.648c0.296,-0.452 0.595,-0.902 0.899,-1.347c0.04,-0.053 0.04,-0.053 0.083,-0.104c0.06,-0.065 0.122,-0.127 0.192,-0.181c0.212,-0.165 0.462,-0.257 0.728,-0.287c0.067,-0.004 0.132,-0.005 0.198,-0.003c0.202,0.016 0.388,0.067 0.57,0.157c1.02,0.567 2.027,1.159 3.02,1.773c0.157,0.107 0.293,0.236 0.399,0.394c0.046,0.07 0.084,0.144 0.119,0.221c0.696,1.722 1.356,3.459 1.971,5.211c0.044,0.15 0.07,0.301 0.067,0.458c-0.009,0.447 -0.241,0.871 -0.612,1.121c-0.148,0.1 -0.312,0.164 -0.485,0.206l-4.546,0.968l0.508,1.2c0.008,-0.01 0.017,-0.02 0.025,-0.031c0.177,-0.212 0.416,-0.368 0.681,-0.445c0.089,-0.025 0.178,-0.039 0.27,-0.049c0.091,-0.005 0.091,-0.005 0.183,-0.004c0.092,0.008 0.182,0.018 0.272,0.041c0.12,0.03 0.23,0.079 0.339,0.136c0.259,0.156 0.516,0.315 0.772,0.474l4.263,-3.121l-0.007,-3.247l-4.217,-8.66l-2.632,-1.519l-8.43,4.388l-0.013,-0.025l-10.468,0.848l-3.596,2.362l-0.152,0.087c-0.054,0.022 -0.106,0.047 -0.161,0.066c-0.166,0.057 -0.342,0.082 -0.516,0.073c-0.156,-0.008 -0.193,-0.024 -0.344,-0.061l-4.772,-1.481l-10.237,0.664l-0.068,0.112l-0.158,-0.097l-10.109,0.656l-0.132,0.002c-0.132,-0.01 -0.132,-0.01 -0.262,-0.033l-9.833,-2.21l-8.416,0.971l-0.179,0.009c-0.06,-0.004 -0.12,-0.005 -0.179,-0.014c-0.119,-0.017 -0.235,-0.05 -0.345,-0.097c-0.389,-0.165 -0.687,-0.509 -0.796,-0.917c-0.041,-0.155 -0.036,-0.196 -0.047,-0.355l-0.01,-4.555c0.003,-0.058 0.003,-0.115 0.01,-0.172c0.028,-0.229 0.114,-0.45 0.249,-0.638c0.089,-0.125 0.123,-0.147 0.233,-0.253l5.338,-4.503c0.044,-0.034 0.087,-0.07 0.134,-0.101c0.14,-0.091 0.297,-0.157 0.461,-0.194c0.146,-0.032 0.184,-0.027 0.333,-0.032c0.055,0.005 0.111,0.01 0.167,0.014c0.164,0.035 0.164,0.035 0.322,0.088l4.019,1.638ZM103.911,11.089l-9.714,-6.712l-11.947,1.32l-0.186,0.008l-0.186,-0.017l-7.829,-1.254c-7.364,4.095 -7.327,4.278 -12.886,10.609l-0.133,0.132c-0.149,0.113 -0.149,0.113 -0.312,0.205l-3.833,1.828l-5.992,2.615l-7.306,8.421l2.556,0.826l8.894,-9.25l0.101,-0.095c0.037,-0.028 0.072,-0.058 0.11,-0.084c0.152,-0.106 0.326,-0.18 0.507,-0.217c0.121,-0.026 0.152,-0.023 0.275,-0.029l8.846,-0.044l-0.965,-4.97l-0.021,-0.15c-0.003,-0.134 -0.01,-0.169 0.008,-0.303c0.042,-0.301 0.184,-0.585 0.401,-0.799c0.096,-0.095 0.127,-0.11 0.237,-0.187l11.045,-6.921c0.113,-0.063 0.14,-0.084 0.262,-0.129c0.142,-0.051 0.281,-0.07 0.43,-0.082c0.049,0.001 0.098,0.002 0.147,0.003c0.129,0.016 0.162,0.016 0.287,0.052c0.126,0.037 0.153,0.056 0.271,0.112l9.983,5.412c0.043,0.027 0.088,0.051 0.129,0.08c0.125,0.086 0.235,0.193 0.326,0.315c0.305,0.414 0.355,0.977 0.128,1.437c-0.067,0.137 -0.156,0.262 -0.264,0.369c-0.036,0.035 -0.075,0.067 -0.113,0.101l-1.96,1.57l2.106,-0.411l4.741,-2.497l-5.158,-4.097l1.725,-2.172c2.274,1.807 4.549,3.614 6.823,5.42c0.157,0.135 0.289,0.286 0.381,0.473c0.229,0.464 0.176,1.033 -0.135,1.447c-0.126,0.166 -0.283,0.29 -0.462,0.393l-2.23,1.174l0.968,2.838l3.207,-2.934l-0.009,-3.846c0.002,-0.075 0.002,-0.074 0.008,-0.15c0.02,-0.15 0.056,-0.294 0.119,-0.432c0.158,-0.343 0.456,-0.612 0.813,-0.734c0.12,-0.04 0.242,-0.061 0.367,-0.071c0.076,-0.003 0.075,-0.003 0.15,-0.001c0.126,0.01 0.248,0.029 0.368,0.069c0.096,0.032 0.185,0.076 0.272,0.125l3.899,2.325l0.751,-1.091ZM175.902,24.831l0.813,1.92l3.489,-0.743l-1.181,-3.124l-1.344,-0.789l-1.777,2.736ZM101.583,14.469l-1.64,-0.978l0.005,2.01c-0.002,0.072 -0.002,0.072 -0.007,0.144c-0.031,0.242 -0.11,0.468 -0.253,0.667c-0.056,0.079 -0.121,0.149 -0.191,0.216l-4.555,4.167l0.392,1.149l5.568,-2.146l-0.009,-3.793c0.006,-0.124 0.003,-0.156 0.028,-0.278c0.027,-0.137 0.076,-0.27 0.143,-0.393c0.023,-0.041 0.049,-0.079 0.074,-0.119l0.445,-0.646ZM166.762,15.956l-6.301,-3.975l-6.674,3.011l-0.099,0.04c-0.172,0.055 -0.343,0.089 -0.525,0.081c-0.109,-0.004 -0.212,-0.024 -0.317,-0.049l-8.204,-2.279l-3.286,5.369l8.541,-0.555l0.169,0c0.169,0.02 0.168,0.02 0.332,0.06l4.392,1.363l3.345,-2.197l0.151,-0.086c0.053,-0.022 0.105,-0.047 0.16,-0.066c0.146,-0.05 0.187,-0.049 0.339,-0.071l7.977,-0.646ZM141.149,13.179l-5.057,2.523c-0.129,0.055 -0.16,0.075 -0.298,0.108c-0.103,0.024 -0.209,0.037 -0.315,0.037c-0.053,0.001 -0.106,-0.005 -0.158,-0.008l-12.075,-1.34c-0.112,-0.017 -0.141,-0.018 -0.25,-0.051c-0.041,-0.012 -0.081,-0.028 -0.121,-0.043l-6.848,-2.791l-4.202,3.546l0.005,2.356l7.108,-0.82l0.155,-0.009c0.156,0.008 0.155,0.008 0.308,0.034l9.868,2.218l8.7,-0.565l3.18,-5.195ZM173.023,13.733l-11.929,-9.074l-5.817,-1.655l-6.564,3.13l-2.565,4.19l3.325,0.924c0.448,-1.038 0.894,-2.077 1.372,-3.102c0.037,-0.072 0.078,-0.142 0.126,-0.208c0.146,-0.199 0.341,-0.347 0.564,-0.45l5.138,-2.237c0.369,0.847 0.738,1.695 1.107,2.543l-4.64,2.02l-0.961,2.186l0.926,0.257l6.895,-3.111l0.106,-0.043c0.112,-0.034 0.217,-0.058 0.333,-0.074c0.114,-0.006 0.114,-0.006 0.228,-0.002c0.115,0.012 0.225,0.029 0.335,0.065c0.11,0.036 0.209,0.088 0.309,0.145l9.199,5.804l2.513,-1.308ZM123.706,11.749l0.037,0.015l11.477,1.273l4.003,-1.997l-1.504,-3.092l-9.647,-2.308l-4.366,6.109Z" style="fill:#042ff1;"/></svg>