<?xml version="1.0" standalone="no"?><!DOCTYPE svg PUBLIC "-//W3C//DTD SVG 1.1//EN" "http://www.w3.org/Graphics/SVG/1.1/DTD/svg11.dtd"><svg width="100%" height="100%" viewBox="0 0 200 128" version="1.1" xmlns="http://www.w3.org/2000/svg" xmlns:xlink="http://www.w3.org/1999/xlink" xml:space="preserve" style="fill-rule:evenodd;clip-rule:evenodd;stroke-linejoin:round;stroke-miterlimit:1.41421;"><g id="Layer1"><g><path d="M185.457,116.723l-173.273,0l0,-116.723l173.273,0c0,38.908 0,77.815 0,116.723ZM15.2,113.707l167.241,0l0,-110.691l-167.241,0c0,36.897 0,73.794 0,110.691Z" style="fill:#042ff1;fill-rule:nonzero;"/><path d="M177.125,116.723l-156.61,0c0,0 0,-71.247 0,-106.871l156.61,0c0,35.624 0,71.247 0,106.871ZM23.531,12.868l0,100.839l150.578,0l0,-100.839c-50.193,0 -100.385,0 -150.578,0Z" style="fill:#042ff1;fill-rule:nonzero;"/><path d="M200,122.725l-15.848,4.343l-170.701,0l-13.451,-4.4l0,-8.961l200,0c0,3.006 0,6.012 0,9.018ZM3.016,116.723l0,3.758l10.916,3.571l169.814,0l13.238,-3.628l0,-3.701c-64.656,0 -129.312,0 -193.968,0Z" style="fill:#042ff1;fill-rule:nonzero;"/><path d="M125.661,121.459l-51.322,0l0,-7.752l51.322,0c0,2.584 0,5.168 0,7.752ZM77.355,116.723l0,1.72l45.29,0l0,-1.72c-15.097,0 -30.193,0 -45.29,0Z" style="fill:#042ff1;fill-rule:nonzero;"/><path d="M48.726,112.384l-3.016,0l0,-9.048l3.016,0c0,3.016 0,6.032 0,9.048ZM48.726,97.304l-3.016,0l0,-9.048l3.016,0c0,3.016 0,6.032 0,9.048ZM48.726,82.224l-3.016,0l0,-9.047l3.016,0c0,3.015 0,6.031 0,9.047ZM48.726,67.145l-3.016,0l0,-9.048l3.016,0c0,3.016 0,6.032 0,9.048ZM48.726,52.065l-3.016,0l0,-9.048l3.016,0c0,3.016 0,6.032 0,9.048ZM48.726,36.985l-3.016,0l0,-9.048l3.016,0c0,3.016 0,6.032 0,9.048ZM48.726,21.905l-3.016,0l0,-9.048l3.016,0c0,3.016 0,6.032 0,9.048Z" style="fill:#7e94f8;fill-rule:nonzero;"/><path d="M76.852,113.638l-2.011,0l0,-0.249l2.011,0c0,0.083 0,0.166 0,0.249ZM76.852,109.368l-2.011,0l0,-6.032l2.011,0c0,2.011 0,4.021 0,6.032ZM76.852,99.315l-2.011,0l0,-6.032l2.011,0c0,2.011 0,4.021 0,6.032ZM76.852,89.262l-2.011,0l0,-6.032l2.011,0c0,2.01 0,4.021 0,6.032ZM76.852,79.208l-2.011,0l0,-6.031l2.011,0c0,2.01 0,4.021 0,6.031ZM76.852,69.155l-2.011,0l0,-6.032l2.011,0c0,2.011 0,4.022 0,6.032ZM76.852,59.102l-2.011,0l0,-6.032l2.011,0c0,2.011 0,4.021 0,6.032ZM76.852,49.049l-2.011,0l0,-6.032l2.011,0c0,2.011 0,4.021 0,6.032ZM76.852,38.996l-2.011,0l0,-6.032l2.011,0c0,2.01 0,4.021 0,6.032ZM76.852,28.942l-2.011,0l0,-6.031l2.011,0c0,2.01 0,4.021 0,6.031ZM76.852,18.889l-2.011,0l0,-6.032l2.011,0c0,2.011 0,4.022 0,6.032Z" style="fill:#c7d1fc;fill-rule:nonzero;"/><path d="M151.95,112.384l-3.016,0l0,-9.048l3.016,0c0,3.016 0,6.032 0,9.048ZM151.95,97.304l-3.016,0l0,-9.048l3.016,0c0,3.016 0,6.032 0,9.048ZM151.95,82.224l-3.016,0l0,-9.047l3.016,0c0,3.015 0,6.031 0,9.047ZM151.95,67.145l-3.016,0l0,-9.048l3.016,0c0,3.016 0,6.032 0,9.048ZM151.95,52.065l-3.016,0l0,-9.048l3.016,0c0,3.016 0,6.032 0,9.048ZM151.95,36.985l-3.016,0l0,-9.048l3.016,0c0,3.016 0,6.032 0,9.048ZM151.95,21.905l-3.016,0l0,-9.048l3.016,0c0,3.016 0,6.032 0,9.048Z" style="fill:#7e94f8;fill-rule:nonzero;"/><path d="M125.159,113.638l-2.011,0l0,-0.249l2.011,0c0,0.083 0,0.166 0,0.249ZM125.159,109.368l-2.011,0l0,-6.032l2.011,0c0,2.011 0,4.021 0,6.032ZM125.159,99.315l-2.011,0l0,-6.032l2.011,0c0,2.011 0,4.021 0,6.032ZM125.159,89.262l-2.011,0l0,-6.032l2.011,0c0,2.01 0,4.021 0,6.032ZM125.159,79.208l-2.011,0l0,-6.031l2.011,0c0,2.01 0,4.021 0,6.031ZM125.159,69.155l-2.011,0l0,-6.032l2.011,0c0,2.011 0,4.022 0,6.032ZM125.159,59.102l-2.011,0l0,-6.032l2.011,0c0,2.011 0,4.021 0,6.032ZM125.159,49.049l-2.011,0l0,-6.032l2.011,0c0,2.011 0,4.021 0,6.032ZM125.159,38.996l-2.011,0l0,-6.032l2.011,0c0,2.01 0,4.021 0,6.032ZM125.159,28.942l-2.011,0l0,-6.031l2.011,0c0,2.01 0,4.021 0,6.031ZM125.159,18.889l-2.011,0l0,-6.032l2.011,0c0,2.011 0,4.022 0,6.032Z" style="fill:#c7d1fc;fill-rule:nonzero;"/></g></g></svg>