<?xml version="1.0" standalone="no"?><!DOCTYPE svg PUBLIC "-//W3C//DTD SVG 1.1//EN" "http://www.w3.org/Graphics/SVG/1.1/DTD/svg11.dtd"><svg width="100%" height="100%" viewBox="0 0 116 24" version="1.1" xmlns="http://www.w3.org/2000/svg" xmlns:xlink="http://www.w3.org/1999/xlink" xml:space="preserve" style="fill-rule:evenodd;clip-rule:evenodd;stroke-linecap:square;stroke-miterlimit:1.41421;"><g id="logo"><path d="M1.295,22.737l0,-21.474l4.654,0l9.696,14.341l0,-14.341l4.444,0l0,21.474l-4.8,0l-9.55,-14.004l0,14.004l-4.444,0Z" style="fill:#b2b2b2;fill-rule:nonzero;stroke-width:1.5px;stroke:#b2b2b2;"/><path d="M24.064,14.739c0,-1.367 0.372,-2.69 1.115,-3.969c0.744,-1.28 1.797,-2.256 3.16,-2.93c1.362,-0.674 2.884,-1.011 4.565,-1.011c2.596,0 4.724,0.764 6.383,2.293c1.659,1.528 2.488,3.459 2.488,5.793c0,2.354 -0.837,4.304 -2.512,5.852c-1.676,1.548 -3.785,2.322 -6.327,2.322c-1.573,0 -3.073,-0.322 -4.501,-0.967c-1.427,-0.644 -2.512,-1.589 -3.256,-2.834c-0.743,-1.246 -1.115,-2.762 -1.115,-4.549ZM28.718,14.959c0,1.543 0.404,2.725 1.212,3.545c0.808,0.82 1.805,1.23 2.99,1.23c1.185,0 2.179,-0.41 2.981,-1.23c0.803,-0.82 1.204,-2.012 1.204,-3.574c0,-1.524 -0.401,-2.696 -1.204,-3.516c-0.802,-0.82 -1.796,-1.23 -2.981,-1.23c-1.185,0 -2.182,0.41 -2.99,1.23c-0.808,0.82 -1.212,2.002 -1.212,3.545Z" style="fill:#b2b2b2;fill-rule:nonzero;stroke-width:1.5px;stroke:#b2b2b2;"/><path d="M60.521,14.842l4.638,1.333c-0.711,2.344 -1.894,4.084 -3.547,5.222c-1.654,1.138 -3.752,1.707 -6.295,1.707c-3.145,0 -5.731,-0.975 -7.756,-2.923c-2.026,-1.948 -3.038,-4.612 -3.038,-7.991c0,-3.574 1.018,-6.35 3.054,-8.327c2.036,-1.978 4.713,-2.967 8.031,-2.967c2.898,0 5.252,0.777 7.062,2.33c1.078,0.918 1.886,2.236 2.424,3.955l-4.735,1.025c-0.28,-1.113 -0.864,-1.992 -1.753,-2.637c-0.889,-0.644 -1.969,-0.966 -3.24,-0.966c-1.756,0 -3.181,0.571 -4.274,1.713c-1.094,1.143 -1.641,2.994 -1.641,5.552c0,2.715 0.539,4.649 1.616,5.801c1.078,1.152 2.478,1.728 4.202,1.728c1.271,0 2.365,-0.366 3.28,-1.098c0.916,-0.733 1.573,-1.885 1.972,-3.457Z" style="fill:#b2b2b2;fill-rule:nonzero;stroke-width:1.5px;stroke:#b2b2b2;"/><path d="M68.294,12.132c0,-2.188 0.361,-4.024 1.083,-5.508c0.538,-1.094 1.274,-2.075 2.205,-2.944c0.932,-0.869 1.953,-1.514 3.063,-1.934c1.476,-0.566 3.178,-0.85 5.106,-0.85c3.491,0 6.284,0.982 8.379,2.945c2.096,1.963 3.143,4.692 3.143,8.188c0,3.467 -1.039,6.179 -3.119,8.138c-2.079,1.958 -4.858,2.937 -8.338,2.937c-3.523,0 -6.324,-0.975 -8.403,-2.923c-2.08,-1.948 -3.119,-4.631 -3.119,-8.049ZM73.223,11.985c0,2.432 0.619,4.275 1.858,5.53c1.239,1.255 2.812,1.882 4.719,1.882c1.907,0 3.471,-0.622 4.694,-1.867c1.223,-1.245 1.834,-3.113 1.834,-5.603c0,-2.461 -0.595,-4.297 -1.785,-5.508c-1.191,-1.211 -2.772,-1.816 -4.743,-1.816c-1.972,0 -3.561,0.612 -4.767,1.838c-1.207,1.226 -1.81,3.074 -1.81,5.544Z" style="fill:#b2b2b2;fill-rule:nonzero;stroke-width:1.5px;stroke:#b2b2b2;"/><path d="M101.228,22.737l0,-9.038l-8.678,-12.436l5.607,0l5.575,8.496l5.463,-8.496l5.51,0l-8.71,12.466l0,9.008l-4.767,0Z" style="fill:#b2b2b2;fill-rule:nonzero;stroke-width:1.5px;stroke:#b2b2b2;"/></g></svg>