<?xml version="1.0" standalone="no"?><!DOCTYPE svg PUBLIC "-//W3C//DTD SVG 1.1//EN" "http://www.w3.org/Graphics/SVG/1.1/DTD/svg11.dtd"><svg width="100%" height="100%" viewBox="0 0 92 30" version="1.1" xmlns="http://www.w3.org/2000/svg" xmlns:xlink="http://www.w3.org/1999/xlink" xml:space="preserve" style="fill-rule:evenodd;clip-rule:evenodd;stroke-linejoin:round;stroke-miterlimit:1.41421;"><path d="M15.038,0.121c8.191,0 14.841,6.65 14.841,14.841c0,8.191 -6.65,14.841 -14.841,14.841c-8.191,0 -14.841,-6.65 -14.841,-14.841c0,-8.191 6.65,-14.841 14.841,-14.841ZM8.434,7.331l3.344,0l0,8.971c0,1.424 0.042,2.347 0.125,2.768c0.143,0.678 0.484,1.222 1.022,1.633c0.539,0.41 1.275,0.616 2.209,0.616c0.949,0 1.665,-0.194 2.147,-0.582c0.482,-0.388 0.772,-0.864 0.87,-1.429c0.098,-0.565 0.147,-1.503 0.147,-2.814l0,-9.163l3.344,0l0,8.7c0,1.989 -0.09,3.393 -0.271,4.214c-0.181,0.821 -0.514,1.514 -1,2.079c-0.486,0.565 -1.136,1.015 -1.949,1.35c-0.814,0.336 -1.876,0.503 -3.186,0.503c-1.582,0 -2.782,-0.182 -3.599,-0.548c-0.817,-0.365 -1.463,-0.84 -1.937,-1.423c-0.475,-0.584 -0.788,-1.196 -0.938,-1.836c-0.219,-0.949 -0.328,-2.35 -0.328,-4.203l0,-8.836Z" style="fill:#fff;fill-opacity:0.8;"/><g><path d="M38.053,15.566l1.268,0.165c-0.139,0.873 -0.493,1.557 -1.064,2.052c-0.571,0.494 -1.271,0.741 -2.102,0.741c-1.041,0 -1.878,-0.34 -2.511,-1.021c-0.633,-0.68 -0.949,-1.655 -0.949,-2.926c0,-0.821 0.136,-1.54 0.408,-2.156c0.272,-0.616 0.687,-1.078 1.243,-1.386c0.556,-0.308 1.162,-0.462 1.816,-0.462c0.826,0 1.502,0.209 2.027,0.627c0.525,0.418 0.862,1.011 1.01,1.78l-1.254,0.193c-0.119,-0.511 -0.33,-0.895 -0.634,-1.153c-0.303,-0.258 -0.669,-0.387 -1.099,-0.387c-0.649,0 -1.177,0.233 -1.583,0.699c-0.406,0.465 -0.609,1.202 -0.609,2.21c0,1.021 0.196,1.764 0.587,2.227c0.392,0.463 0.903,0.695 1.533,0.695c0.507,0 0.929,-0.155 1.268,-0.466c0.339,-0.31 0.554,-0.788 0.645,-1.432Z" style="fill:#fff;fill-opacity:0.8;fill-rule:nonzero;"/><path d="M39.944,14.549c0,-1.409 0.391,-2.452 1.175,-3.13c0.654,-0.564 1.451,-0.846 2.392,-0.846c1.046,0 1.9,0.343 2.564,1.028c0.664,0.685 0.996,1.632 0.996,2.84c0,0.979 -0.147,1.749 -0.441,2.31c-0.293,0.561 -0.721,0.997 -1.282,1.307c-0.561,0.311 -1.173,0.466 -1.837,0.466c-1.065,0 -1.926,-0.341 -2.582,-1.024c-0.657,-0.683 -0.985,-1.667 -0.985,-2.951ZM41.269,14.549c0,0.974 0.212,1.703 0.637,2.188c0.425,0.485 0.96,0.727 1.605,0.727c0.64,0 1.172,-0.244 1.597,-0.731c0.425,-0.487 0.638,-1.229 0.638,-2.227c0,-0.941 -0.214,-1.654 -0.641,-2.138c-0.428,-0.485 -0.959,-0.727 -1.594,-0.727c-0.645,0 -1.18,0.241 -1.605,0.723c-0.425,0.482 -0.637,1.211 -0.637,2.185Z" style="fill:#fff;fill-opacity:0.8;fill-rule:nonzero;"/><path d="M48.582,18.352l0,-7.607l1.153,0l0,1.067c0.239,-0.372 0.557,-0.672 0.953,-0.898c0.396,-0.227 0.848,-0.341 1.354,-0.341c0.563,0 1.025,0.117 1.386,0.351c0.36,0.234 0.615,0.561 0.763,0.982c0.601,-0.889 1.384,-1.333 2.349,-1.333c0.755,0 1.335,0.209 1.741,0.627c0.406,0.418 0.608,1.061 0.608,1.93l0,5.222l-1.282,0l0,-4.792c0,-0.516 -0.041,-0.887 -0.125,-1.114c-0.084,-0.226 -0.235,-0.409 -0.455,-0.548c-0.22,-0.138 -0.477,-0.207 -0.773,-0.207c-0.535,0 -0.979,0.178 -1.333,0.533c-0.353,0.356 -0.53,0.926 -0.53,1.709l0,4.419l-1.289,0l0,-4.942c0,-0.573 -0.105,-1.003 -0.315,-1.29c-0.21,-0.286 -0.554,-0.429 -1.032,-0.429c-0.363,0 -0.698,0.095 -1.006,0.286c-0.308,0.191 -0.531,0.471 -0.67,0.838c-0.138,0.368 -0.208,0.898 -0.208,1.59l0,3.947l-1.289,0Z" style="fill:#fff;fill-opacity:0.8;fill-rule:nonzero;"/><path d="M60.802,21.267l0,-10.522l1.175,0l0,0.989c0.277,-0.387 0.589,-0.677 0.938,-0.871c0.349,-0.193 0.771,-0.29 1.268,-0.29c0.649,0 1.222,0.167 1.719,0.502c0.497,0.334 0.871,0.806 1.124,1.414c0.254,0.609 0.38,1.277 0.38,2.002c0,0.779 -0.14,1.479 -0.419,2.103c-0.279,0.623 -0.685,1.1 -1.218,1.432c-0.532,0.332 -1.092,0.498 -1.679,0.498c-0.43,0 -0.816,-0.091 -1.157,-0.272c-0.342,-0.182 -0.622,-0.411 -0.842,-0.688l0,3.703l-1.289,0ZM61.969,14.592c0,0.979 0.199,1.702 0.595,2.17c0.396,0.468 0.876,0.702 1.44,0.702c0.573,0 1.063,-0.242 1.472,-0.727c0.408,-0.485 0.612,-1.236 0.612,-2.253c0,-0.969 -0.199,-1.695 -0.598,-2.177c-0.399,-0.483 -0.875,-0.724 -1.429,-0.724c-0.549,0 -1.035,0.257 -1.458,0.77c-0.422,0.514 -0.634,1.26 -0.634,2.239Z" style="fill:#fff;fill-opacity:0.8;fill-rule:nonzero;"/><path d="M73.924,17.414c-0.477,0.406 -0.937,0.692 -1.379,0.859c-0.441,0.167 -0.915,0.251 -1.421,0.251c-0.836,0 -1.478,-0.204 -1.927,-0.612c-0.449,-0.409 -0.674,-0.93 -0.674,-1.565c0,-0.373 0.085,-0.713 0.255,-1.021c0.169,-0.308 0.391,-0.555 0.666,-0.742c0.274,-0.186 0.584,-0.327 0.927,-0.422c0.254,-0.067 0.636,-0.131 1.147,-0.194c1.041,-0.124 1.807,-0.272 2.299,-0.444c0.005,-0.176 0.007,-0.289 0.007,-0.336c0,-0.526 -0.122,-0.896 -0.365,-1.111c-0.33,-0.291 -0.819,-0.436 -1.469,-0.436c-0.606,0 -1.054,0.106 -1.343,0.318c-0.289,0.213 -0.502,0.589 -0.641,1.128l-1.26,-0.171c0.114,-0.54 0.303,-0.976 0.565,-1.308c0.263,-0.332 0.643,-0.587 1.139,-0.766c0.497,-0.179 1.072,-0.269 1.727,-0.269c0.649,0 1.177,0.077 1.583,0.23c0.405,0.152 0.704,0.345 0.895,0.576c0.191,0.232 0.325,0.524 0.401,0.878c0.043,0.219 0.064,0.616 0.064,1.189l0,1.719c0,1.198 0.028,1.956 0.083,2.274c0.055,0.317 0.163,0.622 0.326,0.913l-1.347,0c-0.134,-0.267 -0.22,-0.58 -0.258,-0.938ZM73.817,14.534c-0.468,0.191 -1.17,0.354 -2.106,0.487c-0.53,0.077 -0.905,0.163 -1.125,0.258c-0.219,0.096 -0.389,0.235 -0.508,0.419c-0.12,0.184 -0.179,0.388 -0.179,0.613c0,0.344 0.13,0.63 0.39,0.859c0.26,0.229 0.641,0.344 1.143,0.344c0.496,0 0.938,-0.109 1.325,-0.326c0.387,-0.217 0.671,-0.514 0.852,-0.892c0.139,-0.291 0.208,-0.721 0.208,-1.289l0,-0.473Z" style="fill:#fff;fill-opacity:0.8;fill-rule:nonzero;"/><path d="M77.119,18.352l0,-7.607l1.16,0l0,1.082c0.559,-0.836 1.366,-1.254 2.421,-1.254c0.459,0 0.88,0.083 1.265,0.247c0.384,0.165 0.672,0.381 0.863,0.649c0.191,0.267 0.324,0.585 0.401,0.952c0.048,0.239 0.071,0.657 0.071,1.254l0,4.677l-1.289,0l0,-4.627c0,-0.525 -0.05,-0.918 -0.15,-1.178c-0.101,-0.261 -0.278,-0.468 -0.534,-0.624c-0.255,-0.155 -0.555,-0.232 -0.899,-0.232c-0.549,0 -1.023,0.174 -1.422,0.523c-0.398,0.348 -0.598,1.01 -0.598,1.984l0,4.154l-1.289,0Z" style="fill:#fff;fill-opacity:0.8;fill-rule:nonzero;"/><path d="M85.22,21.282l-0.143,-1.211c0.282,0.077 0.527,0.115 0.738,0.115c0.286,0 0.515,-0.048 0.687,-0.143c0.172,-0.096 0.313,-0.23 0.423,-0.402c0.081,-0.128 0.212,-0.448 0.394,-0.959c0.024,-0.072 0.062,-0.177 0.114,-0.316l-2.886,-7.621l1.389,0l1.583,4.405c0.206,0.559 0.389,1.146 0.552,1.762c0.148,-0.592 0.325,-1.17 0.53,-1.733l1.626,-4.434l1.289,0l-2.894,7.736c-0.31,0.836 -0.551,1.411 -0.723,1.726c-0.229,0.425 -0.492,0.737 -0.788,0.935c-0.296,0.198 -0.649,0.297 -1.06,0.297c-0.248,0 -0.525,-0.052 -0.831,-0.157Z" style="fill:#fff;fill-opacity:0.8;fill-rule:nonzero;"/></g></svg>