<?xml version="1.0" standalone="no"?><!DOCTYPE svg PUBLIC "-//W3C//DTD SVG 1.1//EN" "http://www.w3.org/Graphics/SVG/1.1/DTD/svg11.dtd"><svg width="100%" height="100%" viewBox="0 0 65 65" version="1.1" xmlns="http://www.w3.org/2000/svg" xmlns:xlink="http://www.w3.org/1999/xlink" xml:space="preserve" style="fill-rule:evenodd;clip-rule:evenodd;stroke-linecap:round;stroke-linejoin:round;stroke-miterlimit:1.41421;"><g><path d="M19.551,17.916c0,0 3.382,-14.185 15.41,-12.392c12.027,1.794 13.251,13.455 10.865,19.914c-2.048,5.544 -6.676,12.461 -6.349,22.615c0.117,3.658 0.276,8.834 -4.516,11.036c-4.793,2.202 -14.119,-2.451 -11.031,-11.036" style="fill:none;stroke-width:4.5px;stroke:#505570;"/><path d="M25.865,21.585c0,0 3.06,-9.597 10.05,-5.485c6.99,4.112 0.669,12.558 -1.085,17.532c-1.754,4.974 -1.956,13.278 -7.666,9.039" style="fill:none;stroke-width:4.5px;stroke:#505570;"/><path d="M19.735,17.346c0,0 -2.533,7.053 4.577,12.063c6.781,4.778 1.032,2.871 -2.397,5.388" style="fill:none;stroke-width:4.5px;stroke:#505570;"/></g></svg>